/* XPM */
static char *_c655f9e84c64f03ddf13ae049dc16b5qMBpBZQbEZrpqQkh[] = {
/* columns rows colors chars-per-pixel */
"40 40 144 2 ",
"   c #14182E",
".  c #181A2F",
"X  c #161A31",
"o  c #181C31",
"O  c #1E1D32",
"+  c #1C1F33",
"@  c #1F1E32",
"#  c #191C34",
"$  c #1A1E34",
"%  c #1D213A",
"&  c #222134",
"*  c #252436",
"=  c #2A2234",
"-  c #2D2737",
";  c #21253B",
":  c #252839",
">  c #26293A",
",  c #292B3A",
"<  c #33273A",
"1  c #312D3D",
"2  c #3F2E3C",
"3  c #49303D",
"4  c #4E313E",
"5  c #2E2B40",
"6  c #2A2E44",
"7  c #2E344E",
"8  c #363843",
"9  c #373943",
"0  c #373944",
"q  c #3B3D46",
"w  c #36374E",
"e  c #38354B",
"r  c #313653",
"t  c #333855",
"y  c #393A54",
"u  c #353B58",
"i  c #383D5B",
"p  c #3A3F5D",
"a  c #3A3F5E",
"s  c #433A45",
"d  c #423A47",
"f  c #453C4C",
"g  c #4D3849",
"h  c #593544",
"j  c #324356",
"k  c #315E73",
"l  c gray28",
"z  c #404149",
"x  c #45464C",
"c  c #4D414A",
"v  c #4E424B",
"b  c #494949",
"n  c #4B4B4B",
"m  c #48494E",
"M  c #48494F",
"N  c #4C4C4C",
"B  c #4F4F4E",
"V  c gray31",
"C  c #53434C",
"Z  c #50504F",
"A  c #4D4E51",
"S  c #4E4E52",
"D  c #444559",
"F  c #43435F",
"G  c #464958",
"H  c #574953",
"J  c #505050",
"K  c #505152",
"L  c #535352",
"P  c #545453",
"I  c gray33",
"U  c #555554",
"Y  c #555555",
"T  c gray34",
"R  c #585857",
"E  c #585858",
"W  c #595958",
"Q  c #5A5A59",
"!  c #5B5B5A",
"~  c #5C5C5A",
"^  c #5C5C5B",
"/  c #5F5F5E",
"(  c #694148",
")  c #6D484E",
"_  c #70404B",
"`  c #7B5153",
"'  c #61615F",
"]  c #404461",
"[  c #464762",
"{  c #464863",
"}  c #525067",
"|  c #695861",
" . c #675B68",
".. c #685D6E",
"X. c #636361",
"o. c #696967",
"O. c #8C5253",
"+. c #8E5554",
"@. c #9C5957",
"#. c #9F5B58",
"$. c #A8605B",
"%. c #945760",
"&. c #816260",
"*. c #8B606C",
"=. c #9A6767",
"-. c #8D716F",
";. c #8F7779",
":. c #997576",
">. c #977B7A",
",. c #967A7C",
"<. c #B86C65",
"1. c #BA6F66",
"2. c #BF7268",
"3. c #C17066",
"4. c #9C817F",
"5. c #BA907F",
"6. c #797C8B",
"7. c #418195",
"8. c #4FA4B8",
"9. c #9D8080",
"0. c #A08280",
"q. c #BD8B81",
"w. c #9FA8B5",
"e. c #ADAEB9",
"r. c #C59084",
"t. c #DA9580",
"y. c #E09983",
"u. c #E29C85",
"i. c #CDA290",
"p. c #D4A592",
"a. c #E5AF95",
"s. c #EBB498",
"d. c #EFB499",
"f. c #F1B799",
"g. c #F5B99A",
"h. c #F3B99C",
"j. c #F8BC9D",
"k. c #FBBC9D",
"l. c #FDBF9F",
"z. c #FCC0A0",
"x. c #FFC2A1",
"c. c #C4C8D2",
"v. c #D5CDD5",
"b. c #D3D3DC",
/* pixels */
"b B J J J J J J H Z Z Z J J Z J J Z K Z K Z Z K Z Z B Z K B n Z N N N N N N B b ",
"B X./ X.' ' ' ' ' X.' ' ' X.' ' X.' ' ' ' ' ' ' ' ' W ^ ' ' ^ ^ R ^ ^ R R ^ ' S ",
"J ' R W W W W W W W W R R R W R W W R R W W W R R W W W W W R W ^ R ^ R ^ R ^ N ",
"J ' W W ^ W W W W ^ W ^ W ^ W ^ W W ^ W W ^ W ^ W W W ^ W W ^ W R ^ R ^ R ^ R N ",
"B X.W W W W W ^ ^ W W W W ^ W W ^ W W W ^ W W W W W W ^ ^ ^ W W ^ R ^ R ^ R ^ N ",
"J X.W W W ^ W W W W ^ W W Y W W ^ W ^ W ^ W ^ W ^ ^ W W W W W ^ R ^ R ^ R ^ R N ",
"J X.W ^ ^ W ^ W W ^ ^ W S l W W W W ^ W W W ^ W W W ^ W W W W ^ ^ R ^ R ^ R R N ",
"B ' W W W W W / Y P W W P P W z 9 9 9 9 9 9 9 9 j ^ W W ^ ^ W W R ^ R ^ R ^ ^ N ",
"S ' W W ^ W W X.B b W W W W Y > X X X X X X X X - Y E E E E ! Q ^ R ^ R ^ R R N ",
"Z ' W W W W W ' B b W W W S @ 7 u u u u u u u u 7 @ n E Q ! E ! R ^ R ^ R ^ ^ N ",
"Z ' W ^ W ^ W ^ / W / W G e % i a a a a a a a a t ; f A ! Q ! Q ^ R ^ R ^ R ^ N ",
"J X.W W W ^ W W W W W W # % a a a a a a a a a a j j $ ; W ! E ! R ^ R ^ R ^ R N ",
"J ' W ^ W W ^ W W W W W % % a a a a a a a a a a a a $ @ ! W ! W ^ R ^ R ^ R W N ",
"J ' W W W ^ W W W W W W % % ] j ] ..} a a a a a a a ; % W ! W ! R ^ R ^ R ^ W n ",
"J ' W W W W ^ ^ / W W W . % j j } h.9.j a a a a a a $ $ ! W ! W ^ R ^ R ^ R W Z ",
"J ' W W ^ W W W W W W / % s p.t.p.l.0.a a a a a a a ; $ W ! W ! R ^ R ^ R ^ W N ",
"Z ' Q ^ Q R R ^ Q R R ~ % v l.s.a.a.;.a a a a a a a % @ ^ R ^ R W W ^ ^ W W ^ N ",
"Z ' R R ^ ^ Q Q ~ ~ Q Q @ c x.| w e y a a j a a a a # # ^ ^ R ^ ^ W W W W ^ W N ",
"Z ' R Q R Q ^ R R Q Q R + c k.H 5 -. .] ,.9.,.[ a a % @ ^ R ^ R ^ W W W W W ^ N ",
"Z ~ ^ Q R ^ Q R R ^ R R + c k.c 5 f.9.[ d.z.h.} a a ; ; R ^ R ^ W W ^ ^ ^ W W N ",
"n Q Q Q R Q ^ ^ Q Q ^ R & 2 2.2 1 g.9.F <.t.j.} r X x R ^ R ^ R ^ W W W W ^ W N ",
"Z ' Q Q ^ Q R Q ^ R ^ Q j d ( &.:.k.i.9.t.q.,.w 6 9 S ^ R ^ R ^ W W ^ W W W W N ",
"Z ' R ~ ^ R Q R R ^ R Q W M . 5.f.f.g.k.j.>.u # ; R ^ R ^ R ^ R W ^ W ^ ^ ^ I b ",
"L ' R R Q R ^ ^ Q Q R ^ R R L 8 1 1 ` 3.) 3 #   > R R ^ R ^ R ^ W ^ W W W W N b ",
"Z ' Q Q Q Q Q Q W ! W ! W Y x D D < ( @.4 f j % > R R W ^ ^ W W ^ W W W ^ W n b ",
"Z Q Q Q Q Q Q Q ! W ! W ! m   e.v.#.( 4 o 6.b.6 , o.' R W W W ^ W W ^ W W W b b ",
"n Q Q Q Q Q Q Q W ! W ! W m   e.v.%.h = O.r.z.6 > X.^ ^ W W W W W ^ W W W W K b ",
"n Q Q Q Q Q Q Q ! W ! W ! m   e.c.*.g % 1.u.f.1 * W W W ^ ^ W Y W W ^ ^ ^ W ^ n ",
"Z Q Q Q Q Q Q Q W ! W ! W m   7.8.8.k % f.x.f.1 > W W ^ W W W ^ ^ W W W ^ R ^ N ",
"Z ' Q Q Q Q Q Q ! W ! W W L x j j :.=.+.C v v b K ^ W W W ^ W W W W ^ W R ^ R N ",
"n R Q Q Q Q Q Q W ! W ! W W Y , - #.$.#.* % % Y R R ^ W W W ^ W W ^ W ^ ^ R W N ",
"n Q Q Q Q Q Q Q ! W ! W ! L n W H & + @ Z Y P R W ^ W W ^ ^ R R W W W N R ^ W N ",
"n ^ R ^ W W ^ ' W W ^ W W W ^ W R 8 8 q W W R ^ R ^ R ^ ^ I b I ^ ^ W L W ^ W n ",
"J ' R R ^ W W W W ^ Y R ^ W ' o.^ ^ W W ^ W ^ R ^ R ^ R W W S I W W W W W W W Z ",
"Z ^ ^ R ^ W W W ^ ^ W W W W R ' ^ R ^ R W ^ R ^ R ^ R ^ ^ R W ^ W ^ ^ W W ^ W N ",
"Z ^ R ^ W W ^ ^ W W W ^ ^ W W R R ^ R ^ ^ W ^ R ^ R ^ R W ^ W R W W W ' W W ^ N ",
"Z ' R ^ W W W W ^ W W W W W W ^ ^ R ^ R W W W ^ R ^ R ^ R ^ R ^ ^ W ^ W W ^ W N ",
"Z ' R ^ W ^ ^ W W W ^ ^ W ^ W W R ^ R ^ ^ ^ W W ^ R ^ R ^ R ^ R ^ W W W W W W N ",
"J X.R R W R W R W ^ W W W W ^ W ^ R W W W W W W R ^ R ^ R ^ R ^ W W W W ^ W W N ",
"J W n n Z n Z n n Z N N N N n Z N N N N n Z N n N N N N N N N N Z N N N Z n N N "
};
