/* XPM */
static char *_8ca740a3f6d4500c999f7a88c2c03b0bBAvvY7mfzdnAGCq[] = {
/* columns rows colors chars-per-pixel */
"40 40 116 2 ",
"   c #14182E",
".  c #161A31",
"X  c #181C31",
"o  c #1C1F33",
"O  c #231E32",
"+  c #211F34",
"@  c #1D213A",
"#  c #292235",
"$  c #2C2336",
"%  c #20253A",
"&  c #242738",
"*  c #262939",
"=  c #28293A",
"-  c #2C2B3A",
";  c #342638",
":  c #3D2A39",
">  c #34313F",
",  c #432D3B",
"<  c #4B323F",
"1  c #1B2940",
"2  c #2E344E",
"3  c #333145",
"4  c #373944",
"5  c #3A3943",
"6  c #3A3C46",
"7  c #3B3D46",
"8  c #223B51",
"9  c #333855",
"0  c #353B58",
"q  c #383D5B",
"w  c #3A3F5E",
"e  c #473441",
"r  c #543440",
"t  c #593642",
"y  c #593742",
"u  c #603A44",
"i  c #3F4149",
"p  c #3C405E",
"a  c gray28",
"s  c #404149",
"d  c #4E424B",
"f  c #4E434B",
"g  c #49474D",
"h  c #484848",
"j  c #484849",
"k  c #494949",
"l  c #4B4B4B",
"z  c #48494E",
"x  c #48494F",
"c  c #4A4B4E",
"v  c #4A4B4F",
"b  c #4B4C4F",
"n  c #4C4C4C",
"m  c #4D4D4C",
"M  c #4F4F4E",
"N  c #50504F",
"B  c #42425F",
"V  c #5A4A5F",
"C  c #505050",
"Z  c #515253",
"A  c #535353",
"S  c #545453",
"D  c gray33",
"F  c #555555",
"G  c #575756",
"H  c gray34",
"J  c #585857",
"K  c #595958",
"L  c #5A5A59",
"P  c #5B5B59",
"I  c #5B5B5A",
"U  c #5C5C5A",
"Y  c #5C5C5B",
"T  c #5E5E5D",
"R  c #5F5F5E",
"E  c #694148",
"W  c #74474B",
"Q  c #6C4C59",
"!  c #69525E",
"~  c #77505A",
"^  c #75515D",
"/  c #61615F",
"(  c #615A65",
")  c #7B5560",
"_  c #795D67",
"`  c #616160",
"'  c #636361",
"]  c #686866",
"[  c #804651",
"{  c #844F51",
"}  c #8C4C55",
"|  c #935655",
" . c #955B5A",
".. c #A8605B",
"X. c #B3655E",
"o. c #875864",
"O. c #B56761",
"+. c #A07776",
"@. c #C5756A",
"#. c #AF8879",
"$. c #B98778",
"%. c #4C9BAF",
"&. c #4FA4B8",
"*. c #ADAEB9",
"=. c #C99B86",
"-. c #C3998A",
";. c #C59A8A",
":. c #DB9F88",
">. c #D5A38B",
",. c #CEA190",
"<. c #DFAC9B",
"1. c #E2AD92",
"2. c #F1AF93",
"3. c #DBB3A2",
"4. c #FFC2A1",
"5. c #C6C7D0",
/* pixels */
"k M C C C C C C N N C N N N C C C C C C C C C C C C c M C M b M M l c M c l M c ",
"M ' R ' / / / / ' ' ( / / / / / / / / / / / ` ` / / U K ` / / U L L K K K K U Z ",
"C / J K K K K K K K K K J J K J J J K K K K K K K K K U K K K K L L L L K U K l ",
"C / K K Y K K K Y K K Y K Y Y J J Y J Y K U K K K K U K U K K K L L L L U K K M ",
"M ' K K K K K Y K K K K J Y Y K Y J U J U J U K K I K I K K K U L L L L K U K c ",
"C ' K K K Y K K K K K Y J G J K J Y J U J U K U I K I K U K U K L L L L K K K l ",
"C ' K Y Y K Y K K R K R M a G K Y J U J U K U K K I K I K U K K L L U K U L K M ",
"M / K K K K K R G C K K C G K s 5 5 4 4 4 4 4 4 i K I K K K U K L K L L U K G l ",
"C R K K K Y K ' M k K K K K G * .   . . .   .   * G J K K J U J L L L L L L K M ",
"C ' K K K Y K / M k K K K c o 2 q 0 q 9 q 0 q 0 2 @ c J K U K U L L L L L L K M ",
"C ' K K K K Y K Y K Y K c 6 @ 9 p q w w w w w w 9 @ i c U K U K L L L L L L L l ",
"C ' K K Y K K K K K Y K o @ w w p p w w w w w w w q @ @ K U K K L L L L L L L M ",
"C / K K Y K K Y K Y K K @ @ w w q w w w w w w w q p @ @ K K I K L L L L L U L l ",
"C / K K Y K K Y K K Y K o @ w w w w w w w w w w p p @ X K I K I L L L L K K K l ",
"C / K K K K K K Y Y K K o @ w w w w w w w w p p p q @ @ I K I K L L L L L L K M ",
"C / K K K Y Y K K K K Y o @ w w w w w w w w q q p p @ @ K I K I L L L L L L K m ",
"C ' K K G Y G Y K K G A 3 3 w w w w w w w w w w w w 3 3 Z K K K L L L L L L K c ",
"C ' K Y Y K Y K Y H c . >.;.w w w w w w w q w w w w -.>.. v K U L L L L L L L M ",
"C ' G K K Y G Y H Y g   1.,.w w w w w w p p q p w w ,.1.  z U K L L L L L L L c ",
"c K Y K Y G Y K Y K c X >.;.B p w w w w q p p p w B -.>.. z K U L L L L L L L M ",
"v J J Y G Y K Y G Y G G = e O.V w w w w w w p p V X.e * F K K U K L L L U K K l ",
"N / J P Y K Y G Y K K H o # E ~ ) ) V w w V o.^ ^ E # @ U K K K U K L L K K K c ",
"N / J Y G Y H Y K K K G = % o | O.O.^ q q ^ X.X.| @ @ * F K K U K L K U K U Z l ",
"N ' J Y Y K Y K Y K v o ;.3.5._ y # @ . . @ $ y _ 5.3.=.@ z U K U K U K K K M l ",
"N / K K K K K K H C g d :.<.*.! t 3 O O % ; ; r ! *.1.>.d c M G L L L L L L l a ",
"N K K K R K R K G o d 4.@.|   , t | u y < u } y ,   | @.4.d @ C L L L L K K h l ",
"n K K L K R K K D o d 4.2.$.  , t u u } [ u u r ,   $.2.4.d o S L L L L L L N l ",
"n J K ! K K K K H & d 1.1.#.  : e t Q o.o.~ f r :   #.1.1.d & N K L L K L L L b ",
"M Y L U K R K K K K c           1 %.&.&.&.&.%.@           c J K K U K U K L K m ",
"M R J J K K K K Y K D x g 7   W  .+.( 8 8 ( +. .W   6 c c S K K L K L K U K L m ",
"v L U L K K K R Y K K K K v o { ....u + o u ....{ o c K K K K R K U K K K K K m ",
"M J K L U L U K K K Y K Y A j - o o 5 V D 6 o X - G J R K K G K P K K N K K K c ",
"c U U L J U U T L L J J L L L i 4 4 v U K c 4 4 i L L L P F h F P P K Z K K K l ",
"M ! K K L U L L L L L J L L U ] L U K K L L L L L L L L K K N F P K P P L K U M ",
"M U U K L J U J L L L L L L U ` L K L K L L L L L L L L P K U L K K K U L L L l ",
"M L L L U J L L L L L L L L L J K U K U L L L L L L L L K P P L U K K / K L L m ",
"C / J L U J J U U K K K L L L L P K P K U K P K L L P K P K L L K U L L L L K m ",
"C / J U U L U K K K U P L L L L K P K P K P K K L L K K K P L K L K L L L L G m ",
"C R L L J L U J K U K K K K L L K K P P U K K K L U U K P L L K K L L K L L L m ",
"C L c c m c c m m v m m v c M v m m m m v v m m v v c m M v c m v M v c m m m c "
};
