/* XPM */
static char *_ea2abe5b5ce425ead3bc00dba20a841gxiiKRojOXEQsWvD[] = {
/* columns rows colors chars-per-pixel */
"40 40 138 2 ",
"   c #14182E",
".  c #161A31",
"X  c #181C31",
"o  c #1E1D32",
"O  c #1C1F33",
"+  c #1B2239",
"@  c #1D213A",
"#  c #222336",
"$  c #222437",
"%  c #292235",
"&  c #20253A",
"*  c #242738",
"=  c #27263D",
"-  c #262939",
";  c #28293A",
":  c #2C2B3A",
">  c #34313F",
",  c #432D3B",
"<  c #2E344E",
"1  c #333145",
"2  c #373943",
"3  c #373944",
"4  c #3A3943",
"5  c #3A3C46",
"6  c #3B3D46",
"7  c #38354B",
"8  c #223B51",
"9  c #383750",
"0  c #333855",
"q  c #353B58",
"w  c #3A3F5E",
"e  c #473441",
"r  c #593642",
"t  c #653B48",
"y  c #653C49",
"u  c #673E48",
"i  c #3F4149",
"p  c #3D425F",
"a  c gray28",
"s  c #404149",
"d  c #4E424B",
"f  c #484849",
"g  c #494949",
"h  c gray29",
"j  c #4B4B4B",
"k  c #48494E",
"l  c #48494F",
"z  c #494A4E",
"x  c #4A4B4F",
"c  c #4C4C4C",
"v  c #4E4E4D",
"b  c #4F4F4E",
"n  c #50504F",
"m  c #505050",
"M  c #535353",
"N  c #545453",
"B  c gray33",
"V  c #555554",
"C  c #555555",
"Z  c gray34",
"A  c #585857",
"S  c #595958",
"D  c #5B5B59",
"F  c #5C5C5B",
"G  c #5F5F5E",
"H  c #624047",
"J  c #694148",
"K  c #6B444A",
"L  c #74474B",
"P  c #61535E",
"I  c #69525E",
"U  c #61615F",
"Y  c #464863",
"T  c #5F576B",
"R  c #655B6D",
"E  c #795D67",
"W  c #49637F",
"Q  c #636361",
"!  c #686866",
"~  c #7E686E",
"^  c #814751",
"/  c #804953",
"(  c #844F51",
")  c #8C4C55",
"_  c #8F4D57",
"`  c #87505D",
"'  c #935655",
"]  c #925756",
"[  c #955958",
"{  c #995A5F",
"}  c #A8605B",
"|  c #886A66",
" . c #866C6C",
".. c #8E7069",
"X. c #8F716D",
"o. c #9C7B76",
"O. c #A0696A",
"+. c #AA6A6D",
"@. c #B56761",
"#. c #B16965",
"$. c #C17066",
"%. c #C5756A",
"&. c #AF8879",
"*. c #B38174",
"=. c #B98778",
"-. c #C18174",
";. c #D4917E",
":. c #4E869E",
">. c #4FA4B8",
",. c #BA9387",
"<. c #AA949F",
"1. c #B7969F",
"2. c #ADAEB9",
"3. c #C58884",
"4. c #C99B86",
"5. c #C3998A",
"6. c #C59A8A",
"7. c #DE9681",
"8. c #DB9F88",
"9. c #D5A38B",
"0. c #CEA190",
"q. c #D0A290",
"w. c #DFAC9B",
"e. c #E2AD92",
"r. c #E5AF95",
"t. c #EDAB91",
"y. c #F1AF93",
"u. c #E7B198",
"i. c #F4B598",
"p. c #F2B89B",
"a. c #FABB9D",
"s. c #FBBC9D",
"d. c #F9BE9F",
"f. c #DBB3A2",
"g. c #FFC2A1",
"h. c #C6C7D0",
"j. c #CDD8E2",
"k. c #DFE0E8",
/* pixels */
"g b m m m m m m n v n n n n n n n n n m n m m m m n x n n n x b v j j v j v b k ",
"b Q G Q U U U U R Q U U U U U U U U U U U U U U U U S F U U F F F A F A F A G m ",
"m U A S S S S S F A A F D A A A A A S S A A S A A S F F A A F F A F A F A S S g ",
"m U S S F S S S F A A F D D F A F F S F F S F A S S S S F A F A A F F A S F F b ",
"b Q S S S S S F F A D A A F A F A F A F A F A F A F A F A F A F A F A A A F F j ",
"m Q S S S F S S A A F A A C A A F A F A F A F A F A F A F A F A A F F F F A A v ",
"m Q S F F S F S F D A F n a C F A F A F A F A F A F A F A F A F A F F F F A A x ",
"b U S S S S S G C N D A N N S s 4 2 2 2 2 2 2 2 i A F A F A F A F A A A F A A b ",
"m G S S S F S Q b g S S F S C * . . . . . . . . - C A A F F S S A A F F A A F j ",
"m Q S S S F S U b g S S A x + < q q q q q q q q < + x A S S S F F F A F A F A v ",
"m Q S S S S F S F S F S x 5 @ 0 w w w w w w w w 0 @ i g S S S F F A F A F A F j ",
"m Q S S F S S S S S F S o @ w w w w w w w w w w q p @ + F F S S A A F F F A A b ",
"m U S S F S S F S F S S + @ w w w w w w w w w w w w @ o S S S F F A F A A A A x ",
"m U S S F S S F S S F S o @ q R R p w w w w p R T p @ + S F S S A A F A F F D j ",
"m U S S S S S S F F S S + @ w 0.u.Y w w w w Y r.0.w $ o F S F S F F A F D A A n ",
"m U S S S F F S S S S F o + w 0.g.0.0.0.0.0.9.a.0.w + + S S F S A F A F A F A b ",
"M P S F S S S F S A A M 1 1 w ,.e.r.p.g.g.p.r.r.,.p 1 1 n C A A A A F F A A F j ",
"n Q S S F F S S F A x   9.5.w 9 7 7 o.g.g.o.7 7 9 w 5.9.+ g S S F A F A F F A v ",
"n U S S S S F S S S l   e.0.w  . .= X.g.g...=  .~ w 5.r.  x F S F F A F A A F j ",
"c F F S S F S S S F l X 9.5.w 9.e.+ | d.s.| $ e.0.Y 6.9.X x F S A A F F F A F j ",
"c S S F S S F F S S S C ; e @.y.e.$ K $.$.K $ e.t.@.e ; C S S S F F A A A F S j ",
"n U S S F S S S F S F S o % u -.;...*.7.7.*...;.-.J % o S S G S A A F A F S S j ",
"n U S S F S S S S F S C ; $ o ' $.i.s.s.s.a.i.$.] & # ; C A A A D F D F A F M g ",
"n Q S F S S F F S S l O 4.f.h.E u { #.%.%.#.{ u E h.f.4.+ x S F A F A A F A n g ",
"n Q S F S S S F A x g d 9.r.2.R r ) +.3.3.+._ r I 2.r.8.d l l A S F S S S S k g ",
"n S S S S F S S C o d g.%.'   , r ) 1.k.k.1.) r ,   ] %.g.d O C S F S F F S g g ",
"z S F F F S F S C + d g.y.=.  t ^ _ 1.k.k.1._ ) t   =.y.g.d O B S S S F S S m g ",
"j S S S S S F S C $ d e.e.&.  t L ` <.j.j.<.` L t   &.e.e.d * m S F S S S F S n ",
"n F F S S S F S F A b           & W :.>.>.:.W +         . l A S S F S S F S A v ",
"n F S S F S F S A A C x v 4   L [ O.R 8 8 P O.[ L   5 x x B S S S F S F S A F j ",
"h A S F S F S S F F A F A g + ( } } t X o y } } ( + x A S S S G S S S A S F F j ",
"n S S F S S S G A F A F A N a : o o 1 C N 4 o o : C S F S F C S F S S n A S A j ",
"j S S S S S G G S S S S F F S i 2 2 z A F k 2 2 i S S F F C g C F F S m A A F j ",
"n G S F F S S S S G C S S S G ! F S A F A F S F S F S S A A n C A A S G D A D n ",
"n F S S F S S S S S F F F S S G S F S F D S S S F S F S A F F A S S S S A F A v ",
"n G S F S S F F S S S S S S S S S F S S A F F S S S F S F A D F F S F G F A A j ",
"n G S S S S S S F S S S S S F S D S D S D A D A S F D A F A D A S S S S F S A n ",
"n U S S S F S S S S F S F S F S S F S F S F A F S S F A F D F A S F F S F S A v ",
"n Q A A S S S A S F A A S A S S S S S S F S F A F A D A A D F A S S S S S A F j ",
"m A g n n v z n z n n g n z n n j z n j j n j j x v n j j x j v n j n j x v v k "
};
