/* XPM */
static char *_0d87b8a91c146258bbdec7638195179EZyF0YWwJcqvSOLS[] = {
/* columns rows colors chars-per-pixel */
"40 40 133 2 ",
"   c #14182E",
".  c #151A30",
"X  c #1E1930",
"o  c #1C1F33",
"O  c #1D2037",
"+  c #1E2138",
"@  c #1F253A",
"#  c #1F223C",
"$  c #202439",
"%  c #20253A",
"&  c #242738",
"*  c #262B3D",
"=  c #2B2E3E",
"-  c #30243A",
";  c #2E303E",
":  c #5C2339",
">  c #2A2E43",
",  c #292D49",
"<  c #2A2F4A",
"1  c #2D3146",
"2  c #373943",
"3  c #373944",
"4  c #393B46",
"5  c #3B3D46",
"6  c #343851",
"7  c #363A52",
"8  c #373B53",
"9  c #393D53",
"0  c #3F4149",
"q  c #3C4058",
"w  c #3E4258",
"e  c gray28",
"r  c #404149",
"t  c #40424C",
"y  c #43454F",
"u  c #47484E",
"i  c #484849",
"p  c #494949",
"a  c #4B4B4B",
"s  c #48494D",
"d  c #4A4B4F",
"f  c #4B4C4F",
"g  c #4C4C4C",
"h  c #4D4D4C",
"j  c #4F4F4E",
"k  c #50504F",
"l  c #474952",
"z  c #47495B",
"x  c #464A5D",
"c  c #505050",
"v  c #535353",
"b  c #555554",
"n  c #555555",
"m  c #565655",
"M  c #565656",
"N  c #585857",
"B  c #595958",
"V  c #5B5B59",
"C  c #5B5B5A",
"Z  c #5C5C5B",
"A  c #5F5F5E",
"S  c #60605E",
"D  c #60605F",
"F  c #61615F",
"G  c #474A62",
"H  c #4A4D65",
"J  c #535669",
"K  c #565B71",
"L  c #535A7E",
"P  c #636361",
"I  c #686866",
"U  c #61667E",
"Y  c #A63A4E",
"T  c #656981",
"R  c #666A86",
"E  c #747685",
"W  c #72778F",
"Q  c #636A92",
"!  c #686F99",
"~  c #6F779E",
"^  c #737890",
"/  c #757995",
"(  c #917488",
")  c #7F8190",
"_  c #80849D",
"`  c #8287A1",
"'  c #898EA7",
"]  c #868BAD",
"[  c #858CAD",
"{  c #8F92A6",
"}  c #9A9CA7",
"|  c #9397AD",
" . c #9196AF",
".. c #9699AB",
"X. c #9498B6",
"o. c #979CB4",
"O. c #999EB5",
"+. c #9599B8",
"@. c #9A9EB8",
"#. c #9DA0BC",
"$. c #9FA3BF",
"%. c #A1A3B2",
"&. c #A7A8B3",
"*. c #A2A5BC",
"=. c #A6A6BE",
"-. c #ADAEB9",
";. c #B1B2BC",
":. c #C48999",
">. c #A3A7C2",
",. c #A3A8C1",
"<. c #A6ABC4",
"1. c #AAAEC5",
"2. c #ABAEC6",
"3. c #AAAFC7",
"4. c #BBBCC6",
"5. c #B4B7C9",
"6. c #B8BBCC",
"7. c #B7BCD0",
"8. c #BEC0CE",
"9. c #C3C4CD",
"0. c #C6C7D0",
"q. c #C1C3D5",
"w. c #C7C8D5",
"e. c #C9CBDA",
"r. c #CCCDDC",
"t. c #D3D3DC",
"y. c #D0D1DE",
"u. c #D8D0DC",
"i. c #D1D3E0",
"p. c #D8D8E3",
"a. c #DCDCE6",
"s. c #DFDFE7",
"d. c #DFE0E8",
/* pixels */
"p j c c c c c c c c c c c c c c c c c c j c c j c c j j j c j j g g g g g g j p ",
"j P A P F F F F A P P F F F P P F F F F F P P F A A B A A D A B C B B C C B A j ",
"c F N B B B B B B B B B B B B B B B B B B B B B B B C B B B B B B C B C B C B g ",
"c F B B Z B B B C B C B B B B B B B B B B C B C B B B C C B C B C B C B C B C g ",
"j P B B B B B Z B C B C B C Z B C B C B C B C B B C B C B C B C B C B C B C B g ",
"c P B B B Z B B C B C B B n B B B C B C B C B C C B C B C B C B C B C B C B C g ",
"c P B Z Z B Z B B Z B Z j e n B C N B B C B C B B C B C B C B C B C B C B C C g ",
"j F B B B B B A n n B B v v A 5 4 4 2 2 2 2 2 2 r B C B C B C B C B C B C B B g ",
"c A B B B Z B P j p B B Z B n = + @ % @ @ @ @ # > n B B B Z B C B C B C B C C g ",
"c P B B B Z B F j p B B B d o ^ o.9.0.0.0.0.9.X.^ o d B B B C B C B C B C B B g ",
"c P B B B B Z B Z B Z B d t 8  .7.s.d.d.s.s.s.7.| 8 y j B C B C B C B C B C B g ",
"c P B B Z B B B B B Z B o 8 >.i.d.d.d.d.d.d.d.d.y.>.8 o C B C B C B C B C B C g ",
"c F B B Z B B Z B Z B B O 8 <.i.d.d.d.d.s.s.s.d.y.>.8 o B C B C B C B C B C B g ",
"c F B B Z B B Z B B Z B o 8 +.6.i.d.d.d.s.s.s.i.q.X.6 o C B C B C B C B C B C g ",
"c F B B B B B B Z Z B B o , ! +.3.a.d.d.s.s.a.3.+.! , o B C B C B C B C B C C g ",
"c F B B B Z Z B B B B Z o 6 X.J G 3.e.d.s.e.3.G J +.8 o C B C B C B C B C B B g ",
"c D B Z B B B Z C N N C o 8 >.8 % ' 5.p.p.5.{ 1 6 *.7 o N V V N B C B C B C C g ",
"c P B B Z Z B B C C C V o 8 >.8 . + T <.=.U O   8 ,.7 O V N V V C B C B C B B g ",
"c P B B B B Z B N C C N o 8 >.8 X : ( 6.q.( : X 8 ,.7 O B Z B B B C B C B C B g ",
"f B Z B B Z B B N C V N % 8 @.9 - Y :.a.p.:.Y - 8 #.7 @ B B B Z C B C B C B C g ",
"g C B B B B Z Z C C C N B u o _ >.u.=.~ ~ =.u.%.) O u M Z Z B B B C B C C B B g ",
"c A N C Z B B B C N C C 5 =   ..4._ { =.,.{ _ 6.|   1 5 B B B Z C B C B B C B g ",
"c P B B Z B B B B B N N * $ $ &.4.O E t.t.E @ 4.&.@ @ * M B B Z B C B C C C n e ",
"c P N C B B Z Z B B g o ;.0.0.J ,   $ 1 1 @   1 J 9.0.;.O f B B C B C B C B j p ",
"c A C N B N C C B d d z 6.w.-.H , 6 y x G w 7 < H -.e.7.x d f B C B C B C B p p ",
"j C C N C C C N v o G d.3._   L ~ $.q.d.s.q.>.~ T   ) 1.d.x o n B C B C B B p p ",
"d N N C C C C N N o x d.i.%.  / #.r.3.[ [ 3.r.@.~   @.t.d.x + c C B B C C B c p ",
"j N B C N N C C n & x 0.w.}   ^ @.r.>.~ ~ @.r.O.W   } 9.0.x & c B B C B B C C g ",
"j C C C C C C N B C g         . # Q ] >.>.] Q #           u C C B C B C B C B g ",
"j A N N C N C C C B n u p 5   U ` +.R 7 8 R +.` T   5 u d n V N C B C B C B C g ",
"a N C C B B N C B C B C C d O ^  . .K o o K  . .^ o g B N C V N B C B B B C C g ",
"j B N C C N C A C B C N N b y > + o 4 M M 4 o o = B N V C C N N C B B j B B B g ",
"j B B B N C C A V N N B C B C r 4 4 u C V g 4 3 r B B B C N e n B C B c B C B g ",
"j A B B C C C N N A N N B C A I C C N N C B C B B B B Z B B j N C B C Z B C C g ",
"j B A B N C C C C C C C B B B F C B C B B C B C C B C B C B C C C B B C C B B g ",
"j A B B C N C N N N C N C B B B B C B C C B C B B C B C B C B B B B C A B B B g ",
"c P N C C C N C C B C B C C N C C B C B B C B C C B B C B C N C C B C B C B B j ",
"c A N C C N C C B C B B N C N C B B B C C B C B B C C B C B C N B C B C B C B g ",
"c P N N N C N N C B N B N N C C B B N N B C B B C B B C B B B N C B C B C B C j ",
"c B u h j a j a g j j p j j d j j p j j d j g g j d j p j g j d g g g g g g g p "
};
