/* XPM */
static char *_404bc571b484d3ad6ea881bde5040faPPz4BhIhjVK6fnE6[] = {
/* columns rows colors chars-per-pixel */
"40 40 115 2 ",
"   c #14182E",
".  c #1C1F33",
"X  c #191D35",
"o  c #1E2138",
"O  c #1F253A",
"+  c #202436",
"@  c #20253A",
"#  c #242738",
"$  c #262B3D",
"%  c #282B3C",
"&  c #2B2E3E",
"*  c #2E303E",
"=  c #262941",
"-  c #292D49",
";  c #2B3049",
":  c #2C314B",
">  c #373943",
",  c #373944",
"<  c #3B3D46",
"1  c #373B53",
"2  c #343956",
"3  c #3F4149",
"4  c #3C425F",
"5  c gray28",
"6  c #40424C",
"7  c #43454F",
"8  c #46474D",
"9  c #494949",
"0  c gray29",
"q  c #48494D",
"w  c #48494E",
"e  c #4A4B4E",
"r  c #4B4C4F",
"t  c #4C4C4C",
"y  c #4E4E4E",
"u  c #4F4F4E",
"i  c #50504F",
"p  c #474952",
"a  c #47495B",
"s  c #464A5D",
"d  c #505050",
"f  c #535352",
"g  c #545453",
"h  c gray33",
"j  c #555554",
"k  c #555555",
"l  c #565656",
"z  c #575756",
"x  c #585857",
"c  c #595958",
"v  c #5A5A59",
"b  c #5B5B59",
"n  c #5C5C5B",
"m  c #5F5F5E",
"M  c #60605F",
"N  c #61615F",
"B  c #424867",
"V  c #444A69",
"C  c #444A6A",
"Z  c #4C5375",
"A  c #5A5E77",
"S  c #575C7B",
"D  c #636361",
"F  c #686866",
"G  c #575E82",
"H  c #575E83",
"J  c #5E6486",
"K  c #5D658B",
"L  c #636A92",
"P  c #686F99",
"I  c #6F779E",
"U  c #717693",
"Y  c #737890",
"T  c #777D9D",
"R  c #7379A1",
"E  c #747BA0",
"W  c #767DA3",
"Q  c #80849D",
"!  c #8489A9",
"~  c #868BAD",
"^  c #9A9CA7",
"/  c #9397AD",
"(  c #8D92B2",
")  c #9095B4",
"_  c #979BB4",
"`  c #979CB4",
"'  c #9599B8",
"]  c #9A9EB8",
"[  c #999CBA",
"{  c #9FA4BF",
"}  c #A1A3B2",
"|  c #ADAEB9",
" . c #B1B2BC",
".. c #A0A3C0",
"X. c #A3A7C1",
"o. c #A3A7C2",
"O. c #A6ABC5",
"+. c #AAAFC7",
"@. c #B0B4CB",
"#. c #B2B6CC",
"$. c #BABCCF",
"%. c #B7BCD0",
"&. c #BEC0CE",
"*. c #BFC1D4",
"=. c #C3C4CD",
"-. c #C6C7D0",
";. c #C1C3D5",
":. c #C5C7D7",
">. c #C7C8D5",
",. c #D0D1DE",
"<. c #D1D3E0",
"1. c #D8D8E3",
"2. c #DCDCE6",
"3. c #DEDEE7",
"4. c #DFE0E8",
/* pixels */
"9 u d d d d d d i i d d d d d d d d d d i i i i i i u u u d u u t t t t t t d p ",
"u D m D N N N N D D N N N N D D N N N N D D N D m N c m D m m c c n c n c c n d ",
"d N x c c c c c n x x n c c c c c c c c b x x x x c c c c c c c c c n c n n c t ",
"d N c c n c c c x n x x c c c c c c c c n x n x c c c n c c c c n c c c c c c t ",
"u D c c c c c n n x n n c c n c n x x n x n x n m c c c c c c c c c n n n c c t ",
"d D c c c n c c x x x x x l x c x n n x x x n x c c c m c m c c n c c c c c n t ",
"d D c n n c n c n n x n i 5 l c c n x n n x x n c c c c m c m c n c c c c n c t ",
"u N c c c c c m g l x n i l c 3 , , > , < > , , 6 c c c c c c c c c n n c c n t ",
"d m c c c n c D u 9 c c c c l & o O @ O O O O o = x x c c n c c n c c c n c c t ",
"d D c c c n c N u 9 c c c e o Y ` =.-.-.-.-.=.` U o e c c c c n c c n c n c c t ",
"d D c c c c n c n c n c e 6 1 / %.3.4.4.4.4.3.%./ 2 6 u c c c n c n c n c c c t ",
"d D c c n c c c c c n c . 1 o.,.4.3.4.4.4.4.4.4.,.| 1 . n n c c c n c c c n n t ",
"d N c c n c c n c n c c o 1 o.,.4.4.4.4.4.4.4.4.,.o.1 . c c c n c n c c c n n t ",
"d N c c n c c n c c n c . 1 o.$.:.3.4.4.4.4.3.>.$.o.1 . c n c c c n c n c c c t ",
"d N c c c c c c n n c c . 1 o.W W 1.4.4.4.4.1.W W o.1 . n c n c c c n c n c c t ",
"d N c c c n n c c c c n . : W ( [ #.#.#.#.@.@.[ ( W : o c c n c n c c c n c c t ",
"i N v v v v v v c b c b X - P ' o.o.O.+.+.O.o.o.' I - . x c n c c c n n c c n t ",
"i N z v v v v v b c b c . - P ' o.o.*.2.2.*.o.o.) P - . c c c c n c c c c n c t ",
"i N v v v v v v v v c b . - P ' o.o.#.;.*.@.o.o.' P - o n x n c n c c c c c n t ",
"0 b v v v v v v v b v v o ; L ( { o.o.o.o.o.o...( L : o x n x n c c n n n c c t ",
"y b b b v v v v v v v v g 5 X J R { o.o.o.o...R H . 7 x x c n c c b c c b x v t ",
"y D b z v v v v v v v v < ;   2 B A U ~ ~ U A B 2   & < n c n c b c n c x b x t ",
"d M x n v v v v v v v j % O O o . X B I I B . X o O O $ l c c c c b c b n n l 5 ",
"d D x b v v v v v z 0 o  .-.-.T K K _ <.<._ K K T =.-. .. u c n b c b c b b u 9 ",
"d M x c n n c c x p q s $.>.| ! W W +.4.2.+.W W ! | :.$.s p i x n c c c n c t 5 ",
"y b b b c c c n g . s 2.+.Q   Q o.o.;.2.2.*.o.o.Q   Q +.4.s . g c c n c c c p 5 ",
"r v x c c c c n l o s 4.1.}   J W W +.4.4.+.W W J   } <.4.s o d c n c n c c d 5 ",
"0 b b b n n c c z # a -.=.^   Z K T o.1.2.o.I K Z   ^ -.-.a # i c n c c c n c u ",
"r b n c c c c n v v 0           = ' o.o.o.o.[ =           e c c c n c c c n b t ",
"y M c c c n c c v b l q p <   B H T S 1 1 S T H V   < p e l c c c n c n c c c t ",
"u z c n c n n c v v v x v q o Z K K 4 o . 4 K K Z o r c n c c n b c c n n c c t ",
"r c c n c c b n v v v v v g 5 % X X > g l , . . % g c c c c c c c c c u c c x t ",
"t x n x v n n N x x x x c n x 7 , , p x n r , , 7 x b x c l 9 l c b c d c c c t ",
"i N x b x n x v x n z b n x b F n c n b x x x b x n x n c c y l n c c n c n m t ",
"y n n c x v n v n n v v b c b N n c c c n x n n c c x n c n n c b c c n c c x t ",
"i n n c n v x x v x x n c c c c c c n n x b x x n n x b c n c c c c b N b c b e ",
"i N x v n x v n c c x n n n c c n c c c c c c n c c c n c c x n b c c b c b c u ",
"d M x n x n x n n n c b c c c n c c n c n n c c c n c n c n x m c n b c b c b t ",
"d M c x v n x v c c n x x x c n c n c c c c n c c n x x c n c c c c c c c c c e ",
"d b 9 r t t t t 0 u t t t r 0 u 0 e u u 9 u 0 u u t t t u 0 u 9 u r u e u t u 5 "
};
