/* XPM */
static char *_d0c2e6d6b7b4462bde8b18aba905776CY2sU3WoJhKVL53P[] = {
/* columns rows colors chars-per-pixel */
"40 40 151 2 ",
"   c #19192F",
".  c #171B30",
"X  c #171B31",
"o  c #1C1F33",
"O  c #1A1E34",
"+  c #1C2036",
"@  c #1D2137",
"#  c #1D2138",
"$  c #1F233C",
"%  c #212436",
"&  c #272239",
"*  c #20253A",
"=  c #22263E",
"-  c #252838",
";  c #252839",
":  c #26293A",
">  c #24283E",
",  c #2B2E3E",
"<  c #2C2E3D",
"1  c #572338",
"2  c #252940",
"3  c #272A41",
"4  c #282B42",
"5  c #2A2E4A",
"6  c #2D3140",
"7  c #2D3146",
"8  c #363843",
"9  c #373943",
"0  c #393B45",
"q  c #373B53",
"w  c #373C53",
"e  c #383C54",
"r  c #3C4057",
"t  c #3B405A",
"y  c #3F4358",
"u  c #3F435A",
"i  c gray28",
"p  c #43454B",
"a  c #40424C",
"s  c #47484C",
"d  c #494949",
"f  c #4A4B4E",
"g  c #4C4C4C",
"h  c #4F4F4E",
"j  c #50504F",
"k  c #474952",
"l  c #4C4D50",
"z  c #4E4E51",
"x  c #43475A",
"c  c #45485B",
"v  c #474A5C",
"b  c #464A5D",
"n  c #474B5F",
"m  c #505050",
"M  c #535353",
"N  c #545453",
"B  c #555554",
"V  c #555555",
"C  c #575756",
"Z  c #585857",
"A  c #585858",
"S  c #595958",
"D  c #5B5B59",
"F  c #5B5B5A",
"G  c #5C5C5B",
"H  c #5F5F5E",
"J  c #60605F",
"K  c #61615F",
"L  c #434869",
"P  c #44496B",
"I  c #51587C",
"U  c #52597C",
"Y  c #794B61",
"T  c #5F637A",
"R  c #636361",
"E  c #696967",
"W  c #63667E",
"Q  c #9D384D",
"!  c #BA6374",
"~  c #575E82",
"^  c #5A6287",
"/  c #5D658B",
"(  c #6B6E82",
")  c #626788",
"_  c #797C8B",
"`  c #7A7C8B",
"'  c #676D95",
"]  c #656D96",
"[  c #686F99",
"{  c #6C7395",
"}  c #6C739C",
"|  c #6F769E",
" . c #737890",
".. c #757990",
"X. c #7B7F99",
"o. c #737AA1",
"O. c #767DA3",
"+. c #7B81A6",
"@. c #7D83A4",
"#. c #7E85A5",
"$. c #838594",
"%. c #838698",
"&. c #848799",
"*. c #8388A5",
"=. c #888CA6",
"-. c #8187AB",
";. c #858BAE",
":. c #888DAF",
">. c #9196AF",
",. c #9B9DA8",
"<. c #8D92B2",
"1. c #9397B7",
"2. c #9499B8",
"3. c #9A9EB8",
"4. c #9EA2BA",
"5. c #9CA0BD",
"6. c #9FA3BF",
"7. c #A3A7BC",
"8. c #ABAFBF",
"9. c #A0A4C0",
"0. c #A3A7C2",
"q. c #A3A8C1",
"w. c #A5A9C3",
"e. c #A6AAC3",
"r. c #A6ABC4",
"t. c #A8ACC2",
"y. c #AAAFC7",
"u. c #AFB2C3",
"i. c #ADB3C9",
"p. c #B9BAC5",
"a. c #B1B5CC",
"s. c #BABECF",
"d. c #BCBFD0",
"f. c #C0BCCE",
"g. c #BDC0D2",
"h. c #C6C7D0",
"j. c #C7C7D1",
"k. c #C7C7D2",
"l. c #C1C3D5",
"z. c #C1C4D5",
"x. c #C4C8D8",
"c. c #C9CBDA",
"v. c #CDCEDD",
"b. c #D4CDDA",
"n. c #D3D3DC",
"m. c #D0D1DE",
"M. c #D8D8E3",
"N. c #DBDCE5",
"B. c #DCDCE6",
"V. c #DEDEE6",
"C. c #DFE0E8",
/* pixels */
"d h m m m m m m j m m m m m j m m m m m h m m h m h f h h h h h g g g g g g h g ",
"h R H R K K K K K K K K K K K K K K K K J R R J R J H S R J J Z G S A D G S G m ",
"m K Z S S S S S S A S S S S Z S S S S S A S S S Z S S G S S Z Z A D A G A G A g ",
"m K S S G S S S D G S S S G S G S G S S G S D S S S D S D S D S G S D S D S D g ",
"h R S S S S S G D D S S G Z D Z S G S D S G A S S G S S S G S D A D S D A G A g ",
"m R S S S G S S Z D S G B B Z D D S D S S S H S S S G S D S G S G S G A D S D g ",
"m R S G G S G S D D D G j i B D S S S D S S S S S G S G S G S S A D A G S G G g ",
"h K S S S S S H B B Z Z N B D t 0 8 0 8 0 9 0 9 a S G S S S G S G S D S D A S g ",
"z K S S G S S R h d S S S S C , @ @ $ * $ $ $ $ 6 C Z S D D G A A D S D S G D g ",
"m K S S S S S K h d S S S f o ..>.>.8.h.h.k.k.k.,.O k A D S G S G S G A D A A g ",
"j K S G S G S G H S H S f a q =.t.a.c.C.C.C.C.C.p.v k z A G A D A D A G S D S g ",
"m R S S S G S S S S S S o q 0.0.i.N.C.C.C.C.V.V.C.C.b o S D A D G S D S G A G g ",
"m K S G S S G S S S S S @ e 0.0.7.i.y.i.B.B.V.V.C.C.b o G D A D A D S D A G A g ",
"m K S S S G S S S S S S o q 0.0.q.0.q.0.v.m.M.B.C.C.b o A D A G G S G A D S D g ",
"m K S S S S G G H S S S o q 0.0.0.q.q.0.0.0.r.M.C.C.b o D A S G A D A G S G G g ",
"m K S S G S S S S S S H o q 0.-.O.O.<.0.v.%.x 7.d.C.b o G D D A G S D S D A S g ",
"h R S S S S S G S S S G O q 5.+.| | ;.9.N._ O *.7.M.b O S Z S G A D S D S G D g ",
"m R S G G S G S G S G S X 5 } 1.9.9.;.o.N._ X O t w.e o G G D Z G S G A D A A g ",
"m R S S S G S S S G S S @ 5 [ 2.0.q.2.:.d.(   1 Y z.r o G G D Z A D A G S D S g ",
"h S G S S S G S S S S S % 7 ] <.6.9.7.0.0.W & Q ! M.v O Z Z Z G G S D S G A G g ",
"d S S S S G S G S G S S Z d O ~ } } :.0.0.6.4.b.f.| 5 + G G G Z A D S D G S A g ",
"m R S S G S S S G S G S G m 9 t P ] ) W d.l.s.$.&.7.q O Z Z Z G G S G A A D S g ",
"z R S S S S S S S G S G G Z Z - $ ] L > k.n.k.7 x n.v % Z Z Z G A D A G D G M d ",
"m R S S G S G S G S S S Z G Z : 2 1.@.^ 7 7 7 X . 7 f B G G Z G G S D S D A h d ",
"m R S G S G S G G Z G Z G Z S : 4 7.*.U e r v O . : h S S S G S G A D A D S f d ",
"j S S G S S S S Z G Z G Z G S : 7 n._ + 3.l.n.7 : E K C S S S D S D S G S S d d ",
"d S S S S S S G G Z G Z G Z G : 7 n.u.@.x  .w.4 : K D C S S D S G A A G G S m d ",
"j S S S G S G S Z G Z G Z G Z : 7 n.z.7.+ T 7.4 : Z S H G S S C S S D S A D G g ",
"m S S S S S S G G Z G Z Z G Z : 7 n.C.n.* ` n.7 > F S F S F S F A D S D S D S g ",
"h R S G G S G S Z G Z G G Z Z f p v v L U { #.= - S F S F S F S G S G A G S D g ",
"d S S S S S S S G Z G Z Z S B j j % + % ~ / ^ > < Z S F S S S F S D S A A D D g ",
"h S Z H S S S K Z G Z Z G C j Z Z B B j @ O @ z Z S F S F F S S D S S m S S S g ",
"h S S S S S K H S S Z S S H S S S D S S 0 0 0 A S S S H G C d V S S S M S G S f ",
"h H S F G S Z S S G C S S S H E D G D S S S S S S S S S S S h V F S S F S D S h ",
"m S S S G S S S S S G G S S S K G Z G Z S S S H S S S S G S G S F S F F D S S g ",
"h H A H S S G G G S S S S S S S Z G Z G H Z S S S S H S S D S G S S F H S S D g ",
"z R S S G S S S S G S S S S S S G Z G Z S S S S S H S D S D S S F S F S F S S g ",
"h K S S G S G S S S S S H S H S S S Z G S H S S S S D S G S S S S F S F S F S g ",
"h R Z Z S Z G Z S H S S S S S S Z Z Z Z S S S S S Z S Z S S S S F S F S F S F z ",
"z S f g j d j d f h h f h d h h j d j f h m h d h f j g j f h g g g g g g g g d "
};
