/* XPM */
static char *c3b343110ef04417c1776729e3638653rm1IMIZgiBlWS3Ld[] = {
/* columns rows colors chars-per-pixel */
"40 40 152 2 ",
"   c #14192F",
".  c #19192F",
"X  c #171B31",
"o  c #1C1F33",
"O  c #191D35",
"+  c #1A1E34",
"@  c #1C2036",
"#  c #1D2137",
"$  c #1E2339",
"%  c #1F233C",
"&  c #202436",
"*  c #272239",
"=  c #202439",
"-  c #20253A",
";  c #23273D",
":  c #252838",
">  c #26293A",
",  c #25293F",
"<  c #292B3A",
"1  c #572338",
"2  c #252940",
"3  c #282B42",
"4  c #2C2F44",
"5  c #292D49",
"6  c #2D3140",
"7  c #2D3146",
"8  c #2B3049",
"9  c #363843",
"0  c #373944",
"q  c #393B45",
"w  c #30344A",
"e  c #363A52",
"r  c #373B53",
"t  c #373C53",
"y  c #383C54",
"u  c #393D55",
"i  c #3C4057",
"p  c #3F435B",
"a  c gray28",
"s  c #404149",
"d  c #44464F",
"f  c #484848",
"g  c #494949",
"h  c #4B4B4B",
"j  c #4C4C4C",
"k  c #4F4F4E",
"l  c gray31",
"z  c #50504F",
"x  c #4C4D50",
"c  c #4E4E52",
"v  c #43465A",
"b  c #474A5C",
"n  c #464A5D",
"m  c #474B5F",
"M  c #505050",
"N  c #505152",
"B  c #545453",
"V  c #525354",
"C  c gray33",
"Z  c #555555",
"A  c #585857",
"S  c #585858",
"D  c #595958",
"F  c #5B5B59",
"G  c #5C5C5B",
"H  c #5F5F5E",
"J  c #60605E",
"K  c #60605F",
"L  c #61615F",
"P  c #434869",
"I  c #44496B",
"U  c #52597C",
"Y  c #794B61",
"T  c #636361",
"R  c #696967",
"E  c #60647D",
"W  c #63667E",
"Q  c #9D384D",
"!  c #BA6374",
"~  c #575E82",
"^  c #5A6287",
"/  c #5D658B",
"(  c #6B6E82",
")  c #626788",
"_  c #797C8B",
"`  c #7A7C8B",
"'  c #676D95",
"]  c #686F99",
"[  c #6C7395",
"{  c #6C739C",
"}  c #6F769E",
"|  c #6F779E",
" . c #737890",
".. c #757990",
"X. c #7B7F99",
"o. c #737AA1",
"O. c #767DA3",
"+. c #7B81A6",
"@. c #7D83A4",
"#. c #838594",
"$. c #848799",
"%. c #8388A5",
"&. c #888CA6",
"*. c #8187AB",
"=. c #858BAE",
"-. c #888DAF",
";. c #9196AF",
":. c #9B9DA8",
">. c #8A8FB0",
",. c #8D92B2",
"<. c #9397B7",
"1. c #9497B4",
"2. c #9499B8",
"3. c #9A9EB8",
"4. c #9EA2BA",
"5. c #9CA0BD",
"6. c #9FA3BD",
"7. c #9FA3BF",
"8. c #A1A6BD",
"9. c #A2A7BD",
"0. c #ABAFBF",
"q. c #A0A4C0",
"w. c #A3A7C2",
"e. c #A3A8C1",
"r. c #A5A9C3",
"t. c #A6ABC4",
"y. c #A8ACC2",
"u. c #AAAFC7",
"i. c #AFB2C3",
"p. c #ADB3C9",
"a. c #B9BAC5",
"s. c #B1B5CC",
"d. c #BCBFD0",
"f. c #C0BCCE",
"g. c #BDC1D3",
"h. c #C6C7D0",
"j. c #C7C7D2",
"k. c #C1C3D5",
"l. c #C1C4D5",
"z. c #C4C8D8",
"x. c #C9CBDA",
"c. c #CDCEDD",
"v. c #D4CDDA",
"b. c #D3D3DC",
"n. c #D0D1DE",
"m. c #D0D2DF",
"M. c #D8D8E3",
"N. c #D8D9E3",
"B. c #DBDCE5",
"V. c #DCDCE6",
"C. c #DEDEE6",
"Z. c #DFE0E8",
/* pixels */
"g k M M M M M M c M M k M M z M M c k z c z M M M k k k c k k k j j j j j j k g ",
"k T H T L L L L T T T L H T T T T L L L T T L L L L A H L L H A G D D D D G H c ",
"M L A D D D D D D D D D D D D D D D D D D D D D D D D G D D D D G D D D D D G j ",
"M L D D G D D D D D F A D D D D D F D D D D G D D D D D G D D D D D G G G D D j ",
"k T D D D D D G F D F A D D H D F D D D G A D F D G G D A D G D G D D D D D D j ",
"M T D D D G D D D D D H D V D D D F D D D G D D D D D D G D G D D D G D G G D j ",
"M T D G G D G D F F D D k a D D G A D D D D D A G D D G D G D D D G D G D D G j ",
"k L D D D D D H Z Z D H k Z D s q q q 9 q q q q s D D G D D D G D G D D D G D j ",
"c L D D G D D T k g D D G D Z 6 = $ = = = $ # # 7 Z S D D D D H D G D D D G D j ",
"z L D D D D D L k g D D A j + :.j.j.j.j.h.0.;.1...o x D D D A A D G D G D D G j ",
"z L D G D G D G H D H D g d n a.Z.Z.Z.Z.C.x.s.r.&.r d j G D G D D D G D G G D j ",
"M T D D D G D D D D D D # n Z.Z.Z.Z.Z.Z.Z.C.C.u.w.e.r o D D G D G D D D D D D j ",
"M L D G D D G D D D D D # n Z.Z.Z.V.C.V.p.u.u.w.w.w.t o D D G D D D G G G D D j ",
"M L D D D G D D D D D D # n Z.Z.Z.M.n.c.r.w.w.w.w.w.y o G D G D G D D D D D G j ",
"M L D D D D G G H D D D o n C.Z.N.t.e.e.w.w.w.w.w.w.t o D G D D G D D D D G D j ",
"M L D D G D D D D D D H o n Z.g.8.p #.c.r.,.O.O.*.w.t @ D D D G D D G G D D G j ",
"M T D D D G G D D G D F # b M.9.%.@ _ V.7.-.{ } O.7.r + A D G A D G D D D G D j ",
"z L D D D D D D D D F D o y 9.v @   _ N.o.-.7.7.<.{ 5 o G A A G D G D G D D D j ",
"M L D G G D D G G D D F o u l.Y 1   ( g.>.2.w.w.2.] 5 # G A G A D D G D G G D j ",
"k F D D G D D G G D D D @ b M.! Q * E 8.w.q.7.7.,.' 5 % A G A G G D D D D D D k ",
"g D D F G D D D D D D G @ 5 | d.v.4.8.w.w.-.{ { ~ o j Z G A G A D D G G D D D j ",
"M T D D D D G D D G D D @ t 8.$.#.g.k.d.W ) ' I y 9 M G A G A G G D D D G G D j ",
"M T D F D G D G G D G D % n b.v 6 h.b.h.2 P ' = > D G A G A G A G D D D D G V f ",
"M T D D D G D D D D G D V j 6 @ X 4 7 w ^ +.1., % G A G A G A G D D G G D D k f ",
"M K D D D D G D A G G G A z >   o v v t U %.y., > A G A A G G A D D G G D D j f ",
"k F G D G D G D G A A A G A F > 7 b.k.4.% ` b.7 > R L A G A G A G D D D D D g g ",
"j D D F D G D D G A A A A G A > 2 y. .t @.0.b.7 > L G G A A A G G D G D G G M f ",
"j D F D D D D G G A G G G A A > 2 8.E o 9.j.b.7 > A A A G G A Z D D D D D D D k ",
"k D D D G G D D G A A G A G A > 7 b.` % b.Z.b.8 : G A G A A A G D D G G G D D j ",
"k H G G D D D G G A G A G F G % 2 @.[ U n n m j c G A A F G A G G D D D D D G j ",
"j S D D G D D G A G A G A A Z < = ~ / ^ = # & B A G G G A G G A G D D D D G D j ",
"k D G D D D F G A G G A G B j S c @ o % z Z Z A F A A A G G A A D D S k S D G j ",
"h D G D D D G H D D D D F D D G S q 0 q S G D D G G D D G C f Z G G D M D G D j ",
"M H D D G D D G D G Z S D G H R G D D D D D G D D D D G D S k Z D D D G D D D j ",
"k G G D G D D D D D G G G D D H G D D D G G D D D D D G D G G D D D D H D G D j ",
"k G G D D D G G G D D D D D D D D D G G D D D G G G D D D G D D G D D H D D G j ",
"M K D D D F D D D G G D D D G D G D D D D G G D D D D G D D D G D D D G D D F j ",
"k T D D F D F D D D D D G D G D D D G D D D D D D G D G D G D G D G D F D G S j ",
"c K D S D D D D G D D G D D D D S F G D G D D G D G D D D G D D D D D S D G D j ",
"M S j k k j k h j j j j k j j k j j j j j j j j j j j j j j j j k j k j j j j j "
};
