/* XPM */
static char *_1c09aeffa0b459cb7f3593fd6abbfb05cnLbarnuyMXNlOd[] = {
/* columns rows colors chars-per-pixel */
"40 40 23 1 ",
"  c #464646",
". c #474748",
"X c #494949",
"o c #4B4B4B",
"O c #4D4D4E",
"+ c #4F4F4E",
"@ c #50504F",
"# c #505050",
"$ c #505051",
"% c #545453",
"& c gray33",
"* c #555555",
"= c gray34",
"- c #585857",
"; c gray35",
": c #5B5B59",
"> c #5C5C5A",
", c #5F5F5E",
"< c #60605F",
"1 c #636361",
"2 c #656563",
"3 c #686866",
"4 c #696967",
/* pixels */
"X+#+oo+ooO.O#X++++X+oO$$$OOO#OO#o$$o$ooo",
"+1<::&,::=*1,:,,O11O:,1,,3,13,,1;=,>,>=o",
"#<-:::#1:*>>:::=&O&X,:=::*:=>&=::::=>::o",
"+::,::=#:**,&,==>&.X,::::::::::::=:::=:o",
"o>:>::=:*O*1&+:>&#  ,:::;=*=:=::;;,:,;:o",
"$=:>=:=&::O>=::=XX++,::,>:=:::=:;oo>>>=o",
"$,>=:::::=*:::,.XX1#,::=::::>,::;=*::::o",
"$1>=,=:::==:::O.#+&X>:::=:=:>=:=>,=::=:o",
"O,>*#&>>:,O<=+.:=+. ,,=:=>:::;;>,1:::::o",
"O>**O=:&&&&:o.*::o..,;=:;;=:====>==*:*:o",
"O*=*&&#&#+#&**==O#*O;;=:;&>:>&&&=OO=OO*.",
"O1,,:,::::=2,,,1*3,O,,::,=>:>$1,,>,=>,,o",
"#1>>:::::&*,::=>=O:O;,>:::::>&1>;;,:,;>o",
"O,&:=:,:>&*,=3::,:&.,,>==:=:;O,>;>>:>;;o",
"#:*++&:,&.*::,::,:>#=;>,=;:=>O,&===:::=O",
"X&**#&###+*,:::=:=:&,>,4;;>>,*=o:::::==o",
"+,&#$>>=>=$;::=o+::#,>=;>:>,:=,>::=1O&:o",
"o>&O=O11>>O;:>>&*:>&>,>=::>==O,>=:=>==:+",
"+::::O;1>=&,:OO>:=#&>;::==;>,O,>=::=>::o",
"X&*==O$&**o&o..$#X.+******&=*O=********o",
"o:,:;,,>O>,>=&>,,,,,,=,,>,;,,,=:*=,*:**o",
"#1::,;;;=,:>;=,;::::,>>=>,;,:::,,;:::,;o",
"O,::==::;>:::::>:=:=:=:=::=;::::=>:=:=$.",
"*1:=:::>;==:>>=>::::::::=:>==:=:=:::::*o",
"O,&>::=*,>>::=$=;;=:;=>>,;>>:;;;;,>:=:;$",
"O1::::::;;:==*o&,;=:;=:=4;1;==,;;;>*O:=o",
"#,::=:=:=;:=>:=;>>=:;;::>::;::>>=;:**::o",
"#1=:>=::=:::::;;=::>>,=:::===:=:=:::>=:o",
"$,=:=>>:>>::;;==:==;;;;>:=:==>>=,>>:,=:o",
"$1=:;,:=,;=:,;;:::;;;=,>=:::;,;.;;:=>>=o",
"$1=:;==:;;::>>:::=;,:=>;&>::>,;>;;=:>::o",
"$,:>>==:;==:=:=:::>>::>1.=*=:;>===:::=:+",
"O,>>=>=,>>;,>=::>=>>::;,*::===;;,11>:=:O",
"$,:>4:>;::>=::=:==;,:=;;>:::::;;>11=:==O",
"$,=:,>::=:=*=;:::::::::=;;:==:,;:=>>::>O",
"$,::=:=>::=O===:::=::=:=,;;=:>>=:::=:=>o",
"O3=:::>,::::>=;,>&>1:=::>>:=::=>:=;,>>=o",
"O,=:=:=:=::,>=>&OXoO=:::=:>>:==:;=;;:=OX",
"O1:::::=,&O=O.o..X.Xo+&>:=;,Ooo=;>>=Oo.X",
"X#X+oo+oOoo.oo.oX.oXX..#oo$O..oo$oooo.XX"
};
