/* XPM */
static char *ad7ea78a03f24b40c0ed038b37d9d7aaCa9texXWlREdlqdC[] = {
/* columns rows colors chars-per-pixel */
"40 40 21 1 ",
"  c gray28",
". c #474748",
"X c #494949",
"o c #4B4B4B",
"O c #4F4F4E",
"+ c #50504F",
"@ c #505050",
"# c #535353",
"$ c #545453",
"% c #565655",
"& c gray34",
"* c #585857",
"= c #595958",
"- c #5B5B5B",
"; c #5C5C5B",
": c #5F5F5E",
"> c #60605F",
", c #61615F",
"< c #636361",
"1 c #666665",
"2 c #686866",
/* pixels */
"XO@@@@@@@@@OOX@OOOXXOO@@@@@@@@@OoO@OOoOX",
"O<:<,,,,:<<<-=::=:=%=<,,,,<<,,<:=::=:=-o",
"@,*==========:===;;%;=========*======:%o",
"@,==;====:========;@:;=;=========:====OX",
"O,=;===%==:=====;==%;;==;=;=;;====:==-=O",
"@<===;======:%X#;=;$:==;2=:====;-==&%==o",
"@<===;===:=:=%@===;$;;=;:=:;===;-=-%O-=+",
"O,=;===;======:=;=;$:===;===;;=========X",
"@:==:===:==========@:======;==;;;===;==O",
"@<=========:==:===:%:<===;=;=;=O==;=;=*O",
"@<===========:=:=::@=========;:O=;=;===X",
"@<=======:=========@::=<O**==;===;===;;O",
"@,==;==;===,=====:=%:==<X=%===;===:=-==o",
"@,==;==;=:========*%:====;==;=;==11*===O",
"@,========:%==-:===%:=;====;=;==:::==:=O",
"@,===;;====X%=====:@;:=*:==;===;=======X",
"+,====:==:===:==:=:@:==:%==:%=========-O",
"@<=*===============%:===%:==:==:==:==:@X",
"@<=::===:===:=:=;:,@,-:=:==:%@@==::=&OXX",
"O*@%#%%O@%%%@%@%$@%@%@%@%O%= XX@#%@%o.XX",
"X=:;:::::<:=%%==%*%O%:=%%:=%%+;;%%:%=%#o",
"@<=;%:%:==:==::*;=;$<=:==:=:;@,;=:===--O",
"+,$O%==%===<;==;==;$=:=======@,======-=o",
"O=*$=%::=&:1=====;;$%==:=;=*,@<===::===O",
"X=;;===;=,===XX@;;=%$;=;=;%=:@:===:%@==o",
"@,==;====;=;=%X%===$;;=======@*=::@.O<=O",
"@,==@=;==;=;==;;=;=%:==,:====@:===:#%==o",
"@,=%X=;==;===;====;@=;=*%==;;@:=#======@",
"@,==*=:*=;===;;=;:@X;;;@@:=;:@:%O=-:=@&O",
"@,=;==;*=;=;======X $@@@@@@@OO%@@@@@@Xoo",
"O=====:=@=;=;==;=%@X;,,;,=:==@,:>>><:-=o",
"O=;==$,=O;==;==;=@:@:;===;===@<========o",
"O,===:===:===:==%==#:=:======@<=::==&==o",
"X=========:========%-====::=%X:&<<==<--O",
"O=:%=====:=====O:==%%:=====:O <===:=-&=o",
"O==OX%:-=====#%-@=-#&=%=:===%O:===%@=#=O",
"o=======X%-=%:==%@Oo==X%==:==@%=-:@O&==o",
"O==-==-=%==%:=%:=oX.%=%%=:1<:@:==%=====O",
"@<%=-=====@%:==:%.XX%==:=-=-=@======-==o",
"XOooOoOoX+OXOOXOoXXXXOoOOoOoOXoOOOoOOoOX"
};
