/* XPM */
static char *ea46753ee8f341c3dfdf8727af1cebf0L2xV9UdkdQq4v31k[] = {
/* columns rows colors chars-per-pixel */
"40 40 52 1 ",
"  c #2B2B2A",
". c #2F2F2E",
"X c gray21",
"o c gray24",
"O c #444443",
"+ c #464645",
"@ c #474746",
"# c #494949",
"$ c #4C4C4B",
"% c #4D4D4C",
"& c #515150",
"* c #535353",
"= c #555554",
"- c #595958",
"; c #5B5B5A",
": c #5E5E5D",
"> c #606060",
", c #636362",
"< c #646463",
"1 c #646464",
"2 c #666665",
"3 c #696967",
"4 c #686868",
"5 c #6B6B6A",
"6 c gray42",
"7 c #6C6C6B",
"8 c #6E6E6D",
"9 c #6F6F6F",
"0 c #70706F",
"q c #727272",
"w c #747473",
"e c #747474",
"r c gray46",
"t c #777777",
"y c #787877",
"u c #7A7A7B",
"i c #7B7B7B",
"p c #7D7D7C",
"a c #7E7E7E",
"s c #7F7F7E",
"d c #7E7E7F",
"f c #808080",
"g c #838384",
"h c #848484",
"j c #878786",
"k c gray53",
"l c #898989",
"z c #8B8B8B",
"x c #8C8C8B",
"c c #8E8E8E",
"v c gray56",
"b c #909090",
/* pixels */
"2888-280::882-,88,-885*888=58q-<782-8882",
"8lucakcckfklupkcckalllucccyfllafcxlabxk8",
"5fuw<3552257522753272<<753:75,22773<rff5",
"5ar=$%##$$#$$%#%##%#%$$%#$$%#%%%$$$$=wf7",
"7cl@-3333333;33753753-3---35--5--;-#@lc8",
"7ll@5---;--;#------;#-;---------;-;#Oll3",
"3rr@7;---;-;#--;-;--#;-;-;:--::--;-#@yu3",
"8lpO5-;-;-;-;#;---;#--;-;-------;--#Oal7",
"8xf@3---oooo;#-;--oooo---;--oooo;-;#@fl8",
"8llO5--o....o#;--o....o-;-=o....o--#Oll7",
"5llO7--......-#;;.....X---;X.....;;#@ll5",
"5kk@;##;....;-X-#X....-;;###....-;-#Olk7",
"28w@5--#-;;-;-XX-;-;;-;-;###-;-;;-;#@w87",
"8ff@3-;-X--;-;X;;-;--;-;--;-;-;--;-#@ff8",
"8ckO3--;#-;-;-X--;-;;-;-;--;-;-;;--#Olx7",
"2q8@3---#;-;-;#;;-;--;-;-;;-;-;--;-#Oqr2",
"7lrO7-;-;#;-;#;--;-;-;-;-;;-;-;--;-#Ofx7",
"7cl@3;-;-X-;-X-;;-;-;-;-;--;-;-;;-;#@lc7",
"5qr@3-;-ooooX;;-;-oooo;--;--oooo-;;#Owq3",
"7pf@3--o....o--;-o....o;;-;o....o;-#@fa8",
"7faO3--......-;-;......--;-......-;#@af3",
"7pu@3--;....X;-;;-....;-;-;;....;--#@ua5",
"7hf@5-;-;-;--#;--;-;-;-;-;;-;-;--;-#Ofh7",
"5apO7;-;-;-;;-##;-;-;-;-;--;-;-;;-;#Opa5",
"7cpO3----;-;-;-;#X;--;-;-;-;-;-;;-;#@ac7",
"7cl@3-;-;-;-;-;-;-X;;-;-;-;-;-;--;-#@lc7",
"3yy@7;-;-;-;-;-;-;-X-;-;-;-;-;-;;-;#@wy5",
"7lkO3-;-;-;-;-;-;-;X-##;;-;-;-;--;-#Oll7",
"5klO3--;oooo-;-;--oooo#--;-;oooo;###@fk5",
"3pyO3--o....o-;-;o....o;;-;o....o--#@up5",
"7cpO3;;......;-;-......;-;-......;-#Oac8",
"8cl@3-;-....;-;-;;....--;-;-....---#Okc5",
"3uuO3---;-;-;-;-:--#-:-;-;-;%--;####@uu3",
"7lu@3--;-;-;-;-;---#--;-;--#-----;-#Oak5",
"7xlO7---;-;--;;-----#---;-%-----;-;#@kl5",
"3kl@################X###############@kl5",
"7ywO   . .. .. . . ..  .... ..X . . Oer7",
"7ll7*<22;=:<2=;22:=3::&<22*<2-==22,*8gk8",
"7uhbakcbluuccalcbkabhaucccrlcaukbckacku8",
"<rrr5qwr87urr7qwr08rrr7ree2err88trq6rrr,"
};
