/* XPM */
static char *de9e8bffc0ae4a17f1db7cf18244c7ae63vE4RoquBD3fLNw[] = {
/* columns rows colors chars-per-pixel */
"40 40 11 1 ",
"  c #2F2F2E",
". c #646463",
"X c #656564",
"o c #6C6C6B",
"O c #6E6E6D",
"+ c gray44",
"@ c gray46",
"# c #818180",
"$ c #838383",
"% c #888888",
"& c gray54",
/* pixels */
" &&......                               ",
" &&.###o.                               ",
" &&.&&&@.                               ",
" &&.&&&&.                               ",
" &&.&&&&.                               ",
" &&.OOOO.                               ",
" &&.OOOO.                               ",
" &&.&&&&.                               ",
" &&.&&&+X                               ",
" &&.&&&OX                               ",
" &&.&&&@X                               ",
" &&.&&&&.                               ",
" &&.&&&&.                               ",
" &&.&&&&.                               ",
" &&.####.                               ",
" &&.XXXX.                               ",
" &&.%%%%.                               ",
" &&.&&&&.                               ",
" &&.&&&&.                               ",
" &&.&&&&.                               ",
" &&.&&&&.                               ",
" &&.OOOO.                               ",
" &&.OOOO.                               ",
" &&.&&&&.                               ",
" &&.&&&O.                               ",
" &&.&&&O.                               ",
" &&.&&&@.                               ",
" &&.&&&&.                               ",
" &&X&&&&.                               ",
" &&X&&&&.                               ",
" &&X####.                               ",
" &&XXXXX.                               ",
" &&.%%%OX                               ",
" &&.&&&#X                               ",
" &&.&&&&.                               ",
" &&.&&&&.                               ",
" &&.&&&&.                               ",
" &&.@&&&.                               ",
" &&.@&&&.                               ",
" &&.&&&&.                               "
};
