/* XPM */
static char *f5d6bb52944b4087d629090547aed3aanPRPCKhCXE3OUGlM[] = {
/* columns rows colors chars-per-pixel */
"40 40 51 1 ",
"  c #2B2B2A",
". c #2C2C2B",
"X c #2F2F2E",
"o c #313130",
"O c #343433",
"+ c #363635",
"@ c #383837",
"# c #3B3B3A",
"$ c #3C3C3B",
"% c #4E4E4E",
"& c #565655",
"* c #585857",
"= c gray35",
"- c #5B5B5B",
"; c #5C5C5B",
": c #5F5F5E",
"> c #60605F",
", c #606060",
"< c #626262",
"1 c #646463",
"2 c #636364",
"3 c #676766",
"4 c #686867",
"5 c #686869",
"6 c #6B6B6A",
"7 c #6C6C6B",
"8 c #6B6B6C",
"9 c gray43",
"0 c gray44",
"q c #707071",
"w c #727271",
"e c gray45",
"r c #747473",
"t c #767677",
"y c #797978",
"u c #787879",
"i c #797979",
"p c #7B7B7B",
"a c #7C7C7B",
"s c #7E7E7D",
"d c gray50",
"f c #80807F",
"g c #838383",
"h c #848484",
"j c #888888",
"k c #898989",
"l c #8B8B8B",
"z c gray55",
"x c #8D8D8D",
"c c #8E8E8E",
"v c gray56",
/* pixels */
"XXXXXXXXXXXXXXXXXXXXXXXXXXXXXXXXXXXXXXXX",
"XXXXXXXXXXXXXXXXXXXXXXXXXXXXXXXXXXXXXXXX",
"XXXXXXXXXXXXXXXXXXXXXXXXXXXXXXXXXXXXXXXX",
"XXXXXXXXXXXXXXXXXXXXXXXXXXXXXXXXXXXXXXXX",
"XXXXXXXXXXXXXXXXXXXXXXXXXXXXXXXXXXXXXXXX",
"XXXXXXXXXXXXXXXXXXXXXXXXXXXXXXXXXXXXXXXX",
"XXXXXXXXXXXXXXXXXXXXXXXXXXXXXXXXXXXXXXXX",
"XXXXXXXXXXXXXXXXXXXXXXXXXXXXXXXXXXXXXXXX",
"XXXXXXXXXXXXXXXXXXXXXXXXXXXXXXXXXXXXXXXX",
"XXXXXXXXXXXXXXXXXXXXXXXXXXXXXXXXXXXXXXXX",
"XXXXXXXXXXXXXXXXXXXXXXXXXXXXXXXXXXXXXXXX",
". XX.X.XX.X..XX ..X.X..X.X..XX.X.XX..XXX",
"##o####o+$$#++##$#X####X####o+###+o$##o ",
"ss>sssg<tsssw6gsss:gssg<isag9qssgy<gsg8%",
"vgwgllhtjggwssvgglrvvlltglvlsgvzvgtvvvv9",
"ii3iiww5eitw99t90t6yytt<tttw6wiiiw4itti<",
"66,6669>3669329896:6669<6669<36866<6868=",
"<<=<<<<=<<:<::,:<::<:<<=:<<<::,<:<*::<,:",
"ss3ssst9sde9dgwwpdsi3fs3isst5ssi6i=&6sss",
"63:99932993299333399<99<9996<996<993<999",
"2-=<<<::<<::<<::<=<<=3<=><<<=<<<:<<:;<<<",
":iiiq6iiq6iti3eiit3ti<tiiw3tiw4iii60iii:",
":www93w363www<9ww9<wt<9ww9<ww9<9ww<700w:",
"=333<,<<<,363:2333:53=4332:36<:>13*1<:3=",
"88<66932989::666<96:699:6896=39=*=;3=;77",
"ii2iii96iii36iit3ii3tii3titt:tw>;=*w1:ii",
"66,693:<668:66<=:66<366<6686=3<<2*&61;11",
":<<<:,<<<<<<<<=<<<:<<:<<<:<<:::3<:*:<>>=",
"<sds3sgsw9gsgi6ssi6ss6tss5isst4ggi::dss:",
":896<692:23<:9,996:99:899<9696<6<88>898:",
"=:<<=<::::>==:=<<<:<<>:<<=<<:<=<::<=<<<=",
"si3ppiw6sis6tpii3i:&<si3isit3sis9wasi2pi",
"q9<qwq63qqw<9w9w<wq2<w9:99q9<wqw32qqw<8<",
"<3:<<<::3<3*<<3<==<3=<:=33<<=323:=:32=:<",
"6999999999999999999999999999999999999999",
"ljljjljlljjljjlglvzvllhllhljjljjjjjljljj",
"6686868668868866qsgd66866666668666868666",
"5333353556333336336635333353353353333553",
"3535536=%%353553355555556536553536555536",
"#+#@@##X. +###+###+@#+@#+##++#@##++#+##+"
};
