/* XPM */
static char *_f44209b58d544ae98123742f29dc90dCdwibkmzO0HKA2UR[] = {
/* columns rows colors chars-per-pixel */
"40 40 6 1 ",
"  c #2F2F2E",
". c #515150",
"X c #5A5A59",
"o c #646463",
"O c gray43",
"+ c gray54",
/* pixels */
"                                        ",
"oooooooooooooooooooooooooooooooooooooooo",
"++++OO+o+++++++o+++++++o+++++++o+++++++o",
"+++++++o+++++++o++++OO+o+++++++o++++OO+o",
"+++++++o+++++++o++++OO+o++++++Oo++++OO+o",
"OOOOOOOXOOOOOOOXOOOOOOOXOOOOOOOXOOOOOOOX",
"OOOOOOOXOOOOOOOXOOOOOOOXOOOOOOOXOOOOOOOX",
"....... ....... ....... ....... ....... ",
"                                        ",
"                                        ",
"                                        ",
"                                        ",
"                                        ",
"                                        ",
"                                        ",
"                                        ",
"                                        ",
"                                        ",
"                                        ",
"                                        ",
"                                        ",
"                                        ",
"                                        ",
"                                        ",
"                                        ",
"                                        ",
"                                        ",
"                                        ",
"                                        ",
"                                        ",
"                                        ",
"                                        ",
"                                        ",
"                                        ",
"                                        ",
"                                        ",
"                                        ",
"                                        ",
"                                        ",
"                                        "
};
