/* XPM */
static char *f84d371c8ccd4faafecfaec0aff7aba3943kpFGCNQqWdggU[] = {
/* columns rows colors chars-per-pixel */
"40 40 12 1 ",
"  c #2F2F2E",
". c #646463",
"X c #656564",
"o c #666665",
"O c #6D6D6D",
"+ c #6E6E6D",
"@ c gray44",
"# c gray46",
"$ c #818180",
"% c #838383",
"& c #888888",
"* c gray54",
/* pixels */
"                               ......&* ",
"                               .+$$$.** ",
"                               .#***.** ",
"                               .****.** ",
"                               .****.** ",
"                               .++++.** ",
"                               .OO+O.** ",
"                               .****.** ",
"                               .@***X** ",
"                               .+***.** ",
"                               .#***.** ",
"                               .****.** ",
"                               .****.** ",
"                               .****.** ",
"                               .%$$$.** ",
"                               .oXX..** ",
"                               .*&&&.** ",
"                               .****.** ",
"                               .****.** ",
"                               .****.** ",
"                               .****.** ",
"                               .+O++.** ",
"                               .OOOO.** ",
"                               .****.** ",
"                               .O***.** ",
"                               .O***.** ",
"                               .#***.** ",
"                               .****.** ",
"                               .****.** ",
"                               .****.** ",
"                               .%%$$.** ",
"                               .XX...** ",
"                               .O**&.** ",
"                               .%***.** ",
"                               .****.** ",
"                               .****.** ",
"                               .****.** ",
"                               .***#.** ",
"                               .***#.** ",
"                               .****.** "
};
