/* XPM */
static char *_7a960d440124d38af35f497daa66d61Zd9eYRC08hNmyIJF[] = {
/* columns rows colors chars-per-pixel */
"40 40 6 1 ",
"  c #2F2F2E",
". c #515150",
"X c #5A5A59",
"o c #646463",
"O c gray43",
"+ c gray54",
/* pixels */
"                               o++++o++ ",
"                               o+OO+oooo",
"                               o+OO+o+++",
"                               o++++o+++",
"                               o++++o+++",
"                               XOOOOXOOO",
"                               XOOOOXOOO",
"                               ..... ...",
"                                        ",
"                                        ",
"                                        ",
"                                        ",
"                                        ",
"                                        ",
"                                        ",
"                                        ",
"                                        ",
"                                        ",
"                                        ",
"                                        ",
"                                        ",
"                                        ",
"                                        ",
"                                        ",
"                                        ",
"                                        ",
"                                        ",
"                                        ",
"                                        ",
"                                        ",
"                                        ",
"                                        ",
"                                        ",
"                                        ",
"                                        ",
"                                        ",
"                                        ",
"                                        ",
"                                        ",
"                                        "
};
