/* XPM */
static char *_7b6bd0551884391a821f46f16a05f53xSzpvFuyA7QGS9vQ[] = {
/* columns rows colors chars-per-pixel */
"40 40 45 1 ",
"  c #2D2D2C",
". c #2F2F2E",
"X c #323231",
"o c #353534",
"O c #373736",
"+ c #383837",
"@ c #3A3A39",
"# c #3C3C3B",
"$ c #555554",
"% c #585857",
"& c #5B5B5A",
"* c #5B5B5B",
"= c gray36",
"- c #5F5F5F",
"; c #60605F",
": c #626261",
"> c #646463",
", c #656564",
"< c #646465",
"1 c #686867",
"2 c #676768",
"3 c #696968",
"4 c #6C6C6B",
"5 c #6B6B6C",
"6 c #6D6D6D",
"7 c #6F6F6F",
"8 c #727271",
"9 c #737372",
"0 c gray45",
"q c #747474",
"w c #767676",
"e c #777777",
"r c gray47",
"t c #7B7B7B",
"y c #7C7C7B",
"u c #7E7E7E",
"i c gray50",
"p c #80807F",
"a c #808080",
"s c #848484",
"d c gray53",
"f c #888888",
"g c #8B8B8B",
"h c #8D8D8D",
"j c gray56",
/* pixels */
"........................................",
"........................................",
"........................................",
"........................................",
"........................................",
"........................................",
"........................................",
"........................................",
"........................................",
"........................................",
"........................................",
"  ... .. .    ..    . .. .    .    ..   ",
"@@@@X@##@X+@#@+O@@#@X##@@.@#@#OO#@#+X##@",
"uuuu:uuuu:epua66uuqr:auua:uuuu18aape<aiu",
"hhhfesfhseshhhauhhhfehhhh8sfhjuujhhaehsh",
"eer8:rrrr3errr86rrrq3rree:rrrr68rrre1r6e",
"3563=5354:1416,;6363:3336:3555:<4552:563",
":-::=:::==:,:;:,::::;::::=-:::=:::=:=:::",
"e5au3iuie6aa87aa88auur<pi2tuae3ape1pae<a",
"1,66:6673<661<313=<664,67:5666:661:663<6",
"==<,&:::==<:=======:<-=,:&:;:==:,==::;&:",
"rr,rrr66ur66ury<qree<rr<eyre<urq<rru3qrr",
"88:88q628813888:8886<e7:6661:qq6<e86=6q8",
"3<&11<:-23::1<3:<132=31=<<:$=,1,=<<=:<<3",
"5564;6461<6664&&&$&%:6666:3663:666<,646&",
"rrre<rrr,6rrrr&&&&&&<rrrr<rrre<rrr6qrrr=",
"<366;34:<:6461=&&&%%=6434=6331=663,<66:&",
"::=<:,=::::;:,=&&$&==,<=<::;<;;,=<:::==:",
"uu,uuu<ppa87pp&%&&$&<aa1upp,pppr2auuu3au",
"66:466,3,63<64==&&&$=66,366:1661:6666=64",
"::=:;;====;=::$=&&&&&::&:::=:::;=::::=;;",
"q1ur,uru84yuu<eurr3ryr<uy<rruq,uyu18uru=",
"4,86:86q11888:1886:876,88:6886:876:6878=",
":=3<=<<<:=,,,==<,,&<=<=,<&:<,<&<,;==<<<=",
"6766866667676866666668676866666766667668",
"ffffffffffffffffhfffffffffffhffffhffffff",
"6653656336556661536636636663365366633653",
"<3311<3<<1<33<23232<<<221<1<<3221<1<<322",
"132<322333<13232<32333323322333<3322333<",
"@@@@@@@O@#@+@+@@@O@@@#+@@@@+@@@@@@@+@@@@"
};
