/* XPM */
static char *cf27f3e0a378441ee394b1259e83f834RKbmqiUxEpfTnGXh[] = {
/* columns rows colors chars-per-pixel */
"40 40 163 2 ",
"   c #884400",
".  c #8C4B00",
"X  c #904D00",
"o  c #8A550D",
"O  c #945706",
"+  c #9C5B00",
"@  c #AD700D",
"#  c #B3740D",
"$  c #A36B1D",
"%  c #B67810",
"&  c #A9762C",
"*  c #AC7B34",
"=  c #D27D0F",
"-  c #D47E10",
";  c #B78B1A",
":  c #BA8D1D",
">  c #BF8C29",
",  c #BD9429",
"<  c #B78535",
"1  c #DC850B",
"2  c #CC8A15",
"3  c #DC8716",
"4  c #C4961D",
"5  c #D99B18",
"6  c #E08808",
"7  c #E2980E",
"8  c #ED990F",
"9  c #E28E16",
"0  c #E79217",
"q  c #E99611",
"w  c #E49914",
"e  c #EB9C14",
"r  c #D5A01C",
"t  c #ECA20E",
"y  c #F8A106",
"u  c #F6A60B",
"i  c #FEAE0E",
"p  c #EAA114",
"a  c #E6B31A",
"s  c #E8B81B",
"d  c #FEB116",
"f  c #FFB31B",
"g  c #C28A2B",
"h  c #DA8C25",
"j  c #D68C2B",
"k  c #D58E32",
"l  c #D99033",
"z  c #E6982B",
"x  c #DEBD2B",
"c  c #D2B231",
"v  c #E7A522",
"b  c #E4BC27",
"n  c #FBB222",
"m  c #FFBB23",
"M  c #FCBD2A",
"N  c #EAA438",
"B  c #FFC526",
"V  c #FFC42B",
"C  c #F5D62E",
"Z  c #FFD22A",
"A  c #FFDE2F",
"S  c #FFCC32",
"D  c #FFD634",
"F  c #FFE433",
"G  c #FFE739",
"H  c #FFF63E",
"J  c #A48868",
"K  c #BB9D72",
"L  c #BDA27C",
"P  c #CE954E",
"I  c #DC9D49",
"U  c #D09955",
"Y  c #CEB34C",
"T  c #D2B847",
"R  c #ECB646",
"E  c #E2A557",
"W  c #E8BE61",
"Q  c #FFD545",
"!  c #FFD94D",
"~  c #F4CD59",
"^  c #FFDB53",
"/  c #F8D65E",
"(  c #FFDE5B",
")  c #FFE045",
"_  c #FFEB4A",
"`  c #FFE85D",
"'  c #FFFE53",
"]  c #E9C063",
"[  c #E7D66E",
"{  c #FFF763",
"}  c #FFFF71",
"|  c #FFF17C",
" . c #A89688",
".. c #BEA88E",
"X. c #BCAEA5",
"o. c #B5B6B4",
"O. c #BCBCBC",
"+. c #D0B48D",
"@. c #CBB297",
"#. c #D7BB92",
"$. c #D3B99B",
"%. c #E1BB84",
"&. c #E4BE89",
"*. c #D3BFA7",
"=. c #C7BEB6",
"-. c #E5D784",
";. c #E7C797",
":. c #E2C69C",
">. c #FFF383",
",. c #FFFF83",
"<. c #F8F196",
"1. c #FFFF92",
"2. c #C0C0BE",
"3. c #D9CBB8",
"4. c #E8CDA5",
"5. c #E7D7BD",
"6. c #FFF8A5",
"7. c #FFFEAD",
"8. c #B5B6C4",
"9. c #BFC1C4",
"0. c #C4C5C4",
"q. c #CEC7C0",
"w. c #C8C9C7",
"e. c #C5C5C9",
"r. c #CCCCCC",
"t. c #CFD0CE",
"y. c #D1D1CE",
"u. c #DBD4CB",
"i. c #CDCED1",
"p. c #D0CFD1",
"a. c #D4D4D4",
"s. c #D9D6D3",
"d. c #D7D8D5",
"f. c #D9D9D7",
"g. c #D4D5D9",
"h. c #D6D8DC",
"j. c #DCDCDC",
"k. c #E4DACC",
"l. c #E5DBCE",
"z. c #E1DDD6",
"x. c #DFE0DE",
"c. c #FFFFCB",
"v. c #E7E0D4",
"b. c #E2E1DE",
"n. c #FFFED3",
"m. c #FFFFDC",
"M. c #DDDEE1",
"N. c #E0DFE2",
"B. c #DFE0E2",
"V. c #E2E2E2",
"C. c gray89",
"Z. c #E4E4E4",
"A. c #E4E5E4",
"S. c gray90",
"D. c #E6E6E6",
"F. c #E7E7E7",
"G. c #E5E6EB",
"H. c #E8E7E8",
"J. c gray91",
"K. c #E9E9E9",
"L. c #EAEAEA",
"P. c gray92",
"I. c #E7E8F0",
/* pixels */
"0.r.r.a.g.a.a.a.a.j.j.j.j.j.j.j.V.j.V.S.V.j.j.j.j.a.a.j.a.a.a.a.a.j.r.t.t.r.t.w.",
"r.r.a.a.f.g.j.f.j.j.a.M.V.j.V.A.S.S.V.V.V.V.V.j.j.j.j.x.j.j.j.g.a.a.a.a.a.s.t.t.",
"w.a.a.j.f.j.j.j.j.j.j.V.S.S.S.S.G.S.S.A.V.A.V.V.j.j.B.b.x.j.j.j.j.f.f.j.a.s.a.s.",
"a.g.j.f.j.N.N.V.B.V.S.S.J.J.S.S.J.J.H.J.S.S.V.J.Z.b.Z.V.V.j.j.j.j.j.j.a.a.a.f.a.",
"j.j.j.a.j.j.z.G.S.S.S.S.J.J.P.J.J.J.P.J.S.S.J.J.S.S.V.S.S.A.b.V.x.j.j.j.h.f.f.d.",
"j.j.j.j.M.V.V.G.J.S.S.J.P.P.J.P.J.J.J.J.J.J.J.J.J.J.S.V.V.S.V.V.j.j.j.M.j.f.a.f.",
"a.f.j.j.j.V.S.S.S.J.J.P.P.P.P.P.J.J.J.S.F.V.G.S.J.P.S.S.S.S.V.M.j.j.j.j.f.f.f.f.",
"g.j.j.j.j.V.S.S.F.J.J.J.J.P.P.J.J.S.J.J.A.z.S.S.S.Z.V.V.S.S.V.V.B.M.f.j.h.f.d.f.",
"j.j.j.j.j.V.G.S.J.S.S.J.J.P.J.S.S.S.J.S.S.S.V.V.V.V.V.V.S.V.b.V.B.j.j.f.j.j.f.a.",
"j.N.V.N.V.V.Z.J.S.S.S.F.J.J.J.S.S.S.S.S.S.S.S.B.j.x.V.S.S.b.V.j.B.j.a.x.x.j.d.f.",
"j.M.V.S.S.S.S.S.S.S.S.S.S.J.S.J.S.S.z.k.k.z.S.M.j.j.j.S.S.j.V.j.x.j.f.x.j.f.j.f.",
"b.V.S.S.Z.V.S.S.C.Z.C.b.V.J.S.v.:.] ~ / / ~ W #.s.b.V.j.V.V.S.x.x.j.x.f.a.a.a.f.",
"S.S.J.S.S.V.V.V.B.z.j.j.C.S.3.R ` 6.c.m.m.c.6.( R *.f.a.j.V.j.j.x.a.f.f.d.a.d.s.",
"j.S.S.S.S.V.V.V.G.V.b.V.A.$.M | c.n.n.n.n.n.m.c.>.M +.g.j.j.V.j.x.f.x.x.a.d.a.x.",
"V.V.V.S.S.V.b.S.V.S.S.Z.3.f | 7.<.-.6.7.7.6.-.<.7.>.n *.j.j.j.j.x.f.x.f.a.y.a.x.",
"j.V.V.G.S.V.V.S.Z.S.Z.f.N ! >.,.Y o [ 1.1.[ o Y ,.>.^ N s.j.j.j.f.f.d.f.d.d.f.f.",
"b.Z.H.F.F.S.C.S.H.S.Z.$.f ` ` { ,   T } } T   , { ` ` n #.a.a.j.f.x.j.s.s.f.d.s.",
"B.Z.F.F.S.S.F.J.J.J.H.E M Q ) _ , X c ' ' c . : _ ) Q V I p.a.N.x.x.j.y.a.y.a.a.",
"V.C.F.J.J.J.P.L.F.J.z.z m S D G 4 . x H _ x . 4 G D S m z y.j.j.x.f.j.s.t.t.t.a.",
"Z.J.L.P.P.J.J.J.J.L.k.9 f V Z A b ; C F F C ; b A Z V f 0 3.j.j.x.j.x.y.t.t.y.t.",
"S.S.J.P.P.S.F.S.H.Z.u.9 i M B Z F F F F F F G F Z B V d 9 3.j.j.j.j.x.x.j.f.d.f.",
"S.S.S.J.L.J.P.F.S.H.b.h i v < g 5 a a s s s 5 5 g * v i h u.j.V.j.j.j.j.x.x.f.f.",
"S.J.J.F.J.L.L.J.S.S.J.U y w  .8.X...K K K ....X.o.J t y P j.C.V.b.j.x.f.d.f.f.f.",
"S.S.J.J.J.F.F.J.F.S.S.$.6 u <  .q.M.I.I.I.M.a.=. .> i 6 @.V.V.j.x.x.x.b.x.f.f.b.",
"C.S.S.J.J.F.F.F.J.J.F.v.k e 7 + O $ & * * $ $ O + p 8 j s.j.V.V.B.B.j.x.x.j.j.j.",
"V.C.F.J.F.F.F.P.P.P.J.F.4.= e w @ + + + + + + # p e = 4.j.N.S.j.j.x.j.f.d.x.j.j.",
"V.S.J.F.J.S.F.J.S.P.P.F.P.;.= q w 2 % @ @ % 2 p q - &.j.V.V.V.j.f.j.j.s.d.a.r.y.",
"M.G.S.F.F.F.F.F.S.P.J.J.F.F.4.l 1 0 e w 0 e q 1 l ;.V.V.V.V.j.j.a.f.j.j.s.w.w.y.",
"N.V.S.S.F.F.P.F.S.P.J.J.J.H.J.k.&.I h 3 3 h I %.k.S.S.V.S.V.V.M.a.j.x.j.f.t.r.t.",
"j.M.S.Z.F.J.P.F.F.P.J.P.J.J.S.S.S.G.k.5.5.k.S.S.V.S.V.V.Z.S.V.V.j.f.j.f.f.x.a.y.",
"h.N.V.V.S.F.C.C.J.J.F.S.P.J.S.A.S.S.J.S.V.S.V.V.M.V.j.j.V.S.j.z.f.j.f.x.b.x.j.s.",
"N.N.V.B.C.Z.F.F.F.J.S.G.J.S.A.S.C.b.S.S.S.V.S.S.V.V.V.j.V.M.M.M.f.x.j.x.j.f.s.y.",
"M.M.j.M.C.S.V.S.S.S.S.H.S.S.z.G.V.j.S.G.V.V.S.V.Z.S.V.V.N.z.M.j.f.a.j.f.d.a.a.t.",
"M.M.h.M.C.V.V.V.Z.S.M.M.N.V.j.V.V.N.z.V.V.M.Z.Z.Z.V.j.s.h.j.j.g.a.a.s.y.y.s.a.a.",
"h.h.g.h.N.N.N.M.j.f.a.f.j.j.f.N.N.j.j.N.j.V.V.j.N.j.j.j.f.j.j.f.a.a.y.a.y.t.y.s.",
"g.g.p.g.h.j.j.f.f.a.f.p.a.r.i.j.j.j.N.j.j.j.j.j.j.a.j.g.f.a.g.a.s.y.r.r.t.t.t.y.",
"r.i.i.i.g.g.j.a.a.a.a.r.w.i.a.g.g.f.j.M.j.j.a.s.a.a.a.a.f.a.a.r.w.w.0.w.w.r.t.w.",
"i.e.r.i.a.i.p.p.a.r.r.w.r.a.a.s.a.f.f.j.f.f.g.a.p.i.a.p.a.p.a.w.w.0.0.0.0.w.w.w.",
"8.r.e.e.i.e.e.w.w.i.a.a.i.i.a.a.f.a.a.a.a.a.r.r.w.r.r.y.p.p.r.w.w.w.w.0.O.0.0.2.",
"8.0.e.0.i.e.0.9.0.i.p.a.a.a.a.r.f.g.a.i.i.a.r.0.w.a.i.r.r.i.r.0.0.w.w.0.0.2.O.o."
};
