/* XPM */
static char *_8ac3c82362f4088cea54cb21bc6f5d6yhLh3S2s0RaRVJGd[] = {
/* columns rows colors chars-per-pixel */
"40 40 232 2 ",
"   c #170404",
".  c #1D191A",
"X  c #230605",
"o  c #360A0A",
"O  c #3C0D0D",
"+  c #341A1B",
"@  c #2A2525",
"#  c #2E292A",
"$  c #3E2A26",
"%  c #393636",
"&  c #420E0E",
"*  c #491717",
"=  c #551414",
"-  c #5B1515",
";  c #5A1A19",
":  c #611717",
">  c #651C1B",
",  c #6D1B1B",
"<  c #721C1C",
"1  c #7A1E1E",
"2  c #71211C",
"3  c #4A2525",
"4  c #5B2222",
"5  c #443A39",
"6  c #5E3F3A",
"7  c #662726",
"8  c #732222",
"9  c #7D2121",
"0  c #792B2A",
"q  c #7A3937",
"w  c #6B443C",
"e  c #4D3F40",
"r  c #474243",
"t  c #4B4545",
"y  c #554847",
"u  c #544F50",
"i  c #5A5556",
"p  c #5C5859",
"a  c #674A4A",
"s  c #7A4747",
"d  c #7B544C",
"f  c #665958",
"g  c #755855",
"h  c #625F60",
"j  c #6B6465",
"k  c #6E6B6C",
"l  c #766969",
"z  c #77706F",
"x  c #767374",
"c  c #7B7575",
"v  c #7D797A",
"b  c #801F1F",
"n  c #832223",
"m  c #8C2625",
"M  c #862A2A",
"N  c #882A2A",
"B  c #942827",
"V  c #952B2A",
"C  c #9B2B2B",
"Z  c #99302D",
"A  c #843737",
"S  c #8B3333",
"D  c #9C3332",
"F  c #973938",
"G  c #A22C2C",
"H  c #A82E2E",
"J  c #A8302F",
"K  c #A43232",
"L  c #AC3332",
"P  c #A93C3C",
"I  c #B43434",
"U  c #BC3534",
"Y  c #BD3837",
"T  c #B23939",
"R  c #BB3C3C",
"E  c #C03736",
"W  c #C43B3A",
"Q  c #CA3C3C",
"!  c #D13F3F",
"~  c #9D433A",
"^  c #9C533F",
"/  c #B64A3F",
"(  c #863F40",
")  c #844546",
"_  c #8B4847",
"`  c #934745",
"'  c #85544E",
"]  c #9D574F",
"[  c #865859",
"{  c #965858",
"}  c #A24645",
"|  c #AB4A4B",
" . c #B54444",
".. c #AB544B",
"X. c #B7584D",
"o. c #A45C5C",
"O. c #AB5A58",
"+. c #BB5656",
"@. c #B35A5A",
"#. c #9E794B",
"$. c #87675D",
"%. c #B26C5D",
"&. c #886868",
"*. c #966666",
"=. c #9C6C6C",
"-. c #87726D",
";. c #8F6F70",
":. c #897574",
">. c #817C7D",
",. c #947373",
"<. c #9E7D7E",
"1. c #A96969",
"2. c #B56767",
"3. c #BC6C6C",
"4. c #A7756F",
"5. c #B47F6F",
"6. c #AD7474",
"7. c #A67B79",
"8. c #B87A78",
"9. c #C54545",
"0. c #C64A4A",
"q. c #D44343",
"w. c #D94545",
"e. c #DC4948",
"r. c #C55C4A",
"t. c #C85554",
"y. c #CF5858",
"u. c #D85959",
"i. c #E74B4B",
"p. c #EC554C",
"a. c #CF7857",
"s. c #E36846",
"d. c #ED784F",
"f. c #E47E5B",
"g. c #C96969",
"h. c #D76968",
"j. c #CE776C",
"k. c #CD7374",
"l. c #E87777",
"z. c #998769",
"x. c #93807F",
"c. c #A3867C",
"v. c #B68A77",
"b. c #CF835E",
"n. c #D08A72",
"m. c #DFA175",
"M. c #DACC73",
"N. c #E1D16A",
"B. c #867F80",
"V. c #868182",
"C. c #8E8887",
"Z. c #8C8889",
"A. c #928484",
"S. c #998888",
"D. c #98908F",
"F. c #958F90",
"G. c #939192",
"H. c #999393",
"J. c #9C9A9A",
"K. c #A68786",
"L. c #BA8782",
"P. c #AF938B",
"I. c #A79897",
"U. c #A49B9B",
"Y. c #BD9696",
"T. c #BC9B95",
"R. c #A9A09C",
"E. c #A7A5A6",
"W. c #ACA6A6",
"Q. c #B0AAA9",
"!. c #B5A9A9",
"~. c #B5B3B3",
"^. c #BAB6B7",
"/. c #BDBBBC",
"(. c #C78887",
"). c #D58888",
"_. c #C69292",
"`. c #CC9593",
"'. c #C99C9B",
"]. c #D79896",
"[. c #EC8888",
"{. c #E59E9D",
"}. c #E1A492",
"|. c #F3B590",
" X c #C6A8A7",
".X c #D7ACA9",
"XX c #D4B2A4",
"oX c #C6B8B8",
"OX c #D6B5B5",
"+X c #DDBABA",
"@X c #F0A9AA",
"#X c #E8BAAD",
"$X c #E4B8B6",
"%X c #C0C0BE",
"&X c #DCC0BF",
"*X c #EBC0B0",
"=X c #BFC1C4",
"-X c #C4C4C4",
";X c #C8C9C7",
":X c #C5C5C9",
">X c #CEC7C8",
",X c #CCCCCC",
"<X c #D8C9C9",
"1X c #CFD0CE",
"2X c #D1D1CF",
"3X c #CDCED1",
"4X c #D0CFD1",
"5X c #CFD0D3",
"6X c #D4D4D4",
"7X c #DAD5D5",
"8X c #D7D8D5",
"9X c #D8D9D7",
"0X c #D5D6DA",
"qX c #DCDCDB",
"wX c #E5CAC9",
"eX c #EACAC9",
"rX c #EFCACA",
"tX c #FBD0C4",
"yX c #E2D4D3",
"uX c #EAD9D5",
"iX c #E3DBDA",
"pX c #DFE0DD",
"aX c #E1E1DF",
"sX c #DDDEE1",
"dX c #E0DFE2",
"fX c #DFE0E2",
"gX c #E4E4E4",
"hX c #E8E6E7",
"jX c #E9E9E9",
"kX c #F4E5E6",
"lX c #FCEAE9",
"zX c #FAF4F3",
/* pixels */
"-X,X,X6X0X6X6X7X0XqX0XqXqXqXqXpXpXpXfXhXaXqXqXqXqX6X6XqX6X6X6X6X6XqX,X2X1X,X;X;X",
",X,X6X6X9X0XqX0X9XqXqXpXgXpXgXfXgXgXgXfXaXgXgXqXqXqXqXgXqXqXqX6X6X6X6X6X6X6X2X2X",
";X6X6X9XqXqXqXqXpXqXpXfXgXhXhXfXjXhXgXgXaXgXgXgXqXqXqXqXfXqXqXqXqXqX9X9X8X8X6X9X",
"6X0XqXqXqXgXqXgXaXfXfXhXhXhXhXhXjXjXhXgX XY.gXgXgXaXhXgXgXpXqXqXqXqXqX6X2X6XqX2X",
"qXqXqX8XqXqXqXhXgXgXgXhXhXhX$XhXhXaX(.P 9.9.*.g.@XhXgXgXgXgXaXaXqXqXqXqXqX9X9X8X",
"qXqXqXqXqXgXgXhXhXhXhXjXjX(.! W (._.O C Q 9.8.g.k.kXhXgXgXgXfXgXqXqXqXgXqXqX6X9X",
"5XqXqXqXqXgXgXgXgXjXjXjX.X9 ! U F S O E J wX*.1 kXkXgXgXiX<XiXqXqXqX0XqX6XqX9X9X",
"6XqXqXqXqXfXgXhXgXhXjXjX(.+X6.B ~ kXuX& *.oXoX< P.kX_.OXO.G 9.OXgXqXqXqXqX8X8X9X",
"qXqXqXqXqXgXgXhXhXyX.XaX`.$Xn.= 4 <Xa G K k.k.s a  X* P C - L .XaXqX9XqXqXqX9X6X",
"qXgXfXgXgXgXgXhX'.F @.@.8.tXb.3 $ v.N.*.*.` y.f.b.} o M V = 9 < ).qX7XqXpXqX8X9X",
"qXpXgXgXhXhXgXwXE L C S (.tXK.t t M.M.;.,.M W.^.f...I { (.7., i.w.k.qXpXqXqXqX9X",
"fXfXgXhXgXdXdXwXI b - O o ' U.Z.t ~.E.E.a M &.^.^.3.I | 2X>X= I q.u.iX9X6X6X6X6X",
"hXgXjXhXgXfX<X| ` |.o o = >  Xc.0 =.J.:.# r r !./.Y.oX5.7X7Xd ~ 8  .l.qX9X2X8X9X",
"qXgXgXgXgXgX| V V *X#X=.s a.T.I.K.W z %.b.f T o.U R.L.b.n.^.S.d.s.+.u.iX8X8X8XaX",
"gXgXfXhXgXOX1 8   4 7 m Q.W.D.C.W W f a.m.m.U Y E U.U.<.W.W.B.K.zXlXw.lX7X2X8X9X",
"qXpXgXhX XU n.kX3 * d n S.<.&.p w Q e.=.R.g g g K.3.I.f U E [.: F V I zXuX8X9X7X",
"fXgXhXhX1.Y O oXL.oX!.F ~ a g p S ! e.V U.C.r c v ~.E.k ~ B < j.Q U < k.@XqX7X9X",
"gXgXhXjX) : O oXA ; F { :.' l *.S Z Y K _ ` &.U.V.Z.v Q.~.8 B  Xt.H K J @X4X6X2X",
"fXgXjXjX7Xq jXkX7.*.+ $ e b.H.F.J.B G L H N *.@ % Q.G.x B.c.O.S.S Q ! | tX4X,X6X",
"gXhXjXjXjX'...L.*.=.h V.x.Z.>.I.R.x j x.>.1 I . # c.|.u k v A.<.F Q ! iX<X4X4X4X",
"hXhXjXjXaXC 1 m 3 F.V.Z.C.K.W.8.$.. p v f n E Y E.m.,.u ( } K `.|.Q {.lXaX9X8X9X",
"hXgXhXhX`.H m > = a w ' -.*.8 U G 5 g p h % ,.<.V.R.I.j %XI n T ] ` K W n.qX9X9X",
"hXjXjXhXOXC C M - ; 6 a $.*.) G G ^ f -.J.% j i v o.3.^.E.yXyXM > o.R W l.yX9X9X",
"gXhXhXhXhX8.Z C V 4 3 . 5 ;.J.| | k f C.W.U.r % 6  . .J.i j yX_.0   8 0.[.iX9XaX",
"fXgXgXjXjX| @.Z K $.z $ d.-.H.J.F.x V.f Q $.C.p ~ &   ) t = 9 ! ; X = L qXqXpXqX",
"gXaXhXjXjX6.@.....x c &.d.-.c l d - J.o.Q M G.XXX.m 9 0.3 = Z q.1.D m t.7XqXqX9X",
"fXhXjXhXhX<X@.: 9 * 3 z Z.C.x.l ) = [ r 2 ~ c z.#.) XX*XT.` g./ uX$Xh.7XqX6X,X6X",
"fXjXgXjXhXiXD g X < < s s.4.:.m 9 7 G.r :.z @ # - : '.#XP.y m m u.$XsXqX6X;X>X1X",
"fXgXgXjXhXgXiXOXa C 0 q s.s.' A t.2.G.F.W.S.k :.n B @.H.f & & R u.y.<XiX9X2X;X2X",
"0XqXgXhXhXjXjXhX'.K C q / s.: 4 +.t.2.' I.S.W.<X6.C 2.-X!.8.w.i.u.0.sX0X9XaX9X2X",
"sXfXfXgXjXhXhXfX&XC 1 < s.s.< % y n.A.n ! 3.0X0X_.6.6.6.X.#Xe.w.m.$XqXpXaXiXqX9X",
"fXfXpXfXfXgXhXhXhXyX'.( C q.i.c.}.}.6.2.! K.I. X7 O > > , N yXyX7XqXqXaX9X9X9X2X",
"fXsX0XsXgXhXgXgXhXhXjXhX@.q.Q o.`.Y.3.rXr.r.v.iX: O : M <  .qXqX9X8X9X9X9X9X2X,X",
"sXsX0XqXdXgXsXgXgXgXiXqXL.9 ` `._.1.T rX4 F T.6.< , p.R ).qXqX0X6X6X6X6X6X2X8X6X",
"sX0X0XqXsXaXsXqXqX0X6X0X<X].].{.N m 9.eX9.N = t.t.u.i. .yXqXqXqX6X2X2X2X2X2X2X8X",
"5X0X5X0XqXqXqXqX9X6X9X6X6X4XyX<XrXn C u.9.< S +.qX0XyXiX6X0X6X6X6X2X,X2X,X1X2X2X",
"3X3X3X5X0X0XqX6X9X6X6X,X>X5X5X7X0XyXyXqX7X&XyX6X6X0X6X7X6X6X6X,X;X;X;X;X;X;X1X;X",
"3X:X:X3X5X3X5X3X6X;X,X>X3X5X6X6X6X9XqXqXqX7X6X5X4X5X5X6X6X6X6X;X;X;X-X%X;X;X;X;X",
"=X=X3X3X3X:X:X:X:X,X6X6X,X6X6X6X9X6X6X6X6X6X6X,X>X;X,X5X,X6X,X;X;X;X,X;X%X-X-X%X",
"/.=X=X=X3X:X-X-X%X6X2X5X6X6X5X4X9X6X6X5X,X6X,X:X:X6X,X,X,X,X3X-X-X-X,X%X%X%X/.~."
};
