/* XPM */
static char *_d8dff08a9ab441da9190ac525f23623qjdfgRwatbP4mxaw[] = {
/* columns rows colors chars-per-pixel */
"40 40 244 2 ",
"   c #353702",
".  c #7A3902",
"X  c #0E4B00",
"o  c #184500",
"O  c #0D5100",
"+  c #165900",
"@  c #2B5106",
"#  c #196501",
"$  c #256A02",
"%  c #376605",
"&  c #2B7503",
"*  c #297802",
"=  c #377B06",
"-  c #317C04",
";  c #4C4D07",
":  c #7D4409",
">  c #7F4A11",
",  c #487B07",
"<  c #6F740F",
"1  c #4E7B3C",
"2  c #8C5107",
"3  c #824E15",
"4  c #885716",
"5  c #88660B",
"6  c #976918",
"7  c #9A7116",
"8  c #AD740E",
"9  c #AA7814",
"0  c #845625",
"q  c #986E2D",
"w  c #D97C07",
"e  c #CF7A16",
"r  c #2C8204",
"t  c #348604",
"y  c #3B8607",
"u  c #3A8C04",
"i  c #3D9307",
"p  c #3E8020",
"a  c #45860B",
"s  c #409707",
"d  c #439C06",
"f  c #43930B",
"g  c #44990A",
"h  c #4B9C0D",
"j  c #549114",
"k  c #7A8911",
"l  c #49A507",
"z  c #4CA50B",
"x  c #4DA90A",
"c  c #59A60C",
"v  c #53AC0C",
"b  c #49B505",
"n  c #53B20B",
"m  c #59B40C",
"M  c #54BE08",
"N  c #5BBD0C",
"B  c #55AC13",
"V  c #5BB310",
"C  c #5DBB13",
"Z  c #62B20E",
"A  c #61BD0E",
"S  c #67A510",
"D  c #60B513",
"F  c #63BD11",
"G  c #549031",
"H  c #67B332",
"J  c #54C310",
"K  c #64C30E",
"L  c #66CC0D",
"P  c #71D50D",
"I  c #64C411",
"U  c #6AC713",
"Y  c #6CCC12",
"T  c #7ACB17",
"R  c #6ED213",
"E  c #73D315",
"W  c #7AD916",
"Q  c #7ADD14",
"!  c #75E00D",
"~  c #7AE516",
"^  c #77C72F",
"/  c #5C8A45",
"(  c #78A460",
")  c #8A9215",
"_  c #B79118",
"`  c #96AD0E",
"'  c #B4A91B",
"]  c #AE8A2A",
"[  c #B99626",
"{  c #D0850D",
"}  c #E58805",
"|  c #EB960C",
" . c #F39305",
".. c #FA9A05",
"X. c #EB9114",
"o. c #ED9D11",
"O. c #F5A30D",
"+. c #FCA809",
"@. c #FDB60B",
"#. c #F3A413",
"$. c #F7A914",
"%. c #FAAD14",
"&. c #FEB116",
"*. c #FDB41C",
"=. c #FDB918",
"-. c #CA892B",
";. c #D88827",
":. c #D48B35",
">. c #E99B2D",
",. c #D0AF2F",
"<. c #D9B628",
"1. c #EEB52D",
"2. c #FBB621",
"3. c #FFBA24",
"4. c #FFBD2C",
"5. c #85E915",
"6. c #8AEF11",
"7. c #89EF26",
"8. c #FEC515",
"9. c #DFC935",
"0. c #E5C129",
"q. c #FBC227",
"w. c #FFC42C",
"e. c #FECB2D",
"r. c #FAD22A",
"t. c #FFD42C",
"y. c #FEC434",
"u. c #FECB33",
"i. c #FFCC39",
"p. c #ECD637",
"a. c #FED433",
"s. c #FEDB33",
"d. c #FED93C",
"f. c #FFE333",
"g. c #FDE53B",
"h. c #F7EA3B",
"j. c #FEEC3B",
"k. c #AD894A",
"l. c #83B75B",
"z. c #B19465",
"x. c #8BB56C",
"c. c #86A679",
"v. c #BAB86A",
"b. c #CF924E",
"n. c #D69B55",
"m. c #D2AE53",
"M. c #E9AF4F",
"N. c #E9B657",
"B. c #CA9F6F",
"V. c #D4A46C",
"C. c #D3B172",
"Z. c #E6B765",
"A. c #E2BA7A",
"S. c #8ACA56",
"D. c #A7DF5D",
"F. c #93CA69",
"G. c #D8CA4C",
"H. c #DDC956",
"J. c #FFCC43",
"K. c #FFD846",
"L. c #E3D359",
"P. c #FFDB52",
"I. c #EFE44C",
"U. c #FFE547",
"Y. c #FFF749",
"T. c #FBE856",
"R. c #FDF656",
"E. c #D6C367",
"W. c #DED17C",
"Q. c #E5D46F",
"!. c #FFDF65",
"~. c #FBE767",
"^. c #FEF763",
"/. c #EFE472",
"(. c #FCEC7A",
"). c #FFF576",
"_. c #FFFB75",
"`. c #97AE8C",
"'. c #A1BA99",
"]. c #A2B4A0",
"[. c #BABBBA",
"{. c #C3AB88",
"}. c #DEBA8B",
"|. c #D5B896",
" X c #E2BF95",
".X c #B2D291",
"XX c #B2E582",
"oX c #BAD1A5",
"OX c #BCC6B5",
"+X c #D9CA95",
"@X c #E2D58A",
"#X c #E2C397",
"$X c #C2E996",
"%X c #F9EB87",
"&X c #FDF587",
"*X c #FFFB85",
"=X c #EBE393",
"-X c #FEF995",
";X c #FFFB9B",
":X c #DAC6A9",
">X c #C0C2BE",
",X c #D9CAB6",
"<X c #CDD4B4",
"1X c #E5D1A5",
"2X c #CAE0B3",
"3X c #FFFEA2",
"4X c #FFFCAC",
"5X c #F0E9BD",
"6X c #FFFFB4",
"7X c #BFC1C4",
"8X c #C4C5C4",
"9X c #C7CCC5",
"0X c #CAC9C7",
"qX c #C5C5C9",
"wX c #CCCCCC",
"eX c #D8CEC2",
"rX c #CED2CA",
"tX c #D2D1CE",
"yX c #DAD5C9",
"uX c #CDCED1",
"iX c #D0D0D2",
"pX c #D4D4D4",
"aX c #DAD6D2",
"sX c #D6D9D5",
"dX c #D9D9D7",
"fX c #D5D6DA",
"gX c #DBDCDB",
"hX c #E1CEC8",
"jX c #E2D5C5",
"kX c #E3D9CE",
"lX c #E2DED8",
"zX c #DCE4D2",
"xX c #FEFCC2",
"cX c #FDFCC8",
"vX c #E4E1DD",
"bX c #F9F6D7",
"nX c #FEFDD4",
"mX c #DDDEE1",
"MX c #E0DFE2",
"NX c #DFE0E2",
"BX c #E4E4E4",
"VX c #E8E6E7",
"CX c #E9E9E9",
"ZX c #FEFEE7",
/* pixels */
"8XwXwXpXsXtXpXdXsXgXfXdXgXgXgXgXmXvXBXBXBXvXvXdXfXpXsXsXsXpXfXpXfXdXtXtXtX0XwX0X",
"wXwXpXfXfXfXgXdXgXgXdXmXBXMXBXvX,X1XA.Z.N.N.Z.W.#XeXgXgXgXgXdXpXpXpXiXpXpXpXtXtX",
"0XiXsXgXgXgXgXgXgXmXgXBXBXkX XM.=.8.s.g.U.U.g.t.8.2.N.:XkXgXgXgXgXgXdXfXaXpXpXsX",
"pXfXgXdXgXMXMXMXlXMXBXlX X1.@.s.).4XcXnXZXZXnX5X4X~.r.@.M.,XgXgXgXgXgXpXpXpXgXtX",
"gXgXgXsXgXgXmXBXVXBXkXN.@.s.&XnXZX{.:XZXZXZXbX{.:XZXxX(.r.$.}.gXmXgXlXgXgXdXdXsX",
"mXgXgXgXlXBXMXVXVXhXM.=.T.6XbX1Xk.> 1XbXbXbXbXz.3 v.5XbX4Xs.$.A.aXlXmXmXgXdXpXdX",
"iXgXgXgXgXBXVXBXeXM.@.~.=X+Xk.4 > +XcXxXxX6XcXxXz.. q m.@X=Xd.+.C.aXgXgXdXdXdXdX",
"fXdXgXgXgXmXVXlXZ.@.U.@Xq > 4 k.5X6X6X4X4X6X4X6X6X}.q > 4 C.-Xi...}.fXgXdXfXpXdX",
"gXgXmXgXlXBXBX#X..e.%X/.E.E.=X;X;X-X;X;X;X;X;X;X-X3X-XW.C.W.&X(.q.>.:XgXgXgXgXdX",
"lXmXBXMXMXMXhX>.=.~.%XH.m.Q.*X*X*X*X*X&X&X*X*X&X*X*X*X&XH.H./.(.P.+.n.kXvXgXdXsX",
"gXmXBXBXVXMX}.+.y.!.~.L.] 0 ] G.)._._.)._._.)._._./.,.q 6 m.~.~.!.4.X.,XgXsXgXsX",
"BXlXVXBXBX,X>.%.J.P.P.T.R.G.7 : 7 ,.R.^.^.^.^.I.[ > > [ I.T.T.U.P.J.+.n.tXpXsXpX",
"BXBXCXVXNX|...2.J.K.K.K.Y.R.I.] : 2 [ R.R.Y.I.7 . 2 ,.R.R.U.K.K.K.J.%.X.,XpXgXsX",
"mXBXBXBXvXC...3.i.i.d.d.d.U.Y.,.2 . [ Y.Y.Y.p.6 . 6 I.Y.I.d.d.a.i.y.*. .|.aXpXgX",
"BXBXvXBXlXn.+.2.y.u.u.s.f.j.<.2 2 [ h.j.j.j.j.9.9 2 9 s.j.a.a.a.u.w.2...B.iXsXgX",
"gXmXBXVXkX:...*.w.w.e.t.f.<.2 6 <.h.j.h.f.f.f.j.9._ : 9 r.s.t.e.w.3.*. .n.pXsXaX",
"mXBXBXBXyX;...&.3.w.w.t.<.7 ] p.f.f.f.f.f.f.f.f.f.f.<.7 9 r.r.w.q.3.%. .b.yXdXpX",
"mXBXCXbXjX;. .%.3.w.e.e.<.<.r.f.f.f.f.f.s.f.f.f.f.f.s.p.,.q.e.w.w.3.$. .b.tXpXpX",
"BXBXCXCXkX:. .$.2.4.w.e.u.a.f.s.0.' ) ) k k ) ' <.r.f.p.a.e.u.w.4.*.O.} b.wXtXtX",
"BXVXCXCXvXb. .+.*.4.y.u.u.a.<.< % # # # # # + $ % < ' u.a.y.y.y.3.&.O.} B.tXtXtX",
"BXVXCXCXvXV. .O.%.3.4.i.i.[ % O # & * * * * = = * + + < 1.i.y.4.*.&.o.} |.aXdXdX",
"VXBXVXCXCX|.w | $.&.4.y.[ @ + # & * a a * - , y r - # X < y.y.2.&.O. .e ,XgXdXgX",
"BXCXCXBXVX,X-.} #.$.3.1.; X $ $ - t y y t u u u u - & # o -.q.*.$.o.} b.tXdXsXsX",
"BXBXVXCXVXlXB.} | #.=.{   + - & u d s d d d d d d i r $ X 7 *.*.#.} w |.sXsXgXvX",
"BXBXBXCXCXBX,Xe } | %.8   $ t - d n A A v v l l v x u - o < +.%.o.} -.tXgXgXgXgX",
"BXNXCXCXCXBXlXC.w X.$.9   & t , x Z L T N b n c c x s t @ > #.#.} e |.pXdXlXgXdX",
"NXCXVXBXVXVXCXjX:.w  ._ ; & t u m K L L m n K x d s s u @ 6 o.| w n.yXsXdXpXwXpX",
"NXVXBXVXVXVXVXVX1Xe w X.5 = * l K E K m c v Y J b x i u ; 8 | w :.,XgXgXfX0X0XtX",
"BXBXBXVXVXVXCXVXCX#X;.| _ = r D W E Y K c z U N M M s t < } w :.:XaXmXvXfXyX0XtX",
"fXgXBXVXVXVXCXVXCXCX+X' ` c I W T Y E E N z z s K L m Z ` ;.V.jXgXsX2XXX.XgXsXtX",
"gXNXNXBXVXCXBXBXCXCXXX~ 5.T F B C Q E E I z n v m I M L Y v.hXBXzXsXS.L x.lXgXsX",
"NXNXmXmXBXBXBXNXOX.X^ M J I v h I Y m Y I x K T T K n x l H D.D.oXzXx.x.OXdXsXtX",
"NXmXfX2X$XzXvXrXS.7.T B V Y W Q W F c E R z F W 5.~ v f h g A U l.9XtXwXpXpXpXtX",
"mXmXpXS.U F.NX<XH J S V C 5.6.5.5.E W 5.~ V N Y Y K f f F m S j `.pXtXtXpXpXpXpX",
"mXmXpXoXx.oXfXF.n i C f g N K I W A C R F c V y s z f s m W P T oXtXtXpXpXwXtXpX",
"uXuXuXfXpXfXrXS.K l n K N z & & B z h z , j h = B T F A K L P P .XtX0XtXtX0XtXyX",
"qXuXuXfXfXfXgXOXx.G h ! 5.V # = R Q N h C W W f y B Y 5.F G G ( [.>X8X0X0XwXwXwX",
"qXuXqXuXuXuXiXiX0XOXc.f c , 1 / z n i p B R C 1 @ a F U l.OX9X8X8X8X8X8X8X9XwX0X",
"7X7XqXuXuXqXqXqXqXwX0X].c.].0XtX`.( `.OX].c.].qX'./ G ( OXpXwXqX9X0X0X8X>X8X8X[.",
"7X7XqX7XuXqX8X7X>XpXiXpXiXiXpXtXfXuXwXiXuXuXwX8XqXuXuXwXwXwXuX8X8X9X0X8X>X[.[.[."
};
