/* XPM */
static char *_8b4a564ee4a46de9e260187cbca5952FMY8Az7IpYVmCfpM[] = {
/* columns rows colors chars-per-pixel */
"40 40 232 2 ",
"   c #6E2C0D",
".  c #643016",
"X  c #773A12",
"o  c #7B4516",
"O  c #833F10",
"+  c #8A4501",
"@  c #944B0C",
"#  c #8A5108",
"$  c #955401",
"%  c #965605",
"&  c #965A05",
"*  c #9C5C03",
"=  c #864C14",
"-  c #8C5514",
";  c #87561D",
":  c #965A15",
">  c #945C1A",
",  c #A24B00",
"<  c #A75D03",
"1  c #9D6103",
"2  c #9D6209",
"3  c #9B6519",
"4  c #A56506",
"5  c #A96806",
"6  c #A66909",
"7  c #A46A0E",
"8  c #B76407",
"9  c #BB780B",
"0  c #A56A19",
"q  c #AE7517",
"w  c #B27415",
"e  c #B6791A",
"r  c #835123",
"t  c #825935",
"y  c #A15E26",
"u  c #976928",
"i  c #9A6D36",
"p  c #A46D25",
"a  c #AE7522",
"s  c #B3772B",
"d  c #AB7934",
"f  c #CB6E06",
"g  c #C96F0A",
"h  c #CD7106",
"j  c #CB720C",
"k  c #D27504",
"l  c #D57A06",
"z  c #DB7B02",
"x  c #D67D08",
"c  c #CC7616",
"v  c #D47E19",
"b  c #CD7F27",
"n  c #8F6C4F",
"m  c #A47B47",
"M  c #B98931",
"N  c #C6850C",
"B  c #DD8103",
"V  c #DB8309",
"C  c #DF8B0B",
"Z  c #C98C1B",
"A  c #D78C16",
"S  c #CD941D",
"D  c #D99518",
"F  c #DC9B1B",
"G  c #E68A04",
"H  c #E28C0B",
"J  c #EC9400",
"K  c #E5920D",
"L  c #EA950C",
"P  c #EC9A0D",
"I  c #F29F0A",
"U  c #E49916",
"Y  c #EB9C11",
"T  c #F19E11",
"R  c #DAA41B",
"E  c #FDAC00",
"W  c #F3A30E",
"Q  c #FFB803",
"!  c #E4A21D",
"~  c #E9A718",
"^  c #EBA61E",
"/  c #F4A314",
"(  c #F6A717",
")  c #FAAB15",
"_  c #F4AC1D",
"`  c #FBAD1A",
"'  c #EFBF1D",
"]  c #FDB315",
"[  c #FCB81B",
"{  c #CE8229",
"}  c #D4852B",
"|  c #CB9825",
" . c #D59826",
".. c #CD8837",
"X. c #D38A36",
"o. c #C6943A",
"O. c #DB9738",
"+. c #D7A624",
"@. c #E7A924",
"#. c #F6AF20",
"$. c #E8B628",
"%. c #F6BC26",
"&. c #E9AE36",
"*. c #ECB736",
"=. c #F3B734",
"-. c #FFC406",
";. c #FBCA16",
":. c #FFD219",
">. c #EAC428",
",. c #FAC52B",
"<. c #FECA2C",
"1. c #FBD62C",
"2. c #EAC737",
"3. c #F4CA36",
"4. c #FDD530",
"5. c #FFDA32",
"6. c #F8D93C",
"7. c #FFE334",
"8. c #FFE73D",
"9. c #AE8951",
"0. c #BF8C5A",
"q. c #9C8779",
"w. c #A88B6B",
"e. c #B89269",
"r. c #A38B7A",
"t. c #B59673",
"y. c #CE8947",
"u. c #D3964C",
"i. c #C49553",
"p. c #D3AE4D",
"a. c #DCA358",
"s. c #EAB14F",
"d. c #E8B959",
"f. c #C79868",
"g. c #D19C69",
"h. c #C59F77",
"j. c #D2AF6D",
"k. c #D8A869",
"l. c #D4A976",
"z. c #DBB177",
"x. c #EABB69",
"c. c #E7BD79",
"v. c #ECCE4E",
"b. c #F5DA46",
"n. c #FEE444",
"m. c #FDEB45",
"M. c #FEE44C",
"N. c #FDE94B",
"B. c #FBE658",
"V. c #EBC76A",
"C. c #F0C56B",
"Z. c #ECC47A",
"A. c #F4CA75",
"S. c #F4CC7B",
"D. c #F2D57D",
"F. c #FDE965",
"G. c #FCEA77",
"H. c #9E8F85",
"J. c #A69184",
"K. c #AD9C93",
"L. c #B7A294",
"P. c #AEACAC",
"I. c #B8ABA3",
"U. c #BAB9B9",
"Y. c #C7A687",
"T. c #D0AF8B",
"R. c #D8B788",
"E. c #CAB29B",
"W. c #D6BC99",
"Q. c #E3BD88",
"!. c #CAB9A8",
"~. c #D3BDA8",
"^. c #C4BBB7",
"/. c #DFC097",
"(. c #E9C789",
"). c #F1CE85",
"_. c #F4D685",
"`. c #E7CF95",
"'. c #F4D899",
"]. c #F9E787",
"[. c #FFF48B",
"{. c #F6E898",
"}. c #FEF394",
"|. c #FEF59D",
" X c #D9C7AD",
".X c #C6C1BB",
"XX c #D6CCBD",
"oX c #E3CBA7",
"OX c #E1CBB1",
"+X c #F5E9A5",
"@X c #FFF7A6",
"#X c #F9EBB4",
"$X c #FDF5B9",
"%X c #FFFDBD",
"&X c #BFC1C4",
"*X c #C4C5C4",
"=X c #C9C9C6",
"-X c #C5C6CA",
";X c #CCCCCC",
":X c #D5CEC6",
">X c #CFD0CE",
",X c #D1D1CE",
"<X c #DCD5CB",
"1X c #CCCED3",
"2X c #D0CFD1",
"3X c #CED3D9",
"4X c #D4D4D3",
"5X c #D6D7D7",
"6X c #D9D9D6",
"7X c #DBDCDB",
"8X c #E1D7CC",
"9X c #E2DEDA",
"0X c #EEF1CD",
"qX c #FFFDC3",
"wX c #FAF4C8",
"eX c #FEFDCC",
"rX c #E2E1DC",
"tX c #F6F9D7",
"yX c #FFFED4",
"uX c #FEFEDB",
"iX c #DCDEE1",
"pX c #E0DFE2",
"aX c #DCE2E8",
"sX c #DEE8F1",
"dX c #E2E2E3",
"fX c #E6E7EA",
"gX c #FFFFE4",
"hX c #FFFFEA",
"jX c #EBF2F8",
"kX c #FFFFF5",
"lX c #F3FAFF",
"zX c #FDFFFE",
/* pixels */
"*X;X;X4X5X4X4X5X5X7X5X6X7X7X7XiX9XiXpXdXdX7XrX7X6X4X4X5X5X5X5X4X4X6X2X;X4X;X=X;X",
";X;X4X5X5X5X7X5X6X7X6XpXpXpXdXpXdXfXdXdXdXdXdX7X7X7X7XrX7X7X5X4X5X4X4X4X4X4X>X,X",
"=X4X4X7X7X7X7X7X7X9XpXpXfXdX8XoXc.d.s.%.=.=.s.x./.XX9XrXaX7X7X7X6X7X5X5X4X6X4X6X",
"4X5X7X5X7XpXiXdX6XpXdXfXOXx.#.Q ;.1.8.m.N.8.7.:.-.) s./.6XrX7X:X9X7X7X5X,X4X6X4X",
"iX7X7X6X7X9XiX!.y.E.XXs.E -.7.G.@XqXuXuXgXuXeX$X[.M.;.Q &.W.h.u.!.9X9X7X7X7X6X5X",
"7X7X7X6X7XdX9Xf.{.a.L Q 8.}.eXgXhXgXhXhXhXgXhXhXhXuX@XB.;.J x.{.h.7X6XiX7X5X5X5X",
"2X7X7X7X9XdXdXk.hX#X@.F.qXyXeXeXeXyXyXyXyXuXyXeXeXeXeXyX].&.yXhXl.9X6X7X5X5X6X6X",
"5X7X7X7X7XdX:Xl.kXkXZ.Z.qX%X%XqXqXeXeXeXeXeXqXeXqXqX%X%Xc.'.zXhXk.!.7X7X7X5X5X6X",
"7X7XiX7XiXrX0.Z.kXzXwXx._.{.]._.S.V.V.|.+XV.V._._.].|.D.V.gXkXkXc.w XX7XiX6X6X5X",
"9XiXpXpXrXh.8 '.kXkXkX#XC.C.A.S.(.Z.O.0.i.O.).`.S.S.A.A.wXkXkXkX'.< d 5XiX7X6X6X",
"7X7XdXdX~.8 X.$XkXhXhXgXtXeXuXtXtX{.d 9.M d +XtXuXuXtXuXhXhXhXkXwXX.8 e.5X5X6X6X",
"6X!.Y.g.a.S.#XgXhXgXgXgXgXgXuXtX{.d r V.j.o M {.tXuXgXgXgXgXgXhXgX$X_.a.i.f.Y.^.",
"h.d.'.#XeXgXgXgXuXuXuXyXyXyXeX{.o.o o.F.F.9.o p.+XeXyXyXuXuXuXuXuXgXgXeX$X+Xd.y.",
"Y.x.+X0X0X0XeXyXeXyXeXqXqX%X|.s.o d B.B.B.v.u o v.|.qXeXqXeXeXyXyX0X0X0X0X+Xk.Y.",
"9X~.l.x.{.$X0X%XqX%X$X%X@X[.F.a o v.N.N.N.N.2.; s B.[.@X$X$X%XqX%X$X#X'.d.e.^.6X",
"7XiXL.= M V.].|.@X|.}.].F.B.n. .M 8.m.m.m.m.6.M  .n.N.F.].[.|.|.|.G.d.M O n 7X5X",
"rXdXi., @ e b.F.F.B.B.b.6.6.1.%.+.2.8.8.8.8.2.S $.1.6.6.b.B.B.F.F.3.0 O O y :X4X",
"rX9Xy.z x 9 s.b.m.6.2.>.>.$.' ' R +.7.7.7.7.$.+.[ >.>.>.>.2.6.m.b.3.a 8 h f ~.4X",
"dX8X} G U A 2.6.2.$.R +.R R ~ ~ R | 1.7.7.1.S F ~ ~ ~ +.S $.>.2.6.3.{ C G z E.4X",
"fX8Xv G L  .=.%.' R 7 X 3 q S D D S $.7.7.$.Z D F S N o o 3 $.$.3.3. .K L z T.,X",
"fX8Xv G P D &.=.! 0 . = 7 > - p w 7 | 7.7.+.q e 0 - - : # X p @.*.2. .K G z T.4X",
"fX<Xv G I D $.$.q X 3 F @.R Z q 3 3 | 5.1.+.3 > 3 e D ^ R q o p &.*. .G G l W.6X",
"fX9X} G W D O.p   @ U %.<.<.1.,.>.$.3.5.5.3.$.$.%.,.<.,.%.U <   >  .S J C l  X4X",
"dXdXy.G W Y e X . = % 5 N F %.<.1.4.5.5.5.5.1.<.,.$.! N 5 # o . O e Y P G c XXrX",
"dXdXl.z P / ( g n U.H.n t o ; # * 1 1 1 1 1 1 * % # o t n H.P.n j ~ W L B ..6X7X",
"dXdX~.k G W ] P i 3XsXaXaX3X^.I.K.J.r.q.q.q.J.K.I.U.=X3XaXaX&Xu Y ] W L l g.7X7X",
"dXfX9Xb B P ) ] 6 H.3XaXjXlXlXzXzXzXzXzXzXzXzXzXzXzXlXjXaX3XH.7 [ ] P C k !.;X>X",
"9XfXfXl.l K W ] D # n r.P.;XrXfXjXlXlXzXzXzXlXjXdX5X^.L.q.i = F [ W L B ...X=X,X",
"dXdXdX<Xc B K W [ w + $ % : i m 9.e.t.t.t.e.w.m i > # # # + 9 [ W Y C h E.,X;X>X",
"7XiXdXfXl.h C Y ) _ 7 * 4 4 < $ % $ $ $ $ $ $ $ * < 5 5 & 6 _ ] ~ C l ..<XrX4X,X",
"7XiXdXdXrX} k C Y ` ~ 7 & 4 6 5 6 6 5 5 5 5 5 6 6 6 4 & 7 ^ ` W K V j oX7X7X7X6X",
"pXpXrXrXfXoXj N C Y ) ~ q & < 5 6 4 4 4 4 4 6 4 4 4 & w _ ` P D V h z.rX7X6X4X,X",
"iXiX7XiXfXdXQ.g x H U ( ` { 7 * < 4 4 4 4 4 4 * & 7 Z ` ) Y K V f a.4X7X6X4X4X>X",
"iXiX7X7XpXpXpXQ.j l H L T ` ^ Z w 6 2 2 2 2 6 w S @.` T Y H x g a.:X4X,X4X4X4X4X",
"iX7X3X7XiXpX7X7XW.v h x K L / ` _ @.! F F ! @._ ` T U L H k j k.,X,X,X4X,X>X,X4X",
"3X1X3X5XiX7X7X5X9X Xu.f k V H K L T / / ( / T L L H H x f X.W.4X4X>X;X;X;X>X>X>X",
"-X1X1X1X5X5X9X5X4X4X4XR...g h l V H H H K C C V x k f { z.:X4X;X;X=X*X=X=X;X>X;X",
"-X;X-X1X2X2X2X2X2X=X;X;X;X/.a...c j f h h h h j { u.R.XX2X4X4X=X=X*X*X*X*X=X;X*X",
"-X-X-X-X1X-X-X=X;X;X4X4X>X4X4X:X XR.z.j.k.z.R.W.XX=X;X2X2X,X;X=X=X=X;X*X.X*X*X.X",
"U.&X-X-X;X;X*X&X&X2X2X4X2X>X4X>X7X5X4X>X1X2X>X*X-X4X2X=X;X;X2X*X*X*X;X.X&XU.U.U."
};
