/* XPM */
static char *_2465bdb20aa40e7aee4022fdb7496b5GFyzuEARlIqNDVAd[] = {
/* columns rows colors chars-per-pixel */
"40 40 232 2 ",
"   c #00550D",
".  c #015B0C",
"X  c #085E0E",
"o  c #056706",
"O  c #0B6D05",
"+  c #05630A",
"@  c #0A640C",
"#  c #0A6908",
"$  c #126C0B",
"%  c #176B0F",
"&  c #147305",
"*  c #197705",
"=  c #1D7B03",
"-  c #17710B",
";  c #1B740C",
":  c #166610",
">  c #176910",
",  c #1A6B11",
"<  c #1D7010",
"1  c #217E04",
"2  c #247B0C",
"3  c #297C0D",
"4  c #2C6E19",
"5  c #237312",
"6  c #2C7416",
"7  c #2A7A13",
"8  c #357A1A",
"9  c #3B7E19",
"0  c #417C1D",
"q  c #258204",
"w  c #2A8504",
"e  c #2D8904",
"r  c #2D820A",
"t  c #2B860A",
"y  c #338C05",
"u  c #378B0B",
"i  c #379104",
"p  c #3A9304",
"a  c #3C930C",
"s  c #2E8611",
"d  c #348213",
"f  c #378516",
"g  c #3C8B13",
"h  c #3D841C",
"j  c #3E921D",
"k  c #3F8E23",
"l  c #4D9D07",
"z  c #41950D",
"x  c #459B0C",
"c  c #438C17",
"v  c #44861C",
"b  c #4A8E1D",
"n  c #548B1F",
"m  c #439516",
"M  c #4B9E12",
"N  c #499916",
"B  c #559B16",
"V  c #53931D",
"C  c #4CA207",
"Z  c #4FA40C",
"A  c #51A503",
"S  c #57A909",
"D  c #55A90C",
"F  c #4DA113",
"G  c #4FA11E",
"H  c #53A514",
"J  c #59AA13",
"K  c #55A51B",
"L  c #5BAB1C",
"P  c #67B70A",
"I  c #60AE1C",
"U  c #69B616",
"Y  c #73BE13",
"T  c #4B8823",
"R  c #548C24",
"E  c #499824",
"W  c #5C9324",
"Q  c #559528",
"!  c #548D3A",
"~  c #559F32",
"^  c #5BA728",
"/  c #5DA635",
"(  c #63AC25",
")  c #63AE2A",
"_  c #69B529",
"`  c #70BB20",
"'  c #73BC2C",
"]  c #63AC33",
"[  c #67AA3A",
"{  c #6DB436",
"}  c #75B936",
"|  c #75BD34",
" . c #7ABD3B",
".. c #76C315",
"X. c #7DC32B",
"o. c #7DC433",
"O. c #66984B",
"+. c #68AA42",
"@. c #75A846",
"#. c #73AD4B",
"$. c #72B249",
"%. c #75B449",
"&. c #79AE55",
"*. c #88BE3B",
"=. c #82CB1C",
"-. c #84C92A",
";. c #85C738",
":. c #83BC49",
">. c #80AF52",
",. c #85B958",
"<. c #84AB65",
"1. c #8AB866",
"2. c #93BB69",
"3. c #99BC7C",
"4. c #85C445",
"5. c #8BC64C",
"6. c #8DCB48",
"7. c #92CD43",
"8. c #95CC4F",
"9. c #9DD54E",
"0. c #8DC655",
"q. c #91CB52",
"w. c #95CA59",
"e. c #9ACC5B",
"r. c #9AD357",
"t. c #A3D55F",
"y. c #8EC165",
"u. c #9ACC65",
"i. c #97C569",
"p. c #9DCD6D",
"a. c #94C372",
"s. c #99C475",
"d. c #A1CE6C",
"f. c #A0D462",
"g. c #ABDA66",
"h. c #B2D86A",
"j. c #A3CD76",
"k. c #A6CB7C",
"l. c #A6D076",
"z. c #AAD474",
"x. c #AEDB74",
"c. c #ACD47B",
"v. c #B2DD76",
"b. c #B2D779",
"n. c #BABBBA",
"m. c #A5CC84",
"M. c #ACCD81",
"N. c #A4C888",
"B. c #B2CD8C",
"V. c #ACD281",
"C. c #AFD18B",
"Z. c #B3D585",
"A. c #B5DA84",
"S. c #B8DB84",
"D. c #B3D48B",
"F. c #BBDC8C",
"G. c #ADC590",
"H. c #ADCC93",
"J. c #B3CF95",
"K. c #B4CD9B",
"L. c #B3D392",
"P. c #B8D593",
"I. c #BCDA93",
"U. c #B8D49B",
"Y. c #BCD59D",
"T. c #BACCA6",
"R. c #BDD3A2",
"E. c #BFD9A3",
"W. c #BED1AA",
"Q. c #C3DD96",
"!. c #C1DC9D",
"~. c #C0E192",
"^. c #C2D9A6",
"/. c #C3D5AB",
"(. c #C5DAAB",
"). c #CADEAC",
"_. c #C5CEB6",
"`. c #C0C0BE",
"'. c #C4D4B4",
"]. c #C7DAB3",
"[. c #CBDCB5",
"{. c #C8D5B9",
"}. c #CCDBBB",
"|. c #D1DEBC",
" X c #C9E1A6",
".X c #CBE2AC",
"XX c #D0E6AE",
"oX c #CEE2B3",
"OX c #D3E5B6",
"+X c #D4E2BD",
"@X c #BFC1C4",
"#X c #C4C5C4",
"$X c #C8C9C7",
"%X c #C5C5C9",
"&X c #CCCCCC",
"*X c #CDD5C4",
"=X c #CEDAC1",
"-X c #CFD1CC",
";X c #D1D5C7",
":X c #D1DAC5",
">X c #D1D4CD",
",X c #D5DCCC",
"<X c #D9DECD",
"1X c #CDCED1",
"2X c #D0CFD1",
"3X c #CFD0D3",
"4X c #D4D4D3",
"5X c #D7D8D4",
"6X c #D9DAD6",
"7X c #D5D6D9",
"8X c #DBDCDB",
"9X c #E0DFDE",
"0X c #D4E1C4",
"qX c #D9E5C6",
"wX c #DAE6C7",
"eX c #DAE3CD",
"rX c #DDE3D4",
"tX c #DFE9D1",
"yX c #DEE2DB",
"uX c #E1E8D3",
"iX c #E1E4DD",
"pX c #E4E9DA",
"aX c #DDDEE1",
"sX c #DFE0E2",
"dX c #E1E1E1",
"fX c #E2E3E2",
"gX c #E4E4E3",
"hX c #E6E6E6",
"jX c #E7E9E5",
"kX c #E9EAE6",
"lX c #E8E7E9",
"zX c #E9E9E9",
/* pixels */
"#X&X&X4X7X>X4X7X7X8X8X8X8X8X8X8XyXfXiXrX].'.6X8X6X4X7X6X4X4X7X4X4X7X2X2X2X&X&X$X",
"&X&X4X7X7X7X8X6X7X8X7XyXgX8XrX5XfXhXfXU.+.&.oX8X8X8X8X6X=X,X8X4X4X5X5X>X5X>X-X2X",
"$X4X4X8X8X8X8X8XyXyXaXgXhXrXH.m.rXlXhXE.N ] 0XyX8X6X8X].1.H.5X8X8X8X7X8X5X4X4X6X",
"4X7X8X7X8X9X9XfXsXsXsXgXlXeX$.{ eXlXlXuX6.u.fXyX/.'.iXU.L y.:X8X8X8X8X7X4X4X8X>X",
"9X8X8X7X8X8X:XqXsXgXgXjXzXpXm.0.eXlXzXlXb.I.kXqX,.1.|.F.5.W.8XsX8X8XdX8X8X6X8X4X",
"8X8X8X8X8X}.a.a.tXhXjXfXrXpXpXA.oXlXlXlXD.I.jXqX*.2.Y.V..XgXaXfXsX8X8X8X8X8X4X4X",
"2X8X8X8X,Xp.j E .XkXjX^.a.oXzX XA.tXuXqXu.l.qXOXh.F.j.P.iXhXfXfX8X8X7X8X4X8X8X8X",
"7X8X8X8X,Xy.E L z.fXjXy.E m.kXXX7.F.F.v.X.-.x.x.v.h.6. XeXrXfXfXsX8X8X8X8X4X4X6X",
"8X8X8X8X6X(.m.w.q.).yXL.$.u.XXS.;.4.} ' U P ) {  .X.;.b.k.D.eXaXsX8X8X5X:X6X6X4X",
"9X9XfXfXsXfXuX0Xc.d.^.eXF.q.t.6.U K z M Q B i p z M ) ;.) [ E.yXsX8X4X/.a.^.5X5X",
"8X8X8XiXhXhXiX/.k.d.u.V.b.;.' L m u w z Q c e q w e a I D _ D.rX8X8X/.5.c %.}.8X",
"sXiX[.H.iXyX<X2.@.v.e.-.X.L J S y w = g Q r = = = q x H x ) f. X}.!.e.' E [ R.4X",
"hXsX&./ P.rXyXB.2.b.t...S a x A w = & 7 R ; O & q x F e w Z o.w.j.z.k.Z.m.k.}.8X",
"sXiX#.^ 8.U.].oX|.b.6.J x y w w = r r 3 7 # o O t D t = q S P ' e.D.}.5X*X;X>X8X",
"fXfXJ.L.I.P.Z.l.b.t._ N b z 1 O 2 V W 3 + + + + * t & & q A S ` f.1.G.5X2X4X>X8X",
"8X9XiXpXyXeX].p.-.-.M b R V d ; ; V W , . + + , - O O O = i p L r.@.>.;X4X4X8X7X",
"sXfXgXlXlXyXrXoX9.L a u h g b h # 5 5 X .   5 0 6 $ # ; f f e x 6.i.3.*X4X7X6X7X",
"sXfXlXlXeXN.N.~.9.H i e e * 6 6 @ . . .     6 0 4 2 5 9 V T u z q.Q.|.>X/.'.>X4X",
"fXgXlXzX.X^ k ;.X.J M x C 1 o o .       : , @ 4 , , 8 6 d g l J ;.S.(.c.@.1._.4X",
"hXkXzXzXoX] N X.Y F x x Z 1 $ 5 , . . > v 0 , X X @ $ $ & q A P | c.Z.8.m [ {.&X",
"hXlXzXzXuXL.V.g._ p y e q O s R v @   7 n 8 6     + + O & = i H q.).}.^.2.s.;X7X",
"lXfXlXlXzXkXuXv.^ i w = O o d R b @   % 9 4 , . . . # 1 e 1 w ( v.<X8X8X,X:X6X6X",
"fXlXkXiXuXiXtXv._ p e w * & 7 d 5 . . . > , @ . + > O i Z a a o.S.[.6X8X6X8X6X6X",
"hXjXlX[.3.D.Q.x.' p y g f h v - . @ @ .   5 9 5 % h 3 w a F ^ o.%.1.|.sX8X6X8XiX",
"fXfXfXP.! @.h.A.4.C a T Q c 8 O $ f d > . v R d < k b f e N 4.r.E ] ].8XyX8X8X8X",
"hXfXhX/.O.,.[.OXr.J l b c 1 & o 3 W W d o 3 h 2 O ; V W b U z.oX3.k.:X5X8X8X8X8X",
"fXlXhXrXJ.{.zXuXf.U P x e 1 * O 3 V W d o w e O & = a Q ) =.r.].;X:X8X6X6X>X4X>X",
"aXlXhXlXpXhXrX).5.' ..p w q 1 = = r b 7 & A x & = q g ] 5.9.4.s./.;X8X8X7X$X#X2X",
"fXgXyX+X[.!.D.Z.C.D.q.H p y e q 1 1 b d * Z F q e N ) d.A.S.J.B.k.k.P.K.^.-X&X-X",
"8X8X+X&.@.;.f.|.iXpXP. .( F z a y g R z q Z G m ) *.;.Q.:Xb.M.!.^.e.' ~ ,.<X4X2X",
"8XaX[./ d ' [.iXeX/.b.c.p.4._ ) J K ( Q K ( ' :.j.b.:.b.9XS.[ <.*X(._ d :.,X8X5X",
"sXaX<Xa./ l.fXiXK.#.:.OXqXE.V.8.Y 6.0.0.u.;.;.).+X<X^.d.).[.<.3.*X8Xs.#.J.5X7X>X",
"aXaX8X=XU.*XfXiXR.&.1.pX8XiX<Xd.;.Q..X)..X;.' :XgXgXtXY.d.R.W.=X5X5X{.W.;X5X4X2X",
"aXaX7X8XyXfXfXfX<XR.^.8XiXfX<Xd.P.rXyXiX[.~ g M.gXgX8X:X0.$.T.5X4X4X>X>X4X>X4X4X",
"aXaX7XaXaXfX8X8X8X>X>X7X7X8XY.z.,X8X9X9X].] E j.sX8X8X6Xm.+.K.4X4X4X>X4X>X2X2X5X",
"1X3X3X7XaX8X8X8X7X5X7X4X2XK.:.c.5X8X9X8X,XJ.H.'.8X5X8X6XW.K.*X4X5X&X&X-X&X-X-X>X",
"%X1X1X1X7X7X8X7X7X4X4X&X_.&.B k.5X8X8X8X8X6X>X5X4X4X4X4X4X4X2X&X$X$X#X$X$X&X-X&X",
"%X1X%X1X3X1X2X2X4X%X&X&X_.1.[ H.>X7X7X8X7X6X7X2X2X2X1X4X4X4X4X&X$X#X#X#X#X$X&X#X",
"@X@X1X1X1X%X%X%X$X&X4X4X&X'.K.{.6X4X4X4X5X4X2X&X$X&X&X4X&X4X&X$X$X$X&X$X`.#X`.`.",
"@X@X@X@X1X%X#X@X#X2X2X4X4X2X4X1X7X4X4X2X&X4X1X#X$X4X1X$X&X&X&X#X#X#X&X`.`.`.n.n."
};
