/* XPM */
static char *e15fda9a0dbf4551df1f40cf4a3f71d42l9yJirXAvwm5Plf[] = {
/* columns rows colors chars-per-pixel */
"40 40 197 2 ",
"   c #3E1337",
".  c #4C043D",
"X  c #421736",
"o  c #431937",
"O  c #461A39",
"+  c #481D3D",
"@  c #4A253E",
"#  c #48283F",
"$  c #4D1E42",
"%  c #541545",
"&  c #670748",
"*  c #7A054C",
"=  c #621D4A",
"-  c #760F50",
";  c #771B53",
":  c #4C2843",
">  c #532144",
",  c #58284A",
"<  c #53324A",
"1  c #553A4E",
"2  c #4E3F50",
"3  c #5A3D52",
"4  c #6B2854",
"5  c #77285A",
"6  c #6E375B",
"7  c #7C3062",
"8  c #5C4455",
"9  c #66445E",
"0  c #6B5665",
"q  c #74556D",
"w  c #745B6A",
"e  c #666566",
"r  c #74636F",
"t  c #786773",
"y  c #7C6C77",
"u  c #767676",
"i  c #880251",
"p  c #930655",
"a  c #8D1459",
"s  c #92195D",
"d  c #A7085C",
"f  c #B70F68",
"g  c #A81664",
"h  c #B41869",
"j  c #852C64",
"k  c #8A2B66",
"l  c #9D2166",
"z  c #912D6A",
"x  c #8E306A",
"c  c #B4286E",
"v  c #B92572",
"b  c #B9377A",
"n  c #C70663",
"m  c #CC0A6C",
"M  c #D10D6E",
"N  c #D50F72",
"B  c #CB1676",
"V  c #CD1979",
"C  c #D11479",
"Z  c #D41478",
"A  c #E51279",
"S  c #EB127D",
"D  c #C42479",
"F  c #C9347B",
"G  c #934871",
"H  c #AB4A7A",
"J  c #826D7C",
"K  c #82727B",
"L  c #D51C81",
"P  c #DB1C84",
"I  c #F01785",
"U  c #F31D8A",
"Y  c #D03F82",
"T  c #F3218C",
"R  c #896E83",
"E  c #8E7286",
"W  c #8B7786",
"Q  c #8E7D8A",
"!  c #CA4884",
"~  c #D34987",
"^  c #D1518A",
"/  c #D85B8E",
"(  c #D96D97",
")  c #DE739A",
"_  c #E16896",
"`  c #E3769C",
"'  c #D47CA2",
"]  c #DB7DA3",
"[  c #E17DA3",
"{  c #2F8D90",
"}  c #369294",
"|  c #3B9696",
" . c #31A09C",
".. c #44999B",
"X. c #7C8D99",
"o. c #57A9A7",
"O. c #53B2AC",
"+. c #6DAFAF",
"@. c #72B3B4",
"#. c #93848B",
"$. c #998C94",
"%. c #92949C",
"&. c #A78E9D",
"*. c #AB8E9E",
"=. c #8F99A4",
"-. c #A79BA3",
";. c #90ADB1",
":. c #88B6B9",
">. c #82BDBB",
",. c #98BEBE",
"<. c #A9A5A7",
"1. c #AAA3AC",
"2. c #B2ACAE",
"3. c #B4ADB1",
"4. c #BAA8B5",
"5. c #B4B3B3",
"6. c #BBB1B6",
"7. c #BDB5BB",
"8. c #BCBBBB",
"9. c #D58CAC",
"0. c #D79BB4",
"q. c #E887A8",
"w. c #EC89AC",
"e. c #EA93AD",
"r. c #F395AE",
"t. c #E69BB1",
"y. c #F29AB1",
"u. c #FA9CB3",
"i. c #C9A5B4",
"p. c #D7A4B4",
"a. c #C1BABD",
"s. c #E3A5B8",
"d. c #F7A5B8",
"f. c #FDACBC",
"g. c #E8B2BF",
"h. c #FEB0BC",
"j. c #C0C0BE",
"k. c #95BFC1",
"l. c #B8BDC4",
"z. c #C4BDC2",
"x. c #C8B9C1",
"c. c #DABDCB",
"v. c #FCAFC0",
"b. c #E4B6C9",
"n. c #E2BACD",
"m. c #FCB3C3",
"M. c #F8B9C6",
"N. c #87C8C3",
"B. c #99C9C6",
"V. c #BBC1C5",
"C. c #BAC4C8",
"Z. c #ABD2CE",
"A. c #C5C4C4",
"S. c #C9C4C6",
"D. c #C8C9C7",
"F. c #C5C5C9",
"G. c #CCC5CA",
"H. c #C4C8CB",
"J. c #CCCCCC",
"K. c #D0C5CC",
"L. c #D0CCCF",
"P. c #CFD0CE",
"I. c #D0D1CF",
"U. c #CDCED1",
"Y. c #DDC6D2",
"T. c #D3CED1",
"R. c #CED7D7",
"E. c #D4D4D4",
"W. c #D8D5D6",
"Q. c #D7D8D6",
"!. c #D8D8D7",
"~. c #D4D6D9",
"^. c #DBD6DA",
"/. c #D4DADB",
"(. c #DCDCDC",
"). c #E5C4CD",
"_. c #E7C8CF",
"`. c #F2C0CA",
"'. c #E7C5D1",
"]. c #E3D1DA",
"[. c #E2DBDE",
"{. c #DCE0DE",
"}. c #E1E1DF",
"|. c #DDDEE1",
" X c #E1DFE1",
".X c #DFE0E2",
"XX c #E4E3E4",
"oX c #E9E7E8",
"OX c #E9E9E9",
"+X c #EEEDEE",
"@X c #F0EEEF",
"#X c #F1EFF0",
"$X c #F3F3F2",
"%X c #F6F5F6",
"&X c #F8F4F6",
"*X c #FAFAFA",
"=X c #FFFFFF",
/* pixels */
"A.J.J.E.Q.E.E.!.Q.(./.^.(.{.(.{.{.}.}.XX{.{.{.(.!.Q.!.!.Q.Q.Q.Q.Q.Q.P.P.I.P.D.D.",
"J.J.E./.Q.Q.!.!.Q.(.^.{.XX{.XXXXXXXXXXXX.XXXXX{.(.!.(.{.(.^.!.E.E.Q.E.I.E.E.I.I.",
"D.U.Q.^.^.(.|.(.{.{.{.XXoXXXXXXXoXXXoXXXXXXXXX.X}.(.{.[.|.(.(.^.(.^.!.!.Q.Q.I.Q.",
"E.!.(.^.(.|.(.XX.X{.XXXXoXoXoXXXoXoXoXoXXXXXXXXX}.XXXXXXXX{.(.(.{.(.^.!.I.E.!.Q.",
"{.(.(.!.(.(.{.oXXXXXoXXXOXOX+XOXoXoXOXOXXXXXOXOXoXXXXXXXXXXX{.}.[.(.{.(.(.^.!.Q.",
"(.(.(.^.|.XX|.oXoXXXoXoXOXOXOXOXOXOXoXOXOXOXOXOXOXOXOXXXXXoXXXXX{.(.(.(.(.!.E.!.",
"E.^.(.(.(.XXoXXXoXOXOXOX+XOXOXOXOXOXOXXXXXXXXXOXoXoXXXXXXXXXXX{.{.(.(.^.Q.!.!.!.",
"Q.!.(.(.(.{.XXoXXXXXOXOXOXOXOXOXXXXXOXOXXX{.XXXXXXXXXXXXXXXXXXXX|.{.!.(.(.Q.Q.!.",
"(.(.{.(.(.XXXXoXoXoXXXOXOXOXOXoXXXXXXXoXXXXXXXXXXX}.XXXXXXXX}.}.}.(.^.(.(.(.!.Q.",
"{.|.}.XXXXXXXXOXXXXXXXXXoXOXoXXXXXXXoXoXoXoXXX}.{.{.}.XXXX}.XX(.}.}.Q.(.{.(.!.!.",
"(.(.XXXXoXXXoXoXXXXXOXXXoXoXoXoXOXoXXXoXoX|.XX[.^.!.}.XXoX(.}.{.}.(.[.[.(.!.!.!.",
"{.XXXXoXXX{.^.!.E.E.E.P.L.W.!.!.Q.Q.^.^.Q.Q.E.L.E.I.E.L.T.I.E.L.I.I.E.!.Q.E.Q.E.",
"oXXX{.P.P.D.a.8.2.2.2.2.3.6.7.a.z.a.a.a.a.a.a.a.a.6.2.2.2.2.2.1.2.5.j.j.D.j.!.!.",
"(.XX-.$.<.6.S.E.(.oXoX+X+X@X@X@X#X#X@X#X@X@X@X@X@X@X@X+X+X+XoXXX].I.j.3.&.#.I.}.",
"XX(.w #.D.}.#X%X&X*X*X*X*X*X=X=X=X=X=X=X=X=X=X=X=X=X=X=X*X*X*X*X*X%X+X}.j.K I.!.",
"(.(.e W 5.J.Q.[.oXOX@X@X$X$X%X%X%X&X&X&X&X&X&X&X%X$X%X$X$X@X@XoX}.{.Q.D.<.u E.Q.",
"}.}.e u 2.D.I.{././.R.|. X].Y.Y.c.c.n.n.b.n.n.c.'.Y.].]. X|. XXX}.(.E.A.<.u E.Q.",
"XX}.e u 5.J.E.Z.>.@.+.:.k.4.9.q.[ [ ] ' ' ' ] ' ' q.9.q.0.l.Z.B.Z./.!.S.<.u I.E.",
"XX(.e y *.0.Z.O.| } { { { o.i.u.u.d.4.=.X.=.1.1.i.y.r.t.=.} } ..O.B.p.9.&.u D.E.",
"XXXXq H ) e.L.B.>.>.@...{  .>.'.m.M.B...} o.N.H.b.f.M.F.O...@.k.,.z.y.q.( G J.J.",
"oXXXG Y d.h.h.x.C.'.~.N.+.+.N.^.m.m.).l.:.V.Y.M.b.i.6.H.l.z.Y.z.7.g.h.h.w.b E.!.",
"oX(.6 l / ` q.t.s.d.m.)._.'.`.`.v.v.f.m.M.m.f.v.8.;.;.a.M.m.d.b.p.y.q.` Y k E.!.",
"XXXX8 . - g b ~ / ( ` [ w.e.w.r.y.y.y.r.y.y.y.y.t.0.t.t.q.[ ) _ / ! c s & + Q.!.",
"XX|.2   . & i p d h v D F F Y ! ~ ^ ^ ^ ^ ^ ^ ^ ~ ~ F F F D h f p p * & . > E.}.",
"XX|.8 O % & * p d f n m M M C C C V V V V V V V Z C C N N m n n d p * & + < Q.!.",
"XX(.1 @ : % - a g B N S S S I I T T U T T T T T T U U I I A N m g a - = > , Q.[.",
"|.XXy   o @ > = ; s g h f B V L L P P P P P P P P L L V V v g a a = , @ O < D.I.",
" XoX7.: X o o + $ $ > % 4 5 5 j k x z z z z z k j j 7 6 6 , , : @ + O O @ y D.I.",
" X X(.Q 1 @ O o O O : 3 q q R R R E E E E E E E R R y q 9 < $ X O o @ # y a.D.P.",
"(.|.XX^.3.Q 0 1 < : : 0 W 4.x.T.^.^.|. X(.|. X^.^.K.x.&.t 1 : < < 8 K <.j.}.Q.I.",
"|.|.XXXXoX!.S.7.-.#.t 0 r Q -.4.x.z.c.G.K.Y.K.G.x.4.$.J 0 r R %.2.a.D.}.}.}.{.Q.",
"|.|.(. XXXoXXXXXXX|.T.G.G.H.G.G.z.a.x.l.l.z.z.F.z.F.A.z.A.G.J.^.Q.{.[.}.[.!.Q.I.",
"|.|.(.|.XXXXXXoXoXoXOXoXXXXX{.oX(.^.{.(.(.(.XX[.XXXXXX{.|. X(.(.^.Q.!.!.Q.Q.Q.I.",
"|.|./.|.XXXX|.XXXX|.[.(.|.XX^.XXXXXXXXXXXX{.XXXXXXXX(.^.(.(.^.Q.E.E.E.E.I.Q.I.I.",
"|./.~.^.|.XX(.(.(.Q.W.Q.^.(.Q.{.XX(.{.|.{.XX}.{.}.(.(.(.!./.(.!.I.I.P.I.I.I.I.Q.",
"~.U.~.~.(.(.(.^./.Q.Q.U.E.J.E.(.(.(.[.{.(.(.(.^.^.!./.Q.!.!.E.E.Q.P.P.I.J.J.P.I.",
"F.U.U.U.~.~.(.Q.Q.W.Q.J.J.P.E./.~.^./.(.^.(./.!.Q.Q.Q.E.Q.E.E.J.J.D.A.D.D.J.P.J.",
"U.H.G.U.E.U.U.T.U.D.J.D.J.P.Q.E.E.!.^.(./.^.Q.P.P.J.E.E.E.U.W.D.D.A.A.A.j.D.D.D.",
"z.G.H.H.U.F.F.J.D.U.E.E.U.E.E.E.!.E.W.Q.Q.E.P.J.D.J.J.U.U.E.J.D.D.D.J.A.j.D.A.j.",
"l.l.F.F.J.G.A.l.A.T.U.E.E.P.E.J.!.E.E.J.J.E.J.A.D.Q.U.D.J.J.J.A.A.A.J.j.j.j.j.5."
};
