/* XPM */
static char *_7e9fc69941e438ffbed6a5fd8fa3c46kryKOETyMmghCzyK[] = {
/* columns rows colors chars-per-pixel */
"40 40 80 1 ",
"  c #B5B6B4",
". c #BCBCBA",
"X c #B9BABF",
"o c #BEBEBC",
"O c #C0C0BE",
"+ c #C0C1BE",
"@ c #BFC1C4",
"# c #C1C1C2",
"$ c #C4C4C2",
"% c #C3C2C4",
"& c #C3C4C7",
"* c #C5C5C5",
"= c #C7C7C5",
"- c #C8C8C6",
"; c #C1C2C8",
": c #C7C6C8",
"> c #C6C7CB",
", c #CBCAC8",
"< c #CACACA",
"1 c #CBCBCB",
"2 c #CDCBCA",
"3 c #CBCCC9",
"4 c #CDCECB",
"5 c #C8C9CD",
"6 c #C9CACE",
"7 c #CDCDCD",
"8 c #CFCDCC",
"9 c #CFCFCD",
"0 c #CFD0CE",
"q c #D0D1CF",
"w c #D1D2CF",
"e c #CCCDD1",
"r c #CECED1",
"t c #D0CFD1",
"y c #CFD0D3",
"u c #D3D3D1",
"i c LightGray",
"p c #D3D4D1",
"a c #D4D5D2",
"s c #D1D2D6",
"d c gray83",
"f c #D6D5D4",
"g c #D4D5D7",
"h c #D8D7D7",
"j c #D7D8D5",
"k c #D9D9D7",
"l c #D5D5D8",
"z c #D6D8DC",
"x c #D8D8D8",
"c c #DADAD8",
"v c #DADBD8",
"b c #D8D9DB",
"n c gray86",
"m c #DBDCD9",
"M c #DBDCDA",
"N c #DBDCDB",
"B c #DDDDDB",
"V c #DCDBDD",
"C c gainsboro",
"Z c #DFDFDD",
"A c #DFE0DD",
"S c #E0E0DE",
"D c #E0E0DF",
"F c #DADCE0",
"G c #DDDEE0",
"H c #DFDFE1",
"J c #E0DFE2",
"K c #DFE0E2",
"L c gray88",
"P c #E1E0E3",
"I c #E3E3E2",
"U c #E4E4E3",
"Y c #E3E3E4",
"T c #E4E3E5",
"R c #E4E4E4",
"E c #E7E7E7",
"W c #E7E7E9",
"Q c #E8E7E8",
"! c gray91",
"~ c #ECECEC",
/* pixels */
"*77idiixxCxxCCxLLCLRLLCCkdkxdkddkxq0q4,4",
"77ixxxxxxCxLLLRRRRRRLRLDMBCLCxxdddaiaaqq",
"*idCxCCCCCCR!RRRR!RRLRRLCCLLLCCCxCxkahak",
"ixxxCLLRLLRR!!R!!!!!RRRRRLRLLLCCACxxiaxi",
"CCxxCCLRRRRR!!~!!!!!!R!!!RRRRRDLLCCCCxjj",
"CCCxCRLR!!!!~!!~!!!!!!~!!!!RRRLRCCCCCjdk",
"ixCCCL!RR!!!~~!~!!!RRRR!!!RRRRRLCCBxxxkk",
"xCCLCLR!R!!!!~~~!!!!RLRRUUURRRRLLAbCxxkk",
"CCCCCRR!!!R!~~!RRR!RRRLLULRRRLLULCxBMMkd",
"CLLLRRR!RRRR!!RRRR!!R!RLLDLLRLLLLCkCHNkk",
"CLRRRRR!RR!R!!R!!!R!!RUDxxLURLDDLCBBCxBx",
"LL!RRLRRLRRLLR!!RU!!RRUCLALDLDUDLMBMddda",
"RR!!RLRRLLLCLR!!!!R!RRLDCkxjCDKBBkBkaakk",
"LRRRRRLR!LLLLRR!RRR!RLLLLaixCDLMBBBxkkaD",
"LLRRRLRRRRRRRRLLRRR!RLRRDkdxxKBChkBkaqaB",
"CLR!RRLRRRRLRRRRLRRRULRRDCxxCxCMkBkkakka",
"LRRR!RLR!!RLRRRRRRRLRLLRLxxkBadCkABddBkk",
"LR!!RR!!!!!RRRLCLRRRLLCLLLCxarkLBABdw0aw",
"LR!!!!~!!!~!RRLLRRLRRCLLRRCCCxkBAMBdwq0a",
"R!!~~~!!!!!!R!RLRRLRLLLLCRLLDACCDMBaqq00",
"R!!~~R!!RR!!!RLRLLRRLLLLCDDDBALCCBCABkak",
"!RR!!~!!!!!!!!!RRRRLLRCLLLLLCCLLDBBBDBkk",
"R!!!!!!!R!!!RR!RRLRRLLCLLLULCLHLDkBkkkkk",
"RR!!!!!!!RRR!!RRURLRRLLCLLLCDLLLDSDDBkBD",
"RRR!!R!!!!!R!!!!RRLRLCLCLLLLCLRLDDBDABBB",
"RLQ!!!R!!~!!!!RRRRLRRLCxCLRLLLRCBJVkkBkB",
"L!!Q!R!!!~~!!~!RRRRRLLDxLLRLRLLLhBnhkq9q",
"L!R!!!!!R!!!!!R!!RRRRRUCLRLLRLLxikBBa<,q",
"PPRW!R!!R~~!!!R!RR!RRRRLD!RRRLLLanSBk844",
"bHRW!!!!R~!!!!RRR!RRR!RLLRLLRRLRnknkcSfi",
"bPPP!!RR!!!R!!!RRR!RRRRRLRCCLRLLhBBSSSBa",
"KPJLRRR!!!R!!!RRRLRRRRRRLLLLLLCChBBSkkcw",
"KHbHRRRR!!!!RRLRRCRRRLRRRRLLLLCCxkkkhaa9",
"FFbbLPLRRLCLLLCRLLLRLLRRRLCxBCxdkaaqiaai",
"bzzbHHLVCxddxhxLLLLLCLLLLCCClxxhiqqaw9qi",
"lsslVCChxdxddd7CCCCCCCCCbxxxxxxdaq4q484a",
"6rrrgdVdddd77saddVxCCChddxisadq72<*--444",
"5e66syrii<7<77dddxxCxxdt7qiiaii<-**$$-4=",
";>>6r**<<7ii7iddxddiddq72<7iti7<<-4=#*+O",
"X@;&6<%##i7iiiiihdai7d7*<i7<777#$*2oOOo "
};
