/* XPM */
static char *_32d1ddfed2147caf9ff68a3f64dbd57hUVaOQ1TsHTdYaCI[] = {
/* columns rows colors chars-per-pixel */
"40 40 147 2 ",
"   c #14182E",
".  c #15182F",
"X  c #181A2F",
"o  c #161A31",
"O  c #181C31",
"+  c #1E1D32",
"@  c #1C1F33",
"#  c #191C34",
"$  c #1A1E34",
"%  c #1D213A",
"&  c #222134",
"*  c #222336",
"=  c #252436",
"-  c #2A2234",
";  c #21253B",
":  c #252838",
">  c #262939",
",  c #2E2838",
"<  c #2C2E3D",
"1  c #33273A",
"2  c #312D3D",
"3  c #302E3F",
"4  c #3F2E3C",
"5  c #49303D",
"6  c #4E313E",
"7  c #2E2B40",
"8  c #2A2E44",
"9  c #2D3146",
"0  c #2E344E",
"q  c #2B3E4F",
"w  c #383542",
"e  c #373943",
"r  c #373944",
"t  c #393B45",
"y  c #3A3C46",
"u  c #3B3D46",
"i  c #36374E",
"p  c #38354B",
"a  c #3D3F49",
"s  c #313653",
"d  c #333855",
"f  c #393A54",
"g  c #353B58",
"h  c #363B58",
"j  c #3A3F5D",
"k  c #3A3F5E",
"l  c #403140",
"z  c #423A47",
"x  c #453C4C",
"c  c #4D3849",
"v  c #593544",
"b  c #324356",
"n  c #315E73",
"m  c gray28",
"M  c #404149",
"N  c #444449",
"B  c #45464C",
"V  c #4D414A",
"C  c #4E424B",
"Z  c #494949",
"A  c #4A4A4D",
"S  c #48494F",
"D  c #4C4C4C",
"F  c #4F4F4E",
"G  c #53434C",
"H  c #50504F",
"J  c #4C4D51",
"K  c #4E4E51",
"L  c #444559",
"P  c #43435F",
"I  c #464958",
"U  c #574953",
"Y  c #505050",
"T  c #535353",
"R  c #545453",
"E  c gray33",
"W  c #565656",
"Q  c gray34",
"!  c #585857",
"~  c #585858",
"^  c #595958",
"/  c #5A5A59",
"(  c #5B5B59",
")  c #5B5B5A",
"_  c #5C5C5B",
"`  c #5F5F5E",
"'  c #694148",
"]  c #6D484E",
"[  c #70404B",
"{  c #7B5153",
"}  c #60605F",
"|  c #61615F",
" . c #404461",
".. c #464762",
"X. c #464863",
"o. c #525067",
"O. c #695861",
"+. c #675B68",
"@. c #685D6E",
"#. c #616160",
"$. c #636361",
"%. c #686866",
"&. c #8C5253",
"*. c #8E5554",
"=. c #9F5B58",
"-. c #A8605B",
";. c #945760",
":. c #816260",
">. c #8B606C",
",. c #9A6767",
"<. c #8D716F",
"1. c #97786F",
"2. c #8F7779",
"3. c #997576",
"4. c #967A7C",
"5. c #977B7D",
"6. c #B86C65",
"7. c #BA6F66",
"8. c #C17066",
"9. c #9C817F",
"0. c #BA907F",
"q. c #797C8B",
"w. c #418195",
"e. c #4FA4B8",
"r. c #9D8080",
"t. c #BD8B81",
"y. c #9FA8B5",
"u. c #ADAEB9",
"i. c #C59084",
"p. c #DA9580",
"a. c #E09983",
"s. c #E29C85",
"d. c #CEA190",
"f. c #D4A592",
"g. c #E5AF95",
"h. c #EBB498",
"j. c #EFB499",
"k. c #F1B799",
"l. c #F6B99B",
"z. c #F3B99C",
"x. c #FBBC9D",
"c. c #FDBF9F",
"v. c #FCC0A0",
"b. c #FFC2A1",
"n. c #C4C8D2",
"m. c #D5CDD5",
"M. c #D3D3DC",
/* pixels */
"Z F Y Y Y Y Y Y F Y Y Y Y Y Y Y Y Y Y Y H Y Y Y Y H F F F R H H D D D D D D Y D ",
"F $.` $.| | | | $.$.| | | | $.$.| | | | $.$.| | | ` ^ ` ` o.| ( ( ~ ^ _ ( ~ ^ F ",
"Y | ! ^ ^ ^ ^ ^ ^ ^ ^ ^ ^ ^ ^ ^ ^ ^ ^ ^ ^ ^ ^ ^ ^ ^ ^ ^ ( ! ! ! ^ _ ^ ( ^ ( ^ D ",
"Y | ^ ^ _ ^ ^ ^ ^ _ ^ ^ ^ ^ ^ ^ ^ ^ ^ ^ ^ ^ ^ _ ^ ^ ^ _ ( ! ( ( ( ~ _ ~ _ ~ _ D ",
"F $.^ ^ ^ ^ ^ _ ^ ^ _ ^ ! ` ^ _ _ ^ _ ^ _ ^ _ ^ ! _ ! _ ! ( ! ( ^ _ ~ _ ^ ( ^ D ",
"Y $.^ ^ ^ _ ^ ^ ^ ^ ^ _ E E ^ ^ ^ _ ^ ^ ^ ^ ^ ^ _ ! _ ! ( ( ( ( ( ~ ( ^ _ ~ _ D ",
"Y $.^ _ _ ^ _ ^ _ _ ^ ^ Y Z E ^ ^ ^ ^ ^ _ ! ^ ^ ! _ ! _ ! _ ! ( ^ _ ^ ( ~ ( ( D ",
"F | ^ ^ ^ ^ ^ ` E E _ ^ E R _ z t r t e t e t e N ! _ ! _ ! _ ! ( ~ _ ~ _ ^ ~ D ",
"K | ^ ^ _ ^ ^ $.F Z ^ ^ ` ^ E ; o o o # . # # # > E ! _ _ ( ^ ^ ^ _ ~ _ ~ ( _ D ",
"Y | ^ ^ ^ ^ ^ | F Z ^ ^ ^ S + i h h h h h h h h 0 % S ^ ! ( ^ _ ( ~ ( ^ _ ^ ^ D ",
"H | ^ _ ^ _ ^ _ ` ^ ` ^ I u % g k k k k h k k k s ; x J ^ ^ ^ _ ^ _ ^ ( ~ _ ~ D ",
"Y $.^ ^ ^ _ ^ ^ ^ ^ ^ ^ # % k k k k k k k k k  .b b % % _ _ ^ ^ ( ~ _ ~ ( ^ ( D ",
"Y | ^ _ ^ ^ _ ^ ^ ^ ^ ^ % % k k k k k k k k k b k k % @ ^ ^ ^ _ ^ _ ~ _ ^ ( ^ D ",
"Y | ^ ^ ^ _ ^ ^ ^ ^ ^ ^ % % k k k k k k k o.@.b k k % @ ^ _ ^ ^ ( ~ ( ^ _ ~ _ D ",
"Y | ^ ^ ^ ^ _ _ ` ^ ^ ^ X % b  .k k k k k r.z.o.k k @ @ _ ^ _ ^ ^ _ ^ ( ~ ( ( D ",
"Y | ^ ^ _ ^ ^ ^ ^ ^ ^ ` % % x b k k k k k r.c.f.d.f.z + ^ ^ _ ^ ( ~ _ ~ _ ^ ~ D ",
"Y #.~ ) ^ _ _ ^ ^ ( ^ ( % % k k k k k k j 2.g.g.h.b.C @ ! _ ! ( ^ _ ~ _ ~ ( _ D ",
"Y +.~ ^ ^ ^ ^ ^ ( ^ ( ^ @ # k k k k k k j f p p O.b.C @ ( ! ! _ ( ~ ( ^ _ ^ ^ D ",
"Y } ^ ) _ ^ ^ _ ^ ( ( ( @ % k k X.4.r.4.X.+.<.< U b.V X ( ! ! _ ^ _ ^ ( ~ _ ~ D ",
"D ( ^ ^ _ ^ ^ _ _ ^ ! ! @ 8 k b o.z.c.j.X.5.k.2 V x.V % _ _ ! ( ( ~ _ ~ ( ^ ( D ",
"D ( ( ( _ ^ ^ ^ ^ ^ ^ _ Q B o s o.z.a.6. .5.k.2 4 8.4 @ ! ( ! _ ^ _ ~ _ ( ^ ( D ",
"Y | ^ ^ ^ ^ _ ^ ^ _ ^ ^ _ Y r 8 s 4.t.p.r.f.x.3.:.' z u ! _ ( ! ( ~ ( ^ ^ ( ( D ",
"F #.^ _ ^ _ ^ _ _ ^ _ ^ ( ^ ~ > # h 4.l.c.l.k.k.0.o F ^ _ ! _ ! ^ _ ^ ( _ ( E N ",
"Y #.^ ~ ^ _ ^ ^ ^ ^ _ ^ ^ ( ^ > . # l ] 8.{ 7 7 w Y _ ! ! _ _ ! ( ~ _ ^ _ ^ F Z ",
"Y $.^ ^ _ ^ _ ~ ^ _ ~ _ ~ ( ^ > # L x 5 =.' 1 L I K E ^ ^ ^ } ^ ( ( ~ ~ ^ ^ D m ",
"F ^ ( ~ ~ ( ^ ( ( ~ ( ^ _ ^ ~ : 9 M.q.X 6 [ ;.m.u.  K ^ ^ ^ ^ ^ ~ _ ( _ _ ^ m D ",
"D ( ^ _ ( ~ _ ~ ^ _ ^ ( ~ _ ~ > 7 v.i.&.- v ;.m.u.  S ^ ` ^ ^ ^ ^ ( ( ~ ~ ~ Y m ",
"D ^ ( ^ ^ _ ^ ( ( ~ _ ~ ( ^ ( > 9 h.s.7.+ c >.n.y.  S ^ ^ ^ ^ E ~ ~ _ ( ( ( ( D ",
"Y _ ^ ( _ ^ _ ~ ^ _ ~ _ ^ ( ( > < k.v.k.* n e.e.w.  J ( ^ ^ ` Q _ ~ ^ ( ~ ( _ D ",
"F ^ _ ~ ~ ( ^ ( ( ~ ( ^ _ ^ ( m N V G G *.,.3.b q S E ^ ( ^ ( ^ ( ~ _ ~ ( ( ~ D ",
"D ~ ^ _ ^ _ _ ~ ^ _ ^ ( ^ ~ E T J * % = =.-.=., < ~ ` Q ^ Q ^ ^ ( ( ( _ _ ~ ^ D ",
"D ^ ( ~ _ ^ _ ( ( ~ _ ^ _ E D ( ^ E E Y * + * K E ^ ^ ^ ( ` ^ ^ ~ ^ ^ D ^ ^ ~ D ",
"D ( ^ ( ( ( _ #.^ ~ ^ ^ ~ ~ ( _ ( _ ~ ^ r r u ~ Q _ ^ ( ( E m E ( ^ ~ E ~ ( ( D ",
"Y #.~ ^ ~ _ ~ ^ ( ( ^ ^ ( ( ^ %.( ~ ^ _ ^ ( ~ _ ^ ^ _ ^ ^ ^ Y ^ _ Q _ ^ ~ ( _ D ",
"Y _ ^ _ ~ ^ ( ( _ _ ~ ~ _ ( _ #.^ _ ~ ( ( ^ _ ^ ^ ( ~ ( _ ~ _ ( ~ ^ _ ^ ( ( ^ D ",
"Y ( ~ _ _ ( ~ ~ ~ ^ ( ( ~ ~ ( ~ ~ _ ( ( ^ ( ~ ( _ ~ _ ^ ^ ( ~ ~ _ _ _ _ ~ ~ _ D ",
"F #.^ ( ~ ( ^ _ ~ _ _ ( ^ ( ( ~ ( _ ~ ~ ~ ( _ ^ ~ ( ^ _ ~ ( ^ _ ( ~ ~ ( _ ~ ~ D ",
"F } ^ ( ~ _ ~ _ ( ^ ~ ~ _ ~ _ ( ~ ( ^ _ ( ( ~ ~ _ ^ ( ~ _ ^ ( ~ _ ( ( ( _ ^ _ D ",
"Y #.^ ~ ( ( ~ ( ( ~ ( ( ~ _ ~ ^ ~ ( _ ^ _ ~ ( _ ~ ( ^ _ ~ ( ^ _ ~ ^ _ ~ ~ ( ( D ",
"Y ~ D D D D D D D D D D D D D D D D D D D D D D D D D D D D D D D D D D D D D Z "
};
