/* XPM */
static char *_e8830957902497bb04d2febf9904fefQTItpkALaO1Nn1va[] = {
/* columns rows colors chars-per-pixel */
"40 40 79 1 ",
"  c #14182E",
". c #181C30",
"X c #221F2E",
"o c #22202F",
"O c #222332",
"+ c #252230",
"@ c #222433",
"# c #222533",
"$ c #252835",
"% c #252839",
"& c #2F2C38",
"* c #2F313C",
"= c #4E342F",
"- c #4E3530",
"; c #4E3531",
": c #4E3A34",
"> c #4E3A38",
", c #4E473E",
"< c #404042",
"1 c gray28",
"2 c #494446",
"3 c #4B4547",
"4 c #4E4B42",
"5 c #4E4D43",
"6 c #4C4B45",
"7 c #4D4C46",
"8 c #43444A",
"9 c #484848",
"0 c #494949",
"q c #4B4B4B",
"w c #48484C",
"e c #48494E",
"r c #4C4C4C",
"t c #4D4D4C",
"y c gray30",
"u c #4F4F4E",
"i c #505050",
"p c #525251",
"a c #535353",
"s c #525254",
"d c gray33",
"f c #565655",
"g c #555656",
"h c #565656",
"j c #585857",
"k c #595958",
"l c #5A5A59",
"z c #5B5B59",
"x c #5C5C5A",
"c c #5C5C5B",
"v c #5F5F5E",
"b c #60605F",
"n c #61615F",
"m c #636361",
"M c #686866",
"N c #9C5B33",
"B c #9D5C34",
"V c #BA6832",
"C c #C46C31",
"Z c #C47135",
"A c #E27B32",
"S c #C47F40",
"D c #F08132",
"F c #F08737",
"G c #FF8F38",
"H c #9C9460",
"J c #BAAF6A",
"K c #F09945",
"L c #C4A55E",
"P c #FFA247",
"I c #C4B36A",
"U c #C4B86D",
"Y c #F0C86A",
"T c #FFD46F",
"R c #E2D478",
"E c #F0DA79",
"W c #F0E07D",
"Q c #FFE77E",
"! c #FFEE83",
/* pixels */
"0uiiiiiiiiiiiiiiiiiiiiiiiiuuiiuuueuu0uu0",
"umvmnnnnnmmbnnnmmbnnmmnmvbjbbbbjckjjxjcu",
"injkkkkkkkkkjkkjkjjjkkkkjjkxkkjjckkkkkku",
"inkkckkkckkckkkckckkkckkjjcjkckjkkcckcce",
"umkkkkkccjkkjcjzkckkckkckcckkkckckkkkkku",
"imkkkckkkjckjjjjxjckckkckkkkckckkkckckk0",
"imkcckckjxkju9gjxckkkkkkckkckckkkckckkcu",
"unkkkkkvjacxaanjjjkckcckckkckkkckckkkck0",
"ivkkkckmu0kkccjzjzjccjjbkkkkcckkkkkvkkku",
"imkkkcknu0kkjjjcccjzjjbMkcckkkkcvkkkkkku",
"imkkkkckckckg8%.        .%egkkkckkkkkkke",
"imkkckkkkkckge%.        .%egcckkkkvkvkku",
"inkkckkckcggse*$########$*eaggkkkkkkkkku",
"inkkckkckkeeee757555555577<0eekckkvknkk0",
"inkkkkkkcc%%*7HJUUUUUUUUJH7*%%kckvkvjkcu",
"inkkkcckkk..$5JRWWWWWWWWRJ7%..kkkkkkkkk0",
"unjjjcjckk  O7J!!!!!!!!!WU5#  jcckkkckju",
"injccjcjck  O7JE!!!!!!!!WU5#  jjkkckckju",
"imjjjcjcjc  #7U!!!!!!!!!WU5#  cjkckckkke",
"uccjcjcjcj  #5UE!!!!!!!!WU5#  czkckkkccu",
"uxjxjcjcjc  @7IEQQQQQQQQEI4#  jjkckkckgu",
"ubjjcjcjcj  X4LYTTTTTTTTYL,#  zckckckkku",
"injcjcjcjc  X:SKPPPPPPPPKZ:o  jckkckkvi0",
"imjkcjcjcj  X;CFGGGGGGGGFZ=#  zjckjkkku0",
"ibkkkkckll..+;VADDDDDDDADV;#..jzkkcckke0",
"uxxkkckkll%%&>NVCCCCCCCCVB:&%%jxckkkkk00",
"rxkxckcklleee2>;====----:>8eeekkckckcci3",
"ugkkkkkckkkase&+XXXXX+XoO&wiggjjkkkkkkki",
"ukkcckckkxkkjw%..       .%egjkckkkxxckke",
"ivkkkkkckxkxge%.        .%egckckxkkkkkcr",
"uhkckxkkkkxkzjjuizxxckkkkcckkkkkxkkkkckr",
"rkkkckccxkkxxatjjzzxkkcckkkkcckkkkkikkku",
"uhckkkcbkcckxkxkkkkkckkckkkclgwgxkkskkxr",
"ivkcckkkkcskkxkMccckckkckckkkkiaxjkxkxkr",
"uckkkckckckkkccbkkckkkkkckckckcckkkxkkkr",
"icckkkckkkckkkckckkkkcckkkckkkkkxkxbkxkr",
"ivkkkxkkjcckkckkkkxckxxkkcckkcckkkkkckkr",
"ibkcxkxjxkjjckckxkkkkkkjkkkkkkkkkcckckki",
"ivkhjgckxjjxkkkckkjjxkjxckkkckkkkkkkkkkr",
"ikurururuueureurrururuerrrrurrrurrurrure"
};
