/* XPM */
static char *dbf08044846944308677e965209f768dxB8BnGYneZ5Xi6po[] = {
/* columns rows colors chars-per-pixel */
"40 40 43 1 ",
"  c None",
". c #14182E",
"X c #14192E",
"o c #14182F",
"O c #221E2E",
"+ c #221F2E",
"@ c #22202F",
"# c #222332",
"$ c #222433",
"% c #222533",
"& c #4A312F",
"* c #4E332F",
"= c #4E342F",
"- c #4E3530",
"; c #4E3A34",
": c #4E473E",
"> c #4A4941",
", c #4E4B42",
"< c #4E4D42",
"1 c #4E4D43",
"2 c #A05C30",
"3 c #BB6931",
"4 c #C46C31",
"5 c #C47135",
"6 c #E37B32",
"7 c #C47F40",
"8 c #F08132",
"9 c #F08737",
"0 c #FF8F38",
"q c #A09860",
"w c #BBB16B",
"e c #F09945",
"r c #C4A55E",
"t c #FFA247",
"y c #C4B36A",
"u c #C4B86D",
"i c #F0C86A",
"p c #FFD46F",
"a c #E3D478",
"s c #F0DA79",
"d c #F0E07D",
"f c #FFE77E",
"g c #FFEE83",
/* pixels */
"                                        ",
"                                        ",
"                                        ",
"                                        ",
"                                        ",
"                                        ",
"                                        ",
"                                        ",
"                                        ",
"                                        ",
"              ooooXXoooooo              ",
"              ooooXoooooXo              ",
"              %%%%%%%%%%%%              ",
"              ><<<<<1<11<>              ",
"          oo%>qwuuuuuuuuwq>%oo          ",
"          oo%<waddddddddaw<%XX          ",
"          oo%<udggggggggdu1%oo          ",
"          oo%<udggggggggdu1%oo          ",
"          Xo%1udggggggggdu<%oo          ",
"          XX%1udggggggggdu1%oo          ",
"          Xo%<ysffffffffsy,#oX          ",
"          oo%:rippppppppir:%XX          ",
"          oo%;9etttttttte5;@oo          ",
"          ..%%390000000095=+oo          ",
"          oo@=368888888883&+oo          ",
"          oo+&234444444432-+..          ",
"              &&========;-              ",
"              ++O@O@O@OO@X              ",
"              ooX...oooXoo              ",
"              ooX...ooXXoo              ",
"                                        ",
"                                        ",
"                                        ",
"                                        ",
"                                        ",
"                                        ",
"                                        ",
"                                        ",
"                                        ",
"                                        "
};
