/* XPM */
static char *_7e383fc5b9d4336be6d395b89c8d459qDs1bANIkT6sL6j4[] = {
/* columns rows colors chars-per-pixel */
"40 40 200 2 ",
"   c #3D484E",
".  c #2D4B5D",
"X  c #3F4A51",
"o  c #344E5D",
"O  c #38515F",
"+  c #324E60",
"@  c #365263",
"#  c #395565",
"$  c #3B5967",
"%  c #3C5A6B",
"&  c #3E5E70",
"*  c #3A647A",
"=  c #4A4B4B",
"-  c #4E4C4C",
";  c #504E4C",
":  c #57534F",
">  c #444C51",
",  c #4D5052",
"<  c #565451",
"1  c #5A5652",
"2  c #5D5955",
"3  c #635C55",
"4  c #65635E",
"5  c #4D5B63",
"6  c #525E64",
"7  c #405F70",
"8  c #47606E",
"9  c #556266",
"0  c #57656C",
"q  c #59666C",
"w  c #426274",
"e  c #496777",
"r  c #436679",
"t  c #456A7D",
"y  c #4A6B7C",
"u  c #536C77",
"i  c #5B6C74",
"p  c #5F737D",
"a  c #696663",
"s  c #6E6B69",
"d  c #716B62",
"f  c #716D6A",
"g  c #73726F",
"h  c #626E74",
"j  c #647177",
"k  c #65747A",
"l  c #767371",
"z  c #797573",
"x  c #7C7A76",
"c  c #7C7A78",
"v  c #DC3236",
"b  c #DC343A",
"n  c #E3343C",
"m  c #E2363C",
"M  c #DC3D42",
"N  c #E33B42",
"B  c #DB474B",
"V  c #D74C51",
"C  c #D84D50",
"Z  c #D85559",
"A  c #DC5A5E",
"S  c #E14147",
"D  c #D05F62",
"F  c #DC5D61",
"G  c #CF6265",
"H  c #CF6D6E",
"J  c #D16264",
"K  c #D6676A",
"L  c #DC6A6D",
"P  c #CF7272",
"I  c #DC7376",
"U  c #D57C7C",
"Y  c #87837D",
"T  c #3F6B84",
"R  c #4C7285",
"E  c #49748C",
"W  c #50758A",
"Q  c #57798A",
"!  c #6A7B82",
"~  c #727F82",
"^  c #6D848D",
"/  c #75858D",
"(  c #608192",
")  c #6A8692",
"_  c #738A93",
"`  c #7A8C92",
"'  c #738D99",
"]  c #76919B",
"[  c #7D959E",
"{  c #868682",
"}  c #888682",
"|  c #8B8A84",
" . c #878E8F",
".. c #8E8E8C",
"X. c #928E88",
"o. c #8C908F",
"O. c #93918E",
"+. c #98948B",
"@. c #868E92",
"#. c #8D9493",
"$. c #81959C",
"%. c #8B9699",
"&. c #8C999C",
"*. c #919695",
"=. c #989590",
"-. c #959996",
";. c #9B9A95",
":. c #909698",
">. c #949B9B",
",. c #9B9D9A",
"<. c #A39E96",
"1. c #A39F9A",
"2. c #9CA19E",
"3. c #A7A296",
"4. c #A4A29D",
"5. c #A9A59B",
"6. c #939FA0",
"7. c #97A2A3",
"8. c #9DA4A2",
"9. c #91A3A9",
"0. c #A4A6A2",
"q. c #A9A7A3",
"w. c #A6A9A5",
"e. c #ABABA6",
"r. c #A5ABAB",
"t. c #ADADAA",
"y. c #B2AFA7",
"u. c #B1AFAA",
"i. c #ACB1AE",
"p. c #B2B1AC",
"a. c #B9B5A9",
"s. c #ADB2B0",
"d. c #B3B4B3",
"f. c #B5B9B6",
"g. c #BAB9B5",
"h. c #B6BBB9",
"j. c #BBBDBB",
"k. c #D78485",
"l. c #DA8A8B",
"z. c #CA9694",
"x. c #D59595",
"c. c #CCA39F",
"v. c #D3A19E",
"b. c #CAA4A2",
"n. c #CBA9A7",
"m. c #C9ACA9",
"M. c #D5A9A7",
"N. c #CFB3B1",
"B. c #C2BEB6",
"V. c #CEB8B6",
"C. c #C2BFBA",
"Z. c #CEBEBB",
"A. c #D2B3B1",
"S. c #BDC1BE",
"D. c #C5C1B6",
"F. c #C2C2BC",
"G. c #CDC6BA",
"H. c #D0C2BF",
"J. c #D2CBBC",
"K. c #BEC3C2",
"L. c #C4C5C3",
"P. c #CCC6C3",
"I. c #C7C9C6",
"U. c #CBCAC5",
"Y. c #C4C5C9",
"T. c #C7CCCA",
"R. c #CCCDCB",
"E. c #D0C4C1",
"W. c #D1CFCA",
"Q. c #C7D1CC",
"!. c #CDD2CE",
"~. c #D1D0CD",
"^. c #D3D2CD",
"/. c #CCCDD1",
"(. c #CBD5D1",
"). c #C9DAD5",
"_. c #CCDAD5",
"`. c #D2D2D1",
"'. c #D3D4D3",
"]. c #D5D5D3",
"[. c #D5D5D4",
"{. c #D6D7D7",
"}. c #D7D7D7",
"|. c #D7D8D6",
" X c #D8D8D6",
".X c #D9D9D7",
"XX c #D8D8D8",
"oX c #DADAD9",
"OX c #DADADA",
"+X c #DCDDDC",
"@X c #DEDEDE",
"#X c #C9E1DB",
"$X c #DDE1DF",
"%X c #E0E1DF",
"&X c #DDDEE1",
"*X c #DDE3E1",
"=X c #E1E1E1",
"-X c #E3E3E3",
";X c #E5E5E5",
":X c #E8E8E8",
/* pixels */
"L.R./.{.XX`.`..X[.XXXXXX+X+XXX+X&X&X=X=X&X&X@X}. X`.{.}.`.`.{.`.'. XW.W.[.R.R.R.",
"R.R.`.XX{.{.XXXX[.P.j.L.L.L.P.L.T.U.U.U.U.R.P.Y.L.L.L.L.L.F.j./.[.[.`.`.'.[.R.^.",
"T.`.{.XX X+X@X@X^.O.f g l l l l z c c c x x x x x z z l l f f t.[.+X X{.'. X'. X",
"`.XXXXXX+X=X@X=X|.+.4 3 3 2 2 3 2 2 2 2 2 2 2 2 2 2 1 1 1 1 a d.+X+X X X'.'.+XW.",
"@XXXXX}.+X@X@X;X%X^.3.X.X.| X.| ..| | | | | | | } { { { Y } q.XX@X+X+X@X+XXX X{.",
"@X@X@X{.@X=X=X;X:X%XJ.G.D.S.D.D.C.F.L.F.L.L.F.F.C.C.C.C.C.F.R.&X&XXX+X+XXX{. X.X",
"W.@X@X@X+X=X;X;X%X%X^.^.U.U.U.U.R.P.P.P.P.P.P.U.R.R.W.U.W.^.`.=X@X+XXX+X X.X X.X",
"{.{.XX@XXX@X;X;X%X%X^.^.U.U.U.U.R.A.l.l.l.l.M.R.W.W.W.W.W.{.}.&X@X+X+XXX X X X X",
"@X+XW./.Q.!.].`.(.`.^.^.U.W.U.U.(.l.N B B N I (.R.R.W.`.W.XXW.U.!.T.I.I.R.R..X'.",
"@X+X0.=.+.+.+.O.| 1.^.^.W.U.U.W.(.U n U k.n L !.!.W.^.W.^.XXd.| | ....O.O.;.'..X",
"+X+X1.d 4 4 3 1 ; x W.^.W.U.U.R.(.k.N N.R.S L (.!.!.^.^.^.$Xq.: : 4 4 4 s Y .X.X",
"&X=X+X<.X.Y Y x d X.W.].(.(.!.!.#Xk.N N.P.N I _.(.'._._.^..Xi.l x | X.O.=.g.].].",
";X=X%XJ.m.5.5.5.+.3.W.^.U.J.P.P.W.I n A.P.N F P.H.H.H.J.^.XXg...,.4.2.t.D.U..X.X",
"=X;X%XJ.a.~ ! 2.5.5.].A.L A A A F N b A.P.M N F A A Z K M.@Xg.=.w.@.k 7.J.U.].*X",
"-X=X@XJ.y.y y 2.3.5.`.M.m V G G J J J V.P.J D D J D V b x.$XS.-.w._ * [ U.U.].XX",
"XX=X+XH.y.y W 2.3.5.].M.m l.V.N.N.N.N.P.U.N.A.A.A.V.l.m x.$XS.;.w.] T [ G.T..X].",
"%X-X$XG.y.^ ) 4.3.4.^.M.n L l.l.l.l.l.Z.E.l.l.l.l.l.L n x.*XK.>.w.[ ( 9.G.T..X|.",
"%X;X$XD.a.-.-.4.<.5.!.A.Z B V C C M b A.P.B b V V V B V x.*XS.-.w.7.&.r.S.L.`.].",
"-X;X$XD.e.k k 7.4.4.U.J.n.c.c.b.n.K b N.P.M Z m.n.b.b.n.H.$XS.-.w.` u $.F.U.T.[.",
"-X:X$XD.4.y t >.<.4.U.R.!.!.!.Q._.k.b N.P.M K _.(.!.(.`.^.|.S.-.w._ * [ F.K.Q.^.",
";X;X%XD.w.Q R >.<.4.U.U.U.U.U.U.(.U v N.G.M J Q.T.U.U.!.!..XS.;.w.' E [ S.L.]..X",
":X;XXXD.e._ _ 2.<.4.U.U.G.U.L.U.(.U v z.b.b J Q.T.U.T.U.!.|.g.-.w.$.) 9.S.L..X.X",
";X:X$XD.y.-.#.4.;.4.U.R.U.U.P.U.(.k.v V Z v H T.U.U.U.U.!..Xh.-.8.7.&.r.S.K..X.X",
";X;X$XD.e.i u -.3.4.U.H.L.U.L.I.Q.c.P H H P z.T.I.I.T.U.~..Xh.-.4._ e [ S.L..X$X",
"=X;X@XD.0.t R &.<.4.U.U.U.I.L.P.I.Q.(.(._.(.R.Y.L.F.L.U.R.|.h.-.w.) * [ K.K.@X@X",
"=X%X@XD.w.Q Q >.4.4.U.U.U.U.U.P.U.U.T.T.T.R.I.L.L.U.P.R./.].h.-.8.' E [ K.K.XXXX",
"=X:X@XF.i.` ' 2.4.4.U.~.U.R.R.U.U.U.P.P.L.L.L.P.U.L.T.R.R.{.h.*.8.&.' 9.S.S.T.(.",
"=X:XXXF.y.o.@.0.4.q.~.L.a.p.u.t.e.e.t.t.e.e.t.e.e.e.u.t.d.^.h.-.8.>.[ 8.S.S.T.T.",
"*X=XXXF.e.i u 2.w.w.R.e.l f f f s f f f f s s s s f f a f j.h.*.8./ e [ j.S.R.R.",
"XX$X+XD.w.y E >.w.w.U.;.1 - ; ; - - ; - ; - ; ; ; - ; = < i.f.-.8.) * ] j.K.].`.",
"+X@X+XF.e.Q Q 7.4.w.L.4.s =   X > > = > > X , >   X X > a d.s.*.8._ R $.h.S..X|.",
"&X=XXXD.p.%.&.8.0.w.L.d.| 6 $ & $ 5 5 $ % % 9 5 $ % # 5 z h.s.*.8.>.$.9.h.h.{.`.",
"&X&X[.j.t.~ ~ 0.0.q.L.g.=.h t R R 0 u R T w h i T R & i | j.s.*.6.@.k &.h.h.`./.",
"&X&X'.F.q.7 7 -.0.0.L.g.;.h w r r h i w r w ! i & w w i o.j.s.&.1.! . ) h.h.[.`.",
"&XXX/.C.0.7 7 6.0.0.L.g.;.h 7 w & h i & w 7 j i % & % i ..K.s.#.>.! . ^ h.f.`.`.",
"`.[.R.g.0.u y :.1.w.L.h.,.h % % % h q % % % j q @ % # 0 O.F.s.#.>.! % / h.d.R.W.",
"Y./.Y.g.t.&.:.1.1.6.Y.g.1.h @ # + h 6 # # # h 0 + @ + q O.F.t.@.,.:.%.6.d.d.W./.",
"/./.Y.d.u.u.t.q.,.0.C.g.;.h O O + h q + @ O h q . + o q O.j.t...-.r.r.r.s.d.R.Y.",
"Y.Y.Y.h.g.d.i.s.t.d.U.L.u.:./ / / *.:.~ / / :.@.! ~ ~ @.t.Y.j.t.t.t.d.d.t.h.Y.F.",
"h.K.Y.Y./.R.Y.F.F.`.`.`.`.`.`.`.{.{.{.`.W.]./.Y./.`./././././.F.L.Y.R.C.F.j.j.d."
};
