/* XPM */
static char *ea1dc13588fc4109c034275c0f5180a2JLscP8wbhk9Okpnu[] = {
/* columns rows colors chars-per-pixel */
"40 40 48 1 ",
"  c None",
". c #2F2F2D",
"X c #2F2F2E",
"o c #2F2F2F",
"O c #30302D",
"+ c #30302E",
"@ c #383431",
"# c #393531",
"$ c #3B3533",
"% c #3C3632",
"& c #42372E",
"* c #43372E",
"= c #553E2E",
"- c #563F2E",
"; c #413935",
": c #423A34",
"> c #483D35",
", c #483D37",
"< c #4B3F37",
"1 c #4B3F38",
"2 c #5D4432",
"3 c #54443B",
"4 c #54443C",
"5 c #5D4A3A",
"6 c #5D493C",
"7 c #644A36",
"8 c #644A38",
"9 c #6C503C",
"0 c #775236",
"q c #7E573A",
"w c #745742",
"e c #835432",
"r c #8A5936",
"t c #8B5936",
"y c #925E3A",
"u c #99643E",
"i c #865E40",
"p c #885F42",
"a c #9A6540",
"s c #A16A44",
"d c #A16B44",
"f c #A26C46",
"g c #A9714A",
"h c #D67941",
"j c #D7B84D",
"k c #B0AAAA",
"l c #C6C4C4",
"z c gray87",
/* pixels */
"                                        ",
"                                        ",
"                                        ",
"                                        ",
"                                        ",
"                                        ",
"                                        ",
"                                        ",
"                                        ",
"                                        ",
"             ++          ++             ",
"            5ww6        5ww6            ",
"           +8fg9       +8fg9            ",
"           +=tu7o+++++++=tu7            ",
"           +=tuiwwwwwwwwpau7            ",
"           +=tudgggggggggdu7            ",
"           +2raq777777770yu7            ",
"           +=ru8oooo.oo.=tu7            ",
"          4%=rurwwwwwwwwpuu7%4          ",
"         43%=rudgggggggggsu7;33         ",
"        433%=tuq777777770yu7;333        ",
"       433:#=et2.o.o.o.o=et2@;33        ",
"        3+++*==*o.o.o.o.&2=*oo+,        ",
"         .oo.o+..o.o.o.o...oooo         ",
"           oooooo.ooo.oo..ooo           ",
"              oo.ooo.ooo..              ",
"       h                                ",
"      hjh                               ",
"      zoz                               ",
"      kzl                               ",
"      kll                               ",
"     kllkk                              ",
"     llkllk                             ",
"                                        ",
"                                        ",
"                                        ",
"                                        ",
"                                        ",
"                                        ",
"                                        "
};
