/* XPM */
static char *_a593c0d75b64fa1e030ab4108bcdcd05kkKvXHcBqwz9ssf[] = {
/* columns rows colors chars-per-pixel */
"40 40 73 1 ",
"  c #2F2F2E",
". c #393531",
"X c #3A3A37",
"o c #393938",
"O c #393939",
"+ c #42372E",
"@ c #553E2E",
"# c #423A34",
"$ c #4C443E",
"% c #4C443F",
"& c #5D4432",
"* c #54443B",
"= c #644A36",
"- c #644A38",
"; c #6C503C",
": c #775236",
"> c #7E573A",
", c #414140",
"< c #434343",
"1 c #444443",
"2 c #454543",
"3 c #464645",
"4 c gray28",
"5 c #494949",
"6 c #4B4B4B",
"7 c #4C4C4C",
"8 c #4D4D4C",
"9 c gray30",
"0 c #4F4F4E",
"q c #554942",
"w c #5C4E41",
"e c #5C4D43",
"r c #574F49",
"t c #564E4A",
"y c #50504F",
"u c #505050",
"i c gray32",
"p c #535353",
"a c #545452",
"s c gray33",
"d c #555555",
"f c #565656",
"g c #585451",
"h c #585857",
"j c #595958",
"k c #5A5A59",
"l c #5B5B59",
"z c #5B5B5A",
"x c #5C5C5B",
"c c #5E5E5D",
"v c #5F5F5E",
"b c #745742",
"n c #60605F",
"m c #61615F",
"M c #616160",
"N c #636361",
"B c #676765",
"V c #686866",
"C c #835432",
"Z c #8A5936",
"A c #8B5936",
"S c #925E3A",
"D c #99643E",
"F c #865E40",
"G c #9A6540",
"H c #A16B44",
"J c #A26C46",
"K c #A9714A",
"L c #D67941",
"P c #D7B84D",
"I c #B0AAAA",
"U c #C6C4C4",
"Y c gray87",
/* pixels */
"50uuuuuuuuuuuu0uuuuuuuuuu06uy000677666u6",
"0NvNmmmmNNnnNnNnmmmmmmmmvNjvmnvjjxxxxjxi",
"umhjjjjjjjjjjjhfjfjhjjjjfjjjjjjjjjxjjjj6",
"umjjxjjjzjzjjjjvjjvjjzzjzzjzvjzjxjjjjxx6",
"0Njjjjjxjzjzjzjzxjjzjzjzjzjzjjjzjjxxxhh6",
"uNjjjxjjjjzjjfjjzjzjzjzjzjzjjjzjxjjjjhx6",
"uNjxxjxjvjjz03fjjzjzjzjzjzjzjzjzxjjjjxxu",
"0mjjjjjvufzzufxzzjzjzjzjzjzjzjzjjjxxjjh6",
"uvjjjxjN05jjjxjjjzjzzjjvjzjzjzjzxjjjxjju",
"uNjjjxjm05jjhfjzzjzjjjvVzjzjzjzjjjxjxjj7",
"uNjjjjxjvjxj0$20jzjzzjjju2<0jzjzjxjxjjj7",
"uNjjxjjjjjjuebbe0jzjzhj0ebbwujzjjxjjjxx7",
"umjjxjjxjjj3-JK;1zjzjfz3=JK;<zjzjxjjjxh6",
"umjjxjjxjjj<@AD=O3<334<O&AD=<jzjjxjxjjj6",
"umjjjjjjvjj3@ADFbbbbbbbbAGD=<zjzjjxjxjhu",
"umjjjxxjjjj3@ADHKKKKKKKKKGD=<jzjxjjjxjh6",
"ymhjxxxhxhh,&AD>========:DG-4zjzzjzjzjju",
"ymhxhhjlhxh$@AD=        &CG-2jzjjzjzjzj7",
"ymhxjxjxxau$@ADAbbbbbbbbAGG-$0ajzjzjzjz6",
"8chjxhxxaq*.@ADHKKKKKKKKKDG&.*qajzjzjzjt",
"6xjjzjzaq**+@AD>========:DD=#***ajjjjjh0",
"tmjjjzju*$#.@CA&        @CA&.#$*txjxxxh6",
"0Njxzjja$.  .@&+        .@&.  .$hhjjjxs5",
"uNjjjzjhtO                    Oujjxxjj65",
"uNjxjjjxj02X                X20jjxjjjj65",
"0hjjjxjjzjzy<2O          X420jjjjxjxxj55",
"6jxxxjxLjzzjhhy2<222<24<%azfzjjjjjjxjju5",
"6jjjjjLPLzjzhxjxjjjzjjjzjfzzjzjfjxjjjxju",
"0jxjjjY Yjzjfzhzzzjzzjzjzjzjzjzjjxjjxhh6",
"uvjjxjIYUzjzzzxdyczjjzjzjzjzjzjzjxjxjhxu",
"6jjxjxIUUjjzzfau0zjzzjzjzjzjzjzjjjhhjxx6",
"0jjxjIUUIIzjzf8znjzjjzjzjzjzjzjjxjhujjh6",
"6jjjhUUIUUIhxhxhxhjjxjjxjjjxxd5sxxjujxj6",
"unjxxhxhhnfhhxnVxjxjxjjxjxjjjjudhjhxjjju",
"0xjjhxhxjxhxxjjnxjjjjjjjxjxjjjxjxjxxjxh6",
"0vjxxhxhjjxhjjjjjjxxjxxjjjxjxjjxhhjnjjx6",
"unjjjjjxjjjxxhxhxjjjjxxjjxjjxjjjxhjxjjju",
"unjjxjjjxxjjhxhxjjxjjjjhjjxhxjxjhxjxjxj6",
"unjhjhhjjjhhjjxhjxjjxjhxxhhhjhxjxhhhjjj6",
"uh5uu0066006u66u660660606u6uu666u6u60606"
};
