/* XPM */
static char *b9090489e06a4282c8cf6ef34e2097b680QQQpcBpdEPL8qO[] = {
/* columns rows colors chars-per-pixel */
"40 40 19 1 ",
"  c gray28",
". c #494949",
"X c #4C4C4C",
"o c #4F4F4E",
"O c #50504F",
"+ c #505050",
"@ c #545453",
"# c gray33",
"$ c #555555",
"% c #575756",
"& c #585857",
"* c #595958",
"= c #5C5C5B",
"- c #5F5F5E",
"; c #61615F",
": c #636361",
"> c #676765",
", c #686866",
"< c #696967",
/* pixels */
".o+++++++++o++o++oo++++++oXoo+ooXXXXXX+X",
"o:-:;;;;:::;-:::::-::::-:-*-:--*=****==+",
"+;&*********************$**-****=*****=X",
"+;**=*****************=***********===**X",
"o:*****=***-*&*-=**=**=*-*******=******X",
"+:***=**-****$**=**=*=*****-*-****=*==*X",
"+:*==*=*****o $*******==****-*-**=*=**=X",
"o;*****-$+:*+$*-*==*=************=***=*X",
"+-***=*:o.**-****==****--********=***=*X",
"+:***=*;o.************->***-*-***=*=**=X",
"+:****=*=*=**$-*=**=*-*-****-*-***=*==*X",
"+:**=*****=****==****$***-******=******X",
"+;**=**=*=**=***=***&$***&&-**-***===**X",
"+;**=**=**=*=*=*-=*=&--*--.*****=*****=X",
"+;******==*********=**-o+=$*****=****=*o",
"+;***==****=*==*==***$-$+**-***-**==***X",
"o:**-***-**********=*=*****=***==***=**o",
"+:*****-***-*-***=***=*==**=*=****=*=*$o",
"+:************-*=*=***=*****=*=**=*=***.",
"o**-*********-****=*=****==***=**=***==o",
"X*******-*****-**=**=**=*==***=**=****-.",
"o:***-*-***-******=*=**=****=*=**=*=**&o",
"o:*=**-*****-***==******=**=*=****-*-*+.",
"+:*******-*****-***=*==*=**=***==&&$-*o.",
"+:**-************==*=**********=**==**..",
"o$*****-*-*-**********=*:<;**=**=&****..",
"o*********-*-***=**=*=*=*:-*=*=*-&*===+.",
".*-**-*********-=**=***=*******$$=*****o",
"o*********-*****=**==******=**=*&=**=**X",
"o:*-*-********-#+=****=*==**=*=*&-*=**=X",
"X***-*-*-*****#o+==**=*=**=*****$*$-*=*o",
"o***&*$-****-$o==*=**=***=**==**-*&o$**X",
"X****-*:***-&**=****-********$ #*-*+$-$X",
"+-********$$*=-<-******-*-**-*+$****=**o",
"+*******-****=&-********-*-***-****:-&*X",
"o-*--******-****-****-*************-***X",
"+-**-&*-***$==*****-******-***-*****-**o",
"o:*******&--***=-*****-**********-****$X",
"+:&**&***-***$*=*****-**-***-*********=X",
"+$o.+oXXXX.oOo.oXXXXXXXXXXXXXXXXoXoXoXXX"
};
