/* XPM */
static char *_53a903af9a44ee9a3417c14acf09ee78hRMxBbYX8Qa9FTZ[] = {
/* columns rows colors chars-per-pixel */
"40 40 109 2 ",
"   c #14182E",
".  c #181C30",
"X  c #1C1F32",
"o  c #2D1D2F",
"O  c #261A30",
"+  c #2A1C30",
"@  c #3A1D33",
"#  c #1D2033",
"$  c #272233",
"%  c #242034",
"&  c #242738",
"*  c #3B2337",
"=  c #3C2337",
"-  c #421F34",
";  c #482330",
":  c #482532",
">  c #4F2431",
",  c #482834",
"<  c #522531",
"1  c #522732",
"2  c #5B263A",
"3  c #48363F",
"4  c #672439",
"5  c #742F35",
"6  c #7A293A",
"7  c #363843",
"8  c #413341",
"9  c #443E47",
"0  c #483F46",
"q  c #46454B",
"w  c #47464C",
"e  c #48474C",
"r  c #47484D",
"t  c #484848",
"y  c #494949",
"u  c #4B4B4B",
"i  c #48494E",
"p  c #4C4C4C",
"a  c gray30",
"s  c #4F4F4E",
"d  c #50504F",
"f  c #4B4A50",
"g  c #4C4D51",
"h  c #505050",
"j  c #515151",
"k  c #535352",
"l  c #545453",
"z  c gray33",
"x  c #545555",
"c  c #555556",
"v  c #555656",
"b  c gray34",
"n  c #585857",
"m  c #585858",
"M  c #595958",
"N  c #5B5B59",
"B  c #5A5B5A",
"V  c #5C5C5A",
"C  c #5C5C5B",
"Z  c gray36",
"A  c #5F5F5E",
"S  c #61615F",
"D  c #5F5F60",
"F  c #636361",
"G  c #686866",
"H  c #812B39",
"J  c #843337",
"K  c #973434",
"L  c #B53B37",
"P  c #BC373E",
"I  c #C03D37",
"U  c #CB3F37",
"Y  c #CD3F37",
"T  c #CB3A3E",
"R  c #D83F3B",
"E  c #CE463D",
"W  c #D84238",
"Q  c #DC4238",
"!  c #DD423A",
"~  c #DB493E",
"^  c #E24339",
"/  c #E44438",
"(  c #E54439",
")  c #E64539",
"_  c #E6463A",
"`  c #E6483C",
"'  c #E74B3E",
"]  c #892A40",
"[  c #8A2A40",
"{  c #922B41",
"}  c #992C42",
"|  c #A72E42",
" . c #A72F42",
".. c #AD2F44",
"X. c #B33341",
"o. c #B03044",
"O. c #B93342",
"+. c #BB3442",
"@. c #9A4341",
"#. c #E95446",
"$. c #EB604F",
"%. c #E26050",
"&. c #EC6453",
"*. c #E37865",
"=. c #F07B66",
"-. c #F17F69",
";. c #F9A488",
":. c #FAAB8E",
">. c #FBB294",
/* pixels */
"y s h h h h h h g j j s j j j s j j s j g s j j s j s s g s j s p s y s p s s i ",
"s F A F S S S S F F S S S S S F S S S S F F S S S S M Z S S S N A M m M m b Z s ",
"h S n M M M M M M M M M n M M M M M m m M M M M n m M N M M n n M M M M M N M s ",
"h S M M C M M M N M M Z m N M N N M M M M M Z M n N N M N m N m n A M n M M N s ",
"s F M M M M M C N M N M M N N M M N M M N M M N M Z M M M N M Z A n M A M M m p ",
"h F M M M C M M M M M N m c M M Z M Z M M Z M Z M M N Z N M M M M M M M A M M p ",
"h F M C C M C M N N m N s e c M M M Z N M Z M M N M N M M N N M n M M n m M M s ",
"s S M M M M M A z c M N k k D M M N M M N M M N M Z M M Z M M Z A M M A M M m p ",
"g S M M M C n F s q n n N Z m N C n n n M C A D M N M M M M M Z M A n M A n M s ",
"h S M M M C n F d p C n m m M M n N C V M c A G Z M N m Z M A M M M M M M M m p ",
"h S M C C n n C M C M M t X       . 7 c c 7 .       X p c A c M A n n A M M M s ",
"h F M n M M C M M M M C t .       . 7 c c 7 .       X f C M C M M M M M A n M s ",
"h S n M C n C M C M s i 0 , ; ; , ; 3 t w * * * @ @ * 0 i i M M M M A M M M m p ",
"h S n C n C n C C M # # , L U E E P 5 $ + 2 { } } } H * X X n A M n n M N M M p ",
"h S M M C C n M M M     ; U ) / ' ~ J o o 4 ....o.o.} @     n N M A A M M A M s ",
"h S M M n M C M M C     ; U ) #.$.%.@.< < 6 o.O.....} @     A M M M m M M m m p ",
"s F M M M N Z M N n     : U ' $.;.:.*.E Y R ^ R O.o.} @     m M M M M M M M M s ",
"j F M N M M M N n n     ; E ' $.:.>.-.' ) ) ( ^ O.o.} @     M N n A A n n A M p ",
"j F M N Z M M N N N     ; U ` #.-.-.&.' ( ( ( ^ +.o.} @     Z M M M M M M A n p ",
"s n M M Z M M Z N n     ; U ) ( ' ' ) / ( ( ( R +.o.} @     N M M n A M M M M s ",
"t m M M N M M M m N . . : I Q Q / / ) ) / / ^ R O.| { = . . M Z n M M n M M n p ",
"j F M M M M Z M N M 7 7 8 5 J K W / ) ) / R T +.6 4 2 7 7 7 M M A M M A A M M s ",
"f S M S M Z M Z Z M c c e $ o < E / / ) / T P | - O + w m m N M M M N M n Z k y ",
"s F m n N N M M M M N M i & $ : L E R R R P K H * + & f m M M Z n A M M M M s t ",
"h F M N M M N M Z M M M m g u q , > H X.o.6 : * 9 w f x m M M Z M Z M M Z m p t ",
"s N M N Z M M Z M M V M m c h w $ + 4  . .4 O % f D V m m Z M M N M M N M M y t ",
"p M N M N M M N M V M V M Z c g & % 4 { { 2 % & g D m m V M V M M N N M N M j q ",
"p M M N M M Z M M Z M M M M m c g r 8 @ @ 7 r g c c m V M M M c m Z M M M N N s ",
"s M M M Z N M Z M V M M V M M V M m 7 . . 7 n M M M M V M M Z M Z M M Z M N m p ",
"s S N Z M M M M M Z M Z M M V x h m 7 . . 7 x M V Z M M V M V M M N N M N M M p ",
"p M N M M N N M M M V M M m c h h Z M M M V M V M M Z M M M M M N M m m M Z M s ",
"s M M M Z m n S V M M M Z x u V V M M V M Z M M M Z M M V Z M M M N m j m M M p ",
"y M M M Z M Z S n N N M N M Z M M N M M N M M N M M N M Z c t c N N M j M Z M p ",
"g F M N M N M M m Z c M M N S G Z M Z M M Z M Z Z M M Z M m s c N M N M M N M s ",
"s m M N M M M M M N M M N M n D M N N M M Z M M N M M N Z M Z M M N N Z N M m p ",
"s S Z M Z M N Z N M Z M M N M m M Z M M N M M N M M Z M M N M N N M n S M M M p ",
"g F M M N M N M M N Z M N M M N Z M M Z M N Z M Z M M M A m M M M Z Z M M N m s ",
"s S M M M N M M Z M M M M Z Z M M M N M Z M M M N M M M N M Z M M M M M Z M m s ",
"j S M n N n n m M M m M m n M M m M m n M M n m M n m m M m M m N m M m M m M p ",
"g n p s s s s p s s p p s p s s p p s p s s p p s s s p s p s p s p s p s p s t "
};
