/* XPM */
static char *_418460adad7492e82d23d557a44affecBUOFczRNv34J19c[] = {
/* columns rows colors chars-per-pixel */
"40 40 50 1 ",
"  c #2C2C2B",
". c #2E2E2D",
"X c #2F2F2E",
"o c #363635",
"O c #373736",
"+ c #383837",
"@ c #3B3B3A",
"# c #3C3C3B",
"$ c #3D3D3C",
"% c #40403F",
"& c #444443",
"* c #474746",
"= c #4B4B4A",
"- c #50504F",
"; c #585857",
": c #595958",
"> c #5E5E5D",
", c #626261",
"< c #636362",
"1 c gray40",
"2 c #676766",
"3 c #686867",
"4 c #696968",
"5 c gray42",
"6 c #6C6C6B",
"7 c #6D6D6C",
"8 c gray43",
"9 c #70706F",
"0 c #727273",
"q c gray45",
"w c #747473",
"e c #747474",
"r c #787877",
"t c #777778",
"y c #7B7B7A",
"u c #7B7B7B",
"i c #7C7C7B",
"p c #7C7C7C",
"a c gray50",
"s c #80807F",
"d c gray51",
"f c #838383",
"g c #848483",
"h c gray52",
"j c #878788",
"k c #888888",
"l c gray54",
"z c #8B8B8C",
"x c gray55",
"c c gray56",
/* pixels */
"7ldxphxxdill0uhlxdulllexxxwhxxddxxhuxll6",
"7jthwipduwupu0uidi0iuwepdp3uieeedpiwhxh7",
"4re,;;::;;;;;;;;;;;:;;;;:;;;;;::;;::,wu3",
"7xd=+@@@@@#@#@@@@@##@@#####@@@@#@@@o=dl6",
"6ll& XXXXX X XX X XX XX X XXXXX  XX &lx7",
"3dd* XXXXXXXXXXXXXXXXXXXXXXXX XXXXX *dd4",
"3pu& XXXXXXXXXXX XXXXXXXXXXXXXXXXXXX&ip4",
"7cu& XXXXXXXXXXXXXXXXXXXXXXXXXXXXXX &ic7",
"9ld* XXXXXXXXXXXXXXXXXXXXXXXXXXXXXX *dl7",
"6lh*XXXXXXXXXXXXXXXXXXXXXXXXXXXXXXXX*hl7",
"3ll*X XXXXXXXXXXXXXXXXXXXXXXXXXXXXX *ll3",
"3ui*XXXXXXXXXXXXXXXXXXXXXXXXXXXXXXXX&iu3",
"7ei* XXXXXXXXXXXXXXXXXXXXXXXXXXXXXX *iw6",
"7xl& XXXXXXXXXXXXXXXXXXXXXXXXXXXXXX *lx9",
"4ip*X XXXXXXXXXXXXXXXXXXXXXXXXXXXXXX*up3",
"4i7* XXXXXXXXXXXXXXXXXXXXXXXXXXXXXX &wd3",
"7xh*XXXXXXXXXXXXXXXXXXXXXXXXXXXXXXX *gc7",
"4di*XXXXXXXXXXXXXXXXXXXXXXXXXXXXXXXX*us4",
"7w0*  XXXXXXXXXXXXXXXXXXXXXXXXXXXXX *r07",
"6lh*XXXXXXXXXXXXXXXXXXXXXXXXXXXXXXXX*hl4",
"2ee*XX XXXXXXXXXXXXXXXXXXXXXXXXXXXX *we3",
"7lh* XXXXXXXXXXXXXXXXXXXXXXXXXXXXXXX*hx6",
"3ru* XXXXXXXXXXXXXXXXXXXXXXXXXXXXXX *ri3",
"6xi&XXXXXXXXXXXXXXXXXXXXXXXXXXXXXXX *ix7",
"6xg* XXXXXXXXXXXXXXXXXXXXXXXXXXXXXX *dx6",
"6hd& XXXXXXXXXXXXXXXXXXXXXXXXXXXXXXX*dh6",
"4ii*XXXXXXXXXXXXXXXXXXXXXXXXXXXXXXX *uu3",
"9cx*XXXXXXXXXXXXXXXXXXXXXXXXXXXXXXXX*ll9",
"3rr* XXXXXXXXXXXXXXXXXXXXXXXXXXXXXX =eu4",
"6li* XXXXXXXXXXXXXXXXXXXXXXXXXXXXXXX&pl7",
"6xp* XXXXXXXXXXXXXXXXXXXXXXXXXXXXXX &px7",
"6lh*XXXXXXXXXXXXXXXXXXXXXXXXXXXXXXX *ll7",
"4iw& XXXXXXXXXXXXXXXXXXXXXXXoX  X X &qt4",
"7xh*XX XXXX XXXXXXXXXXXXXXXXX XXXoX *fx7",
"4ll*X XXXXXXXXXXX XXX XX XXXXX XXX X*ll4",
"4pi& X XXX X  XXX XXXXX XX X XXX  X =pp4",
"6gp-@#*@@@$&$@@$%###&$O&#&O$&$@@#&#O-af1",
"9idlephjuqqhlqpllpqlpq7jhf7fhqqphhfqjfpq",
"3pdhedfhuqafftphhpthpaqfhf7ffatphfaqffp4",
">977347722877247711877<778,578117752778>"
};
