/* XPM */
static char *_94c9a8fa99746be90ac35aa34a37bf2iUyKgyKJXs0PV9iX[] = {
/* columns rows colors chars-per-pixel */
"40 40 105 2 ",
"   c None",
".  c #395D42",
"X  c #385D43",
"o  c #3A5F44",
"O  c #3A6044",
"+  c #396245",
"@  c #3A6245",
"#  c #396146",
"$  c #3B6147",
"%  c #396347",
"&  c #3A6346",
"*  c #3A6347",
"=  c #3B6347",
"-  c #396547",
";  c #3A6447",
":  c #3A6547",
">  c #3B6547",
",  c #3A6348",
"<  c #396448",
"1  c #3A6448",
"2  c #3B6448",
"3  c #3A6548",
"4  c #3B6548",
"5  c #3B6449",
"6  c #3A6748",
"7  c #3B6748",
"8  c #3B6649",
"9  c #3B6749",
"0  c #3C6549",
"q  c #3C6648",
"w  c #3C6649",
"e  c #3D6649",
"r  c #3C6749",
"t  c #3D6749",
"y  c #3C654A",
"u  c #3D664A",
"i  c #3A6948",
"p  c #3B6948",
"a  c #3A6849",
"s  c #3B6849",
"d  c #3A6949",
"f  c #3B6949",
"g  c #3B6A48",
"h  c #3B6A49",
"j  c #3B6B49",
"k  c #3B684A",
"l  c #3A694A",
"z  c #3B694A",
"x  c #3A694B",
"c  c #3B694B",
"v  c #3B6A4A",
"b  c #3B6A4B",
"n  c #3C6948",
"m  c #3C6849",
"M  c #3C6949",
"N  c #3C684A",
"B  c #3C694A",
"V  c #3D694A",
"C  c #3D684B",
"Z  c #3D694B",
"A  c #3C6A4A",
"S  c #3D6A4A",
"D  c #3C6B4A",
"F  c #3D6B4A",
"G  c #3C6A4B",
"H  c #3D6A4B",
"J  c #3D6B4B",
"K  c #3E6B4B",
"L  c #3C6C4A",
"P  c #3C6C4B",
"I  c #3D6C4B",
"U  c #3D6E4B",
"Y  c #3D684C",
"T  c #3C6B4C",
"R  c #3E6B4C",
"E  c #3F6B4D",
"W  c #3C6D4C",
"Q  c #3D6D4C",
"!  c #3C6C4D",
"~  c #3D6C4D",
"^  c #3D6D4D",
"/  c #3E6C4D",
"(  c #3D6E4C",
")  c #3E6E4D",
"_  c #3E6F4D",
"`  c #3F6F4D",
"'  c #3F6C4E",
"]  c #3F6E4E",
"[  c #3F704D",
"{  c #3D714F",
"}  c #3F704E",
"|  c #3F714E",
" . c #3F714F",
".. c #406F4D",
"X. c #406D4F",
"o. c #416F4E",
"O. c #426F4F",
"+. c #40704E",
"@. c #40714E",
"#. c #40724E",
"$. c #40724F",
"%. c #41734F",
"&. c #437352",
"*. c #417451",
"=. c #437551",
/* pixels */
"                                                                                ",
"                                                                                ",
"                    J j                                                         ",
"                    =.| j                           T                           ",
"                    J T 4           j 4     O./ j   O                           ",
"                                    4  ./ w 4 j j j =.|                         ",
"                                    O j / /         O.                          ",
"                j j /                   4 j                     T               ",
"                O.j / / L               4 4                   . /               ",
"                      / /                 J L                 4 @.              ",
"                        j                 b 4             j / /                 ",
"                        T                 w J         J 4 | =.                  ",
"                        J /                 w J       j %.|                     ",
"                        w L                   j       /                         ",
"                        w                     4 b j /                           ",
"                        O                     w J                               ",
"                O.J     T               J T / L                                 ",
"                w J                       4 J                                   ",
"                    J     J                 4                                   ",
"                    4 J t w               O                                     ",
"                        j T       T  .j 4                                       ",
"                      w &.|         O O                                         ",
"                          /                                                     ",
"                          O J J J w J J                                         ",
"                              T |                                               ",
"                                j                                               ",
"                              4 T /     j                                       ",
"                              X O J j 4 J                                       ",
"                                      X O j                                     ",
"                                          4                                     ",
"                                            j                                   ",
"                                          4 w                                   ",
"                                          4 4                                   ",
"                                        4 T                                     ",
"                                        4 J                                     ",
"                                      O 4                                       ",
"                                      4                                         ",
"                                                                                ",
"                                                                                ",
"                                                                                "
};
