/* XPM */
static char *_dd7055492e24202a70da90d77d24ec23GB8fG7NdJ6jyvKN[] = {
/* columns rows colors chars-per-pixel */
"40 40 55 1 ",
"  c #2B2B2A",
". c #2E2E2D",
"X c #2F2F2E",
"o c gray21",
"O c gray24",
"+ c #444443",
"@ c #464645",
"# c #474746",
"$ c #494949",
"% c #4C4C4B",
"& c #4D4D4C",
"* c #525251",
"= c gray33",
"- c #555554",
"; c #595958",
": c #5B5B5A",
"> c #5E5E5D",
", c #606060",
"< c #636362",
"1 c #646463",
"2 c #646464",
"3 c #666665",
"4 c #696967",
"5 c #686868",
"6 c #6B6B6A",
"7 c gray42",
"8 c #6C6C6B",
"9 c #6E6E6D",
"0 c #6F6F6F",
"q c #70706F",
"w c #727272",
"e c gray45",
"r c #747473",
"t c gray46",
"y c #777777",
"u c #787877",
"i c #7A7A7B",
"p c #7B7B7B",
"a c #7D7D7C",
"s c #7E7E7E",
"d c #7F7F7E",
"f c #7E7E7F",
"g c #808080",
"h c #838383",
"j c #838384",
"k c #878786",
"l c gray53",
"z c #898989",
"x c #8B8B8B",
"c c #8C8C8B",
"v c #8E8E8E",
"b c gray56",
"n c gray57",
"m c #9094A3",
"M c #BBC3E1",
/* pixels */
"3999;39q>>993;<99<;988-999-69w;1893;9993",
"9zivslvvlglzialvvlszzzivvvugzzsgvczsbcl9",
"6gir1466338863386438311664>86<338841tgg6",
"6st-%&$$%%$%%&$&$$&$%%%%$%%&$&&&%%%%-rg8",
"8vz#;4444444;84864864;8;;;36;;6;;:;$#zv9",
"8zz#6;;;:;;:$;;;;;:;$;;:;;;>;;;;:;:$+zz4",
"4tt#8:;;:M;:$;;:;:;M$;:;:;;;;M>;;:;$#ui4",
"9za+6;:;;M:;;$:;;;:M;;;:;:;;>M;;:;;$+sz8",
"9cg#4;;:;Mm::$;::;;Mm::;:;;;;Mm;:;:$#gz9",
"9zz+4;;;OMmO;$:;;:OMmO;:;:;;OMmO;:;$+zz8",
"6zz+6;;OXMmXO:$::OXMmXO;::;OXMmXO;:$#zz6",
"6ll#;$#oXMmXX;o;$XXMmXX:;$$oXMmXX:;$+zl8",
"39r#6;;$XMmX:;oo;:XMmX:;:$$$XMmX:;:$#r98",
"9gg#4;:;o;;:;:o::;:;;:;:;;:;;::;;:;$#gg9",
"9vl+4;;:$;:;:;o;;:;::;:;:;;:;:;::;;$+zc8",
"3w9#4;;;$:;:;:$::;:;;:;:;::;:;:;;:;$+wt3",
"8lu+4:;::M:;;$;:;:;M;:;:;:;:;M;:;:;$+gc8",
"9vz#4;:;;M;::o:;:;:M:;:;:;:;:M:;:;:$#zv8",
"4wr#4;;::Mm;o;;::;;Mm::;;:;::Mm;;:;$#rw4",
"9sg#4::;OMmOo::;;:OMmO;::;:;OMmO:;:$#gs8",
"6gg#4;;OXMmXO:;::OXMmXO;;:;OXMmXO:;$+gg4",
"6ii+6;;XXMmXX;:;;XXMmXX::;:XXMmXX;:$#is8",
"8hg#6;;:XMmX:$;::;XMmX:;;:;:XMmX;:;$#gg9",
"4sa+8;:;:;:;;:$$;::;:;;::;:;:;:;:;:#+as6",
"8va+4;;;:;:;:;:;$o:;;:;:;:;:;:;:;:;$#av8",
"8vz#4;:;;:;:;:;::;o::;:;:;:;:;:;:;:$#zv8",
"8uu+4:;:;M:;:;:;;:;M;:;:;:;:;M;:;:;$#ri6",
"8zl#4;:;:M;:;:;::;:M;$$::;:;:M:;:;:$+zl8",
"6ll#4:;::Mm;:;:;;:;Mm$$;;:;:;Mm:;$$$#gl6",
"4au+4;:;OMmO;:;::;OMmO;::;:;OMmO$::$#ia6",
"9va+4:;OXMmXO::;:OXMmXO:;::OXMmXO;;$+sv9",
"9vz#4;:XXMmXX;;:;XXMmXX;:;;XXMmXX;;$+lv6",
"4ii#4;;:XMmX;:;:;;oMm.;>;;>;XMmX$$$$#ii4",
"6li+6;;;:;:;:;:;;;;#;;;;;;;$;;;:;:;$+sl6",
"8vz#8;;;;:;::;;:;>;;$;>;>;$;;>;;:;:$#lz6",
"4ll#$$$$$$$$$$$$$$$$o$$$$$$$$$$$$$$$#lz6",
"6ur+   ..... . ............. ...... +ty6",
"8lz8-133;-><6->33;-3<>%323*<3>-;33,-9ll9",
"9ihnszvbggsvnslvvlsngsivvvtxvsijnvzivli9",
"1rtt69tt99ttt8qttw7ttt6tte3ett99ttw6ett<"
};
