/* XPM */
static char *d3c0f2416d2d4fe58857a38adf516c92IhWdLqpZmmUbyWJA[] = {
/* columns rows colors chars-per-pixel */
"40 40 61 1 ",
"  c #2B2B2A",
". c #2C2C2B",
"X c #2F2F2E",
"o c #313130",
"O c #343432",
"+ c #343433",
"@ c #383837",
"# c #3B3B3A",
"$ c gray23",
"% c #3C3C3B",
"& c #3F3F3E",
"* c #40403E",
"= c gray25",
"- c #444444",
"; c gray27",
": c #4A4A48",
"> c #4F4F4E",
", c gray32",
"< c #545452",
"1 c #565655",
"2 c #595957",
"3 c #5B5B5B",
"4 c #5C5C5B",
"5 c gray37",
"6 c #5F5F5F",
"7 c #60605F",
"8 c #606060",
"9 c #636361",
"0 c #636364",
"q c #676766",
"w c #676767",
"e c #686867",
"r c DimGray",
"t c #6C6C6A",
"y c #6B6B6C",
"u c #6D6D6E",
"i c #6F6F6F",
"p c #70706F",
"a c #727271",
"s c #747473",
"d c #737374",
"f c #767676",
"g c #777777",
"h c #787876",
"j c #797979",
"k c #7B7B7B",
"l c #7C7C7C",
"z c #7E7E7D",
"x c gray50",
"c c #80807F",
"v c #838383",
"b c #848483",
"n c #848484",
"m c gray52",
"M c gray53",
"N c #898989",
"B c gray54",
"V c #8B8B8A",
"C c #8B8B8B",
"Z c gray55",
"A c gray56",
/* pixels */
"XXXXXXXXXXXXXXXXXXXXXXXXXXXXXXXXXXXXXXXX",
"XXXXXXXXXXXXXXXXXXXXXXXXXXXXXXXXXXXXXXXX",
"XXXXXXXXXXXXXXXXXXXXXXXXXXXXXXXXXXXXXXXX",
"XXXXXXXXXXXXXXXXXXXXXXXXXXXXXXXXXXXXXXXX",
"XXXXXXXXXXXXXXXXXXXXXXXXXXXXXXXXXXXXXXXX",
"XXXXXXXXXXXXXXXXXXXXXXXXXXXXXXXXXXXXXXXX",
"XXXXXXXXXXXXXXXXXXXXXXXXXXXXXXXXXXXXXXXX",
"XXXXXXXXXXXXXXXXXXXXXXXXXXXXXXXXXXXXXXXX",
"XXXXXXXXXXXXXXXXXXXXXXXXXXXXXXXXXXXXXXXX",
"XXXXXXXXXXXXXXXXXXXXXXXXXXXXXXXXXXXXXXXX",
"XXXXXXXXXXXXXXXX..X  XX  XXXXXXXXXXXXXXX",
". XX  XX  X Xooqurrrrrrur, XX    XXX XXX",
"##o##=&o&*=&+#qBBBcBBBBmvx:#o**=*%O##%O ",
"zz7zzzzqxkjvqrzBBBBBBBBzdmadrzzvzuavzvr>",
"AvavBBvaABBZaaxBBBBBBBBBMmjxgBZBBjmBABAy",
"jjqjjggqggggrqjABBBbmBZBBmuurggagrujjjj6",
"ur7ttut7tuuu66gZbavBBBvBBme88utuu8rrurt6",
"76678777897764pBZbBBBAvBBv84888888868876",
"zceczzzecccpuupzzbbzvzvvzguaezvzgrg1rbzz",
"rq8uuuu7uauee7quauauuuuauu7e7uuur8yq8put",
"8727898677776336668888687736777866666977",
"7jjju8zjjarzjr6gzuijjhqgjr,azgstzjgajjj6",
"6aaar8aaaueuuq6uarrgga8aaq1raaueaautuaa6",
"3qqe83qre7147<4qr66ree7eq6<7rr66qqqq66q4",
"ry8uttr7rurq776rrre8r8ttr8668trre8rq23ut",
"jj9jjjjejjzuuu6gjjgegrjjjuqurjjjarga66jj",
"yu6urtt7ruue976rurr7r8uruq348tutq6qqq487",
"66688776666871277866767766<4676666667786",
"7zbcq6vzzqzzzq2zejzbzbzuguegvzqzzzg6vzz6",
"6uru86uuu8utr62u9tuuuuueqq6qur8uuuu6rir6",
"4778337874886117468889666463q8488q638863",
"zj8zjggejhjptu7shgeghtuggr8uqhhjurzjzqjj",
"ua7aaaa6daduqr6aaaqadrrgae8uqaaayqdia8iq",
"e7608rr6rrr8863qre6qr6err8486rqrq6r08666",
"utuuyrrrqrrrr86r7errrrr8e88errrqqrruyyui",
"BmBBBBBZZBBBZBugrhjjjjjupyvABBBBZBBBZMZM",
"ttyryiuupuuuaBrr8rtuturqe8vzuuuauiyyyrrr",
"qeqqrqqqeqqermu77888888679zz8qqqqqqrqrrq",
"rrrqrrrrqrerrmmbmvvmmmbbmmZjerrqrrrqrrrr",
"#+###=-----;:gjjjjjjjjjjjjg7=;;;=;=##+#@"
};
