/* XPM */
static char *_fe045af6d4f441b9ceebf7fc71da9e5KYo4wmfBPctUAFP3[] = {
/* columns rows colors chars-per-pixel */
"40 40 28 1 ",
"  c #2F2F2E",
". c #353535",
"X c #575756",
"o c #5A5A59",
"O c #5A5A5A",
"+ c #5B5B5B",
"@ c #5D5D5C",
"# c #60605E",
"$ c gray39",
"% c #646463",
"& c #646464",
"* c #676766",
"= c gray42",
"- c #6E6E6D",
"; c gray43",
": c gray44",
"> c #727271",
", c gray45",
"< c #767675",
"1 c gray47",
"2 c gray48",
"3 c #7C7C7C",
"4 c #818181",
"5 c #838383",
"6 c gray53",
"7 c gray54",
"8 c #8B8B8B",
"9 c gray55",
/* pixels */
"                                        ",
"                                        ",
"                                        ",
"                                        ",
"                                        ",
"                                        ",
"                                        ",
"                                        ",
"                                        ",
"                                        ",
"                                        ",
"                                        ",
"                                        ",
"OO.OOOO.                                ",
"66@6366@                                ",
"66%7677$                                ",
">>&7777%                                ",
"%&%<<<>%                                ",
";;%6661%                                ",
"<<&8777%                                ",
"==&5788%                                ",
"&*%2555%                                ",
"33$<<,<%                                ",
";;%788,%                                ",
"$#%7772%                                ",
"O2%7839%                                ",
"O>$2<22%                                ",
"X$$:444%                                ",
";:%8978%                                ",
",,%:;;:%                                ",
":=%6;;7%                                ",
"+%%7558%                                ",
"+3%8888%                                ",
"+-%->>:%                                ",
"o#%388-%                                ",
"54%8685%                                ",
"68%8888%                                ",
"88%:--:%                                ",
"68%8-:6%                                ",
"88%6558%                                "
};
