/* XPM */
static char *_60b05a06b934259b42a0091c49115ec15329F2pkLccBine[] = {
/* columns rows colors chars-per-pixel */
"40 40 6 1 ",
"  c #2F2F2E",
". c #515150",
"X c #5A5A59",
"o c #646463",
"O c gray43",
"+ c gray54",
/* pixels */
" ++o++++o                               ",
"oooo+OO+o                               ",
"+++o+OO+o                               ",
"+++o++++o                               ",
"+++o++++o                               ",
"OOOXOOOOX                               ",
"OOOXOOOOX                               ",
"... .....                               ",
"                                        ",
"                                        ",
"                                        ",
"                                        ",
"                                        ",
"                                        ",
"                                        ",
"                                        ",
"                                        ",
"                                        ",
"                                        ",
"                                        ",
"                                        ",
"                                        ",
"                                        ",
"                                        ",
"                                        ",
"                                        ",
"                                        ",
"                                        ",
"                                        ",
"                                        ",
"                                        ",
"                                        ",
"                                        ",
"                                        ",
"                                        ",
"                                        ",
"                                        ",
"                                        ",
"                                        ",
"                                        "
};
