/* XPM */
static char *_ba5417ab41a41cae034d61541898a8aqBGHjQi7aN1xN1vb[] = {
/* columns rows colors chars-per-pixel */
"40 40 33 1 ",
"  c #2F2F2E",
". c #353535",
"X c #575756",
"o c #595958",
"O c #5A5A59",
"+ c #5A5A5A",
"@ c #5D5D5C",
"# c #60605E",
"$ c #606060",
"% c gray39",
"& c #646463",
"* c #666665",
"= c gray42",
"- c #6C6C6B",
"; c #6E6E6D",
": c #6F6F6F",
"> c #717170",
", c #727271",
"< c #757574",
"1 c #767675",
"2 c #797978",
"3 c #7A7A79",
"4 c #7B7B7B",
"5 c #7C7C7C",
"6 c gray49",
"7 c #808080",
"8 c #818181",
"9 c #838383",
"0 c gray52",
"q c gray53",
"w c #898989",
"e c #8B8B8B",
"r c #8D8D8D",
/* pixels */
"                                        ",
"                                        ",
"                                        ",
"                                        ",
"                                        ",
"                                        ",
"                                        ",
"                                        ",
"                                        ",
"                                        ",
"                                        ",
"                                        ",
"                                        ",
"                                .OOOO.OO",
"                                @e03q%e0",
"                                %ee9e%00",
"                                &eeee%,,",
"                                %>111%%%",
"                                &2000&;;",
"                                %eeer&11",
"                                %eee7%==",
"                                %9995***",
"                                %1<<1%56",
"                                *,eee%;;",
"                                &3ere%%#",
"                                &r3re%3O",
"                                &3223%>O",
"                                &399,%%X",
"                                %eeee*>;",
"                                %>=;>%11",
"                                %e;;0*--",
"                                %e99e%*@",
"                                &eeee&6O",
"                                &;,,-&;O",
"                                %;ee3&@o",
"                                %9eee&97",
"                                %eeee%ee",
"                                %,==>&ee",
"                                &e-;e%ee",
"                                &e00e%eq"
};
