/* XPM */
static char *_7564b8d975a4737db10aa2507706fbfhHj4CUy9HBb1QOP1[] = {
/* columns rows colors chars-per-pixel */
"40 40 59 1 ",
"  c #292928",
". c gray17",
"X c #2C2C2B",
"o c #2F2F2E",
"O c #2F2F2F",
"+ c #30302F",
"@ c #323231",
"# c #343433",
"$ c #363635",
"% c #383837",
"& c #3B3B3A",
"* c #3C3C3B",
"= c #3D3D3C",
"- c #414140",
"; c #454544",
": c #484847",
"> c #484848",
", c #494948",
"< c #4C4C4B",
"1 c #4F4F4D",
"2 c #535353",
"3 c #575756",
"4 c gray34",
"5 c #585857",
"6 c #595958",
"7 c #5B5B5B",
"8 c #5C5C5B",
"9 c gray36",
"0 c #60605F",
"q c #606060",
"w c #626262",
"e c #646463",
"r c #646464",
"t c #676766",
"y c #666667",
"u c #686867",
"i c DimGray",
"p c gray42",
"a c #6C6C6B",
"s c #6E6E6D",
"d c #70706F",
"f c #6F6F70",
"g c gray45",
"h c #747473",
"j c #747474",
"k c #777777",
"l c gray47",
"z c #7B7B7B",
"x c #7C7C7B",
"c c gray49",
"v c #80807F",
"b c #7F7F80",
"n c #818181",
"m c gray51",
"M c #878786",
"N c gray54",
"B c gray55",
"V c #8E8E8E",
"C c gray56",
/* pixels */
"oooooooooooooooooooooooooooooooooooooooo",
"oooooooooooooooooooooooooooooooooooooooo",
"oooooooooooooooooooooooooooooooooooooooo",
"oooooooooooooooooooooooooooooooooooooooo",
"oooooooooooooooooooooooooooooooooooooooo",
"oooooooooooooooooooooooooooooooooooooooo",
"oooooooooooooooooooooooooooooooooooooooo",
"oooooooooooooooooooooooooooooooooooooooo",
"oooooooooooooooooooooooooooooooooooooooo",
"oooooooooooooooooooooooooooooooooooooooo",
"ooooooo+o+oooooooooooooooooooooooooooooo",
"oXXoXooXXXXoXXoXoXoXXoXooXooXoXXoX.oXoXo",
"o&*&*@%**&$$*&**+&&&*+&***##&**%@&&=&@&&",
"6vccnekccvdancvl0nccv0lvcnahccckrncccwcc",
"sVVVVlnMVVncVVCvkVVVVlNVVVcnVVVMkVVlMkMN",
"wlklliglllkilllktllkltklllsdlllhillkftll",
"9isspwusistrpspiwisiswiiisttisiiwpiis9ii",
"9ww6w9w9ww9qw9ww6www99ww9w9ww9ww9wwww9ww",
"ccnikcnilccngsnztnccfgvnsgbbsgcnclibctcc",
"ssswisswisss9tsiwgssttssuusstttwtiwsswss",
"www99tt9www99qrq5www99ew99wtw9w66w6ww6ww",
"lulllt9lllfslltllksslxadcla5;@*3ilztlllk",
"grssi69gggiugfwgggiikgueski6%Xo,wggrhggs",
"t9wwtw6tttwqut9titw0tu099w9<ooo-wut6tttu",
"issswsisttsiwssu9sisttsss06,+oo*66sss9sa",
"lllltklkssllulkkicllsskllw6*oooo2qlllull",
"ssiiwisiwwsi9pt99sssrriss98&oooo,9psswas",
"r9wwwwwwwwwwww6tww9wwwr6ew0&oo+X=ww9w9w8",
"nikbcbksnngsncicccucncggcvk%Xooo@gctcnzr",
"swissr9risttsiwssiwsisttsw3$ooooo,sqsis9",
"w66rr9990w09w08www6www99981@Xoooo@q9rww4",
"clcktlccgsccssxkuclcskclct:Xoooooo1zlrzz",
"igsgrgsgutfgtugprgffuugsu9&Ooooooo@tgrpf",
"9wtw4rrrq9trq9ur4rrt9qu994=&o@oooo.,u4uw",
"ssssssfpsssssspffppfssssg469-,$--@$@9gpf",
"MNNMNNMNNNNNNNMNNNNNNNNNN,19,=;q1=;=pCNN",
"ppfuppiffiifupipifuipipfr&gVc2,sp;#99upp",
"uuyuiyiyriyyuuiuuiyiyyui9rNVNN,,1,2r>9iu",
"uuuuuuiuuuuuupyiuuyuuui4>9glnNC->MNm4,pu",
"&&&#&$&$$&&$&$$&&$&&$&&O 4trisu;uNsp1.&$"
};
